<?xml version="1.0" encoding="utf-8"?>
<!-- Generator: Adobe Illustrator 21.1.0, SVG Export Plug-In . SVG Version: 6.00 Build 0)  -->
<svg version="1.1" id="Layer_1" xmlns="http://www.w3.org/2000/svg" xmlns:xlink="http://www.w3.org/1999/xlink" x="0px" y="0px"
	 viewBox="0 0 99.7 99.6" style="enable-background:new 0 0 99.7 99.6;" xml:space="preserve">
<title>logo-bug</title>
<path d="M15.1,79.2L15.1,79.2c-0.1,0-0.2-0.2-0.3-0.2c-0.1,0-0.2-0.1-0.3-0.2c0,0-0.1-0.1-0.2-0.1c-0.2,0-0.5-0.1-0.6-0.3
	c-0.1-0.1-0.2-0.1-0.3-0.2L12.7,78l0,0c-0.4-0.3-0.8-0.4-1.1-0.6s-0.5-0.3-0.8-0.4l-0.6-0.3L10,76.5L9.4,76
	c-0.1-0.1-0.3-0.2-0.4-0.3c-0.1,0-0.2-0.1-0.3-0.2c-0.3-0.2-0.6-0.4-0.9-0.6c-0.1-0.1-0.2-0.1-0.3-0.2c-0.1-0.1-0.2-0.1-0.3,0
	c0,0,0,0,0,0c0-0.3,0.1-0.6,0.1-0.8c0.1-0.3,0.1-0.6,0.1-0.9c0-0.1,0-0.1,0-0.2c0-0.1,0.1-0.2,0.1-0.3c0,0,0,0,0-0.1c0,0,0,0,0,0.1
	c0,0.2,0,0.5,0,0.7c0,0,0,0.1,0,0.1c0,0,0,0.1,0.1,0.1c0,0,0.1,0,0.1,0c0.1-0.1,0.2-0.2,0.2-0.3c0,0,0-0.1,0-0.1s0-0.2,0.2-0.3
	C8,72.9,8,73,8,73.1c0,0.2,0,0.4-0.2,0.4H7.8c-0.2,0.1-0.3,0.3-0.2,0.5c0,0,0,0.1,0.1,0.1c0.1,0.2,0.3,0.3,0.5,0.4h0.1
	c0.3,0.2,0.6,0.3,0.9,0.4c0.1,0,0.2,0.1,0.2,0.1c0.3,0.1,0.6,0.2,0.9,0.3c0,0,0.1,0,0.1,0c0.2,0.1,0.4,0.1,0.6,0.2
	c0.3,0.1,0.6,0.2,0.9,0.3c0.1,0,0.1,0,0.2,0c0,0,0.1,0,0.1,0.1c0,0,0,0.1,0,0.1c0,0,0,0-0.1,0l0,0c-0.2-0.1-0.5-0.2-0.8-0.2h-0.1
	c-0.2-0.1-0.5-0.1-0.7-0.3c-0.2-0.1-0.3-0.1-0.5-0.1c0,0,0,0-0.1,0c0,0,0,0.1,0,0.1c0,0,0,0,0.1,0.1c0.3,0.2,0.6,0.3,0.9,0.4
	l0.9,0.2c0.2,0.1,0.4,0.1,0.6,0.1c0.1,0,0.2,0,0.3,0c0.2,0.1,0.4,0.1,0.6,0c0,0,0.1,0,0.1,0c0,0,0.1,0,0.1,0c0,0,0.1,0,0.1-0.1
	s0,0-0.1-0.1h-0.1c-0.1,0-0.2,0-0.3,0c0,0-0.1-0.1-0.1-0.1c0,0,0-0.1,0.1-0.1c0.1,0,0.2,0,0.3,0c0.1,0,0.2,0,0.3,0
	c0.1,0,0.2,0,0.4,0.1l-0.2,0.1c0.1,0,0.1,0,0.1,0s0-0.1,0-0.1c0,0,0,0,0-0.1c0,0,0.1,0,0.1,0c0.1,0.1,0.2,0.1,0.3,0
	c0.1,0,0.1,0,0.2,0c0.1,0,0.2,0,0.3,0c0.1,0,0.2,0,0.3,0h0.3c0.3,0,0.6,0.1,0.9,0.1h0c0.3,0.1,0.5,0.1,0.8,0.1H21
	c0.2,0,0.4,0,0.6-0.1c0.3-0.1,0.7-0.2,1-0.2c0.1,0,0.2,0,0.3-0.1c0.1,0,0.3-0.1,0.4-0.1c0.2,0,0.4,0,0.6-0.1
	c0.2-0.1,0.5-0.2,0.8-0.2c0.1,0,0.3-0.1,0.4-0.1l1.2-0.6l0.4-0.2h0c0.2-0.1,0.5-0.3,0.8-0.3c0.2-0.1,0.4-0.2,0.6-0.3
	c0.2-0.1,0.4-0.2,0.5-0.3c0.2-0.1,0.5-0.2,0.7-0.3c0.1,0,0.2-0.1,0.4-0.1c0.2-0.1,0.4-0.2,0.6-0.2c0.1,0,0.1,0,0.2,0
	c0.2,0,0.3-0.1,0.4-0.2c0,0,0,0,0.1,0c0.2,0,0.4-0.1,0.5-0.2c0.2-0.1,0.3-0.1,0.5-0.2c0.3-0.1,0.7-0.3,1-0.4
	c0.1-0.1,0.3-0.2,0.4-0.3l0.6-0.4c0,0,0.1,0,0.1-0.1c0.2,0,0.3-0.1,0.5-0.1c0.2,0,0.3-0.1,0.5-0.2c0.2-0.2,0.4-0.3,0.7-0.5
	c0.1-0.1,0.2-0.1,0.2-0.2c0.1-0.1,0.2-0.3,0.4-0.4c0.1-0.1,0.2-0.2,0.2-0.3c0.1-0.2,0.3-0.4,0.4-0.5c0.4-0.3,0.8-0.6,1.2-0.9
	c0.1-0.1,0.2-0.2,0.3-0.2c0.2,0,0.3-0.2,0.4-0.3c0.1-0.2,0.2-0.3,0.4-0.4c0.1-0.1,0.2-0.2,0.3-0.2c0.1,0,0.1-0.1,0.2,0s0,0.2,0,0.2
	c-0.1,0.1-0.1,0.1-0.2,0.2c-0.1,0.1-0.2,0.2-0.2,0.3c0,0.1-0.1,0.1-0.1,0.2c-0.1,0.1-0.2,0.2-0.2,0.4c-0.2,0.3-0.3,0.7-0.5,1.1
	c-0.1,0.1-0.1,0.3-0.1,0.4c0,0.1,0,0.2-0.1,0.3c-0.1,0.2-0.1,0.4-0.2,0.6c0,0.1,0,0.1,0,0.2c0,0.1,0,0.2,0,0.3
	c-0.2,0.3-0.2,0.6-0.4,0.8c0,0.1-0.1,0.2-0.1,0.3c-0.1,0.4-0.1,0.7-0.2,1.1c0,0,0,0.1,0,0.1c0,0.3-0.1,0.6,0,0.9c0,0,0,0.1,0,0.1
	c0,0.1-0.1,0.2-0.1,0.3c-0.1,0.3-0.1,0.6-0.1,0.9c0,0.1,0,0.3-0.1,0.4C37.1,75.8,37,75.9,37,76c0,0.2,0,0.3-0.1,0.5
	c0,0.1,0,0.2,0,0.3c0,0.1,0,0.2,0,0.3c0,0.2-0.1,0.4-0.1,0.6c0,0.3,0,0.6,0,1s0,0.8,0,1.2c0,0.3,0.1,0.5,0.2,0.8
	c0,0.2,0.1,0.3,0.1,0.5c0,0.2,0.1,0.5,0.2,0.7c0,0.1,0.1,0.2,0.1,0.3s0.1,0.3,0.1,0.5s0.2,0.6,0.2,0.8c0.1,0.2,0.1,0.3,0.2,0.5
	c0.1,0.5,0.3,0.9,0.5,1.4c0.1,0.2,0.2,0.4,0.3,0.6c0,0.1,0.1,0.1,0.1,0.2c0.1,0.4,0.3,0.8,0.6,1.1c0.1,0.2,0.2,0.4,0.3,0.6
	s0.3,0.5,0.5,0.8c0.2,0.3,0.4,0.7,0.7,1c0.1,0.1,0.1,0.2,0.1,0.2c0,0.1,0.1,0.2,0.2,0.3c0.1,0.1,0.2,0.2,0.2,0.3
	c0.1,0.2,0.2,0.3,0.3,0.4c0.1,0,0.1,0.1,0.1,0.2c0,0.2,0.1,0.3,0.3,0.4c0.1,0.1,0.1,0.2,0.2,0.2c0.3,0.4,0.6,0.8,1,1.1
	s0.5,0.6,0.8,0.9c0.1,0.1,0.2,0.2,0.3,0.3c0.2,0.2,0.4,0.4,0.7,0.5c0,0,0.1,0,0.1,0.1c0.2,0.2,0.3,0.4,0.5,0.5
	c0.2,0.2,0.4,0.4,0.6,0.6c0.2,0.1,0.4,0.3,0.6,0.5c0.1,0.1,0.2,0.1,0.3,0.2c0.3,0.1,0.5,0.3,0.7,0.5c0.2,0.1,0.3,0.2,0.5,0.3
	c0.2,0.1,0.3,0.2,0.5,0.3c0.1,0.1,0.2,0.1,0.2,0.1c0.1,0,0.3,0.1,0.3,0.2l0.1,0.1l0,0v0.1l0,0c0.1,0.1,0.1,0.2,0.2,0.2
	c0.1,0,0.2,0.1,0.3,0.1H50c0.1,0,0.2,0,0.3,0.1c0.2,0.1,0.4,0.1,0.6,0c0.1-0.1,0.2-0.1,0.3-0.1c0.1,0,0.1,0,0.2-0.1
	c0.1-0.1,0.1-0.2,0-0.3l-0.1-0.1c0,0,0-0.1,0-0.1c0,0,0,0,0,0c0.1-0.1,0.1-0.2,0-0.3c-0.1-0.2-0.1-0.3-0.2-0.5c0-0.1,0-0.1,0-0.2
	c0-0.1,0-0.3-0.1-0.4c-0.1-0.2-0.2-0.5-0.2-0.8c0-0.1-0.1-0.3-0.1-0.4c0,0,0-0.1,0-0.1c-0.1-0.6-0.3-1.1-0.4-1.7
	c0-0.2-0.1-0.4-0.2-0.6c0-0.1-0.1-0.2-0.1-0.3c0-0.3-0.1-0.6-0.2-0.9c0-0.1,0-0.1,0-0.2c0-0.2-0.1-0.4-0.1-0.5
	c0-0.1-0.1-0.2-0.1-0.3c0-0.2-0.1-0.4-0.2-0.6c0-0.1,0-0.1,0-0.2c0-0.6-0.2-1.1-0.2-1.7c0,0,0-0.1,0-0.1c-0.1-0.2,0-0.5,0.1-0.7
	c0.1-0.1,0.1-0.3,0.1-0.4c0-0.4,0-0.7-0.1-1.1c0,0,0-0.1,0-0.1c0-0.3,0-0.6,0-0.9c0,0,0-0.1,0-0.1c-0.1,0.1-0.2,0.1-0.2,0
	c-0.1-0.1-0.1-0.2,0-0.2l0,0c0,0,0.1,0,0.1,0.1c0.1,0.3,0.1,0.5,0.2,0.8c0,0,0,0,0,0.1c0,0.2,0,0.4,0,0.6c0,0.3,0,0.5,0,0.8
	c0,0.2,0,0.5,0.2,0.6c0.1,0.1,0.2,0.3,0.2,0.4c0,0,0,0.1,0,0.1c0.1,0.2,0.1,0.4,0.1,0.6c0,0.2,0,0.3,0.1,0.5c0,0.1,0,0.2,0,0.3
	c0,0.2,0,0.4,0.1,0.6C50,89.7,50,90,50,90.2c0,0.3,0.1,0.6,0.2,0.9c0.1,0.4,0.2,0.9,0.4,1.3c0.1,0.2,0.2,0.4,0.3,0.6s0.1,0.2,0,0.3
	c0,0,0,0.1,0,0.1c0,0,0,0,0,0c0.1,0.1,0.1,0.2,0.1,0.4c0,0,0,0,0,0.1c0.1,0.2,0.2,0.3,0.2,0.5c0,0.1,0.1,0.2,0.1,0.3
	c0.1,0.1,0.1,0.2,0.1,0.3c0,0,0,0.1,0,0.1c0.1,0.2,0.1,0.4,0,0.6c0,0,0,0.1,0,0.1c0,0.1,0,0.1,0,0.2c0,0.2,0,0.3,0.1,0.5
	c0.1,0.1,0.1,0.2,0.1,0.4c0,0.1,0,0.2,0.1,0.2c0.1,0.1,0.2,0.1,0.3,0.1c0.2,0,0.2-0.1,0.4-0.2s0.1-0.1,0.1-0.2c0,0,0-0.1-0.1-0.1h0
	c0,0-0.1,0-0.1-0.1c0-0.1,0.1-0.2,0.1-0.2c0,0,0,0,0,0h0c0.1,0.1,0.3,0,0.3-0.1c0,0,0.1-0.1,0.1-0.1c0.1,0,0.2-0.1,0.3-0.2
	c0.4-0.3,0.7-0.6,1.1-0.8c0,0,0.1,0,0.1-0.1c0.1-0.1,0.3-0.2,0.4-0.3c0.1,0,0.1-0.1,0.2-0.2c0.1-0.2,0.3-0.4,0.5-0.6l0.3-0.3
	c0.1-0.1,0.3-0.3,0.4-0.5c0.2-0.3,0.4-0.5,0.7-0.8c0.1-0.1,0.2-0.2,0.3-0.4c0.1-0.2,0.2-0.3,0.3-0.4c0.1-0.1,0.2-0.2,0.3-0.4
	c0.2-0.2,0.3-0.4,0.5-0.7s0.4-0.4,0.5-0.6c0.1-0.1,0.1-0.1,0.1-0.2c0.1-0.2,0.2-0.5,0.4-0.7c0.1-0.1,0.2-0.2,0.2-0.3
	c0.1-0.1,0.1-0.2,0.2-0.4c0.1-0.2,0.2-0.4,0.3-0.6c0,0,0,0,0-0.1c0-0.3,0.1-0.5,0.1-0.8c0-0.1,0-0.3,0-0.4c0-0.1,0-0.2,0-0.2
	c0-0.4,0.1-0.8,0.2-1.2c0-0.1,0-0.2,0-0.4c0-0.1,0-0.3,0.1-0.4c0,0,0-0.1,0-0.1c0-0.2,0.1-0.5,0.2-0.7c0-0.2,0.1-0.3,0.1-0.5
	c0-0.1,0-0.2,0-0.3c0.1-0.3,0.2-0.5,0.2-0.8c0-0.1,0-0.2,0-0.2c0-0.1,0-0.1,0-0.2c0-0.2,0.1-0.4,0.2-0.6c0-0.1,0.1-0.2,0.1-0.3
	c0-0.3,0-0.6,0-0.9c0,0,0-0.1,0-0.1c0-0.2,0-0.4,0-0.7c0-0.5,0-1,0-1.5c0-0.1,0-0.3,0-0.4c0-0.3-0.1-0.5,0-0.8c0-0.2,0-0.5-0.1-0.7
	c0-0.1,0-0.2,0-0.4c0-0.2,0-0.4-0.1-0.6c0-0.3-0.2-0.6-0.2-0.9c0-0.1,0-0.1,0-0.2c0-0.4,0-0.9,0.1-1.3c0-0.3-0.1-0.6-0.1-0.9
	c0-0.1,0-0.3,0-0.4c0-0.1,0-0.3-0.1-0.4c0-0.1,0-0.1,0-0.2c0-0.2,0-0.3,0-0.5l0,0l-0.1-0.1c-0.1-0.1-0.1-0.2-0.1-0.3l0,0l0,0
	c0,0,0,0.1,0,0.1c0,0,0.1,0.1,0.1,0.1c0.1-0.1,0.1-0.2,0.1-0.4v-0.2c-0.1-0.3-0.1-0.7-0.1-1l0,0c0-0.2,0-0.5-0.1-0.7
	c-0.1-0.2-0.1-0.3,0-0.5c0-0.1,0-0.3,0-0.4c0-0.1-0.1-0.1-0.1-0.2c-0.1-0.1-0.2-0.2-0.2-0.3c0-0.2-0.1-0.5-0.2-0.7c0,0,0-0.1,0-0.1
	c0,0,0-0.1,0-0.1c0,0,0.1,0,0.1,0c0,0,0,0,0,0c0.1,0,0.1,0.1,0.1,0.2c0,0.2,0.1,0.3,0.2,0.3c0.1,0,0.1,0.1,0.1,0.1
	c0,0.1,0,0.1,0,0.2c0,0.2,0,0.3,0.1,0.4c0,0.1,0,0.1,0.1,0.1c0.2,0,0.4,0.1,0.6,0.2l0,0c0,0,0-0.1,0-0.1c0-0.2,0.1-0.5,0.2-0.7
	c0-0.1,0-0.1,0-0.2c0-0.1,0-0.2,0-0.2c0-0.1,0-0.1,0.1-0.1c0,0,0.1-0.1,0.1,0c0,0,0,0,0,0.1c0,0.1,0,0.2,0,0.2s0,0.2,0,0.3
	c0,0.1,0,0.2-0.1,0.3c0,0.1,0,0.1,0,0.2c0,0.1,0,0.3,0,0.4c0,0.2,0,0.3-0.1,0.5c0,0.1,0,0.2,0,0.2l0.3,0.8c0,0.1,0.1,0.2,0.2,0.3
	c0.1,0.2,0.2,0.4,0.3,0.6c0.1,0.4,0.3,0.7,0.6,0.8c0.1,0,0.1,0.1,0.2,0.1c0.3,0.3,0.6,0.5,0.9,0.8c0.2,0.2,0.4,0.3,0.6,0.4
	c0.2,0.1,0.3,0.2,0.5,0.4c0.3,0.3,0.7,0.6,1.1,0.8c0.2,0.1,0.3,0.2,0.4,0.3c0.1,0.1,0.2,0.2,0.4,0.2c0.1,0,0.2,0.1,0.3,0.2
	c0.1,0.1,0.1,0.1,0.2,0.1c0.3,0.2,0.6,0.4,0.9,0.6c0.4,0.3,0.8,0.6,1.2,0.9c0.2,0.1,0.5,0.3,0.7,0.5c0.2,0.2,0.5,0.4,0.8,0.5
	c0.3,0.1,0.5,0.2,0.8,0.4c0.2,0.1,0.4,0.2,0.6,0.3c0.1,0.1,0.3,0.1,0.4,0.2c0.1,0.1,0.3,0.1,0.4,0c0.1-0.1,0.2-0.1,0.3,0l0.1,0
	c0.2,0.2,0.5,0.3,0.8,0.3c0,0,0.1,0,0.1,0c0.1,0,0.2,0,0.3,0c0.1,0,0.1,0,0.2,0.1c0,0.1,0.1,0.2,0.3,0.2H76c0.2,0,0.4,0,0.6,0.1
	c0.1,0.1,0.3,0.1,0.5,0.1c0.1,0,0.2,0,0.2,0.1c0,0,0.1,0.1,0,0.1s-0.1,0.1-0.1,0.1s-0.3,0-0.4,0h-0.1l0,0l0,0c0.2,0,0.3,0.1,0.5,0.1
	c0.1,0,0.2,0,0.3-0.1c0.1-0.1,0.2-0.1,0.3-0.1h1.3c0.1,0,0.3,0,0.4,0c0.1,0,0.3,0,0.4,0c0.1,0,0.3,0,0.4,0c0.2,0,0.3,0,0.5,0
	c0.3,0.1,0.6,0.1,0.9,0.1c0.2,0,0.3,0,0.5,0h0.2c0.1,0,0.2-0.1,0.2-0.2c0-0.1,0-0.1,0.1-0.2c0,0,0.1-0.1,0.1-0.1h0.5
	c0.1,0,0.1,0,0.2,0c0.3,0.1,0.6,0.1,0.9,0c0.2,0,0.3-0.1,0.4-0.1c0.2,0,0.4-0.1,0.6-0.2h0.2c0.3-0.1,0.7-0.2,1-0.3
	c0.1,0,0.2-0.1,0.3-0.1c0.2-0.1,0.5-0.2,0.7-0.2c0.1,0.1,0.3,0.1,0.4,0.1c0.1,0,0.1,0,0.2,0c0.2,0,0.4-0.1,0.6-0.3
	c0.1-0.1,0.2-0.1,0.3-0.1c0.2,0,0.4-0.1,0.6-0.3c0.1-0.1,0.1-0.1,0.2-0.2c0.4-0.2,0.8-0.4,1.2-0.6c0,0,0.1,0,0.1,0
	c0.2-0.1,0.3-0.2,0.5-0.2c0.1,0,0.2-0.1,0.2-0.1c0.2-0.1,0.4-0.3,0.6-0.3c0,0,0,0,0.1,0l0,0c0-0.1-0.1-0.3-0.2-0.3
	c-0.3-0.1-0.6-0.2-0.8-0.3c-0.2-0.1-0.5-0.2-0.7-0.3c-0.1,0-0.2-0.1-0.3-0.1c-0.1,0-0.2,0-0.2,0.1l0,0c0,0.1,0,0.2-0.1,0.2
	c0,0-0.1,0-0.1,0c-0.1,0-0.1-0.1-0.2-0.1l-0.2-0.2l0,0l-0.2-0.1c-0.1,0-0.2-0.1-0.3-0.2c-0.1-0.1-0.2-0.1-0.2-0.2c0,0-0.1,0-0.1-0.1
	c-0.1-0.1-0.2-0.2-0.4-0.2c-0.3-0.1-0.6-0.3-0.9-0.5l0,0c-0.4-0.3-0.9-0.6-1.4-0.8c-0.2-0.1-0.3-0.2-0.4-0.3
	c-0.1-0.1-0.2-0.2-0.3-0.3c-0.2-0.1-0.3-0.2-0.5-0.3l-0.6-0.3c-0.1,0-0.2-0.1-0.3-0.1c-0.1,0-0.2-0.1-0.3-0.2
	c-0.2-0.1-0.5-0.3-0.7-0.4c-0.3-0.2-0.5-0.4-0.8-0.6c-0.1-0.1-0.2-0.2-0.4-0.2c-0.1-0.1-0.1-0.1-0.2,0l-0.1,0.1
	c-0.1,0-0.2,0-0.2-0.1c-0.2-0.1-0.3-0.3-0.5-0.4c0-0.1,0-0.1,0-0.2l0,0l0,0c0,0-0.1-0.1-0.1-0.1c-0.3-0.1-0.4-0.3-0.7-0.4
	s-0.5-0.3-0.7-0.4h-0.1c-0.4-0.2-0.7-0.4-1-0.6c0,0-0.1-0.1-0.1-0.1c-0.3-0.2-0.5-0.3-0.8-0.5l-0.4-0.3c-0.1-0.1-0.1-0.1-0.2-0.1
	c-0.2-0.1-0.3-0.2-0.4-0.3c-0.1-0.1-0.3-0.3-0.4-0.4c0-0.1-0.1-0.1-0.1-0.1c-0.2-0.1-0.4-0.3-0.6-0.5c-0.2-0.2-0.4-0.4-0.7-0.6
	c-0.2-0.1-0.3-0.2-0.5-0.4c0,0-0.1-0.1-0.1-0.1c-0.2-0.1-0.4-0.2-0.6-0.3c-0.1,0-0.1-0.1-0.1-0.1c-0.2-0.1-0.4-0.3-0.7-0.3
	c-0.2-0.1-0.4-0.2-0.7-0.3l0,0c-0.1-0.1-0.3-0.2-0.4-0.3c-0.2-0.1-0.4-0.2-0.5-0.4c-0.3-0.2-0.5-0.5-0.8-0.7
	c-0.2-0.1-0.4-0.3-0.6-0.5c-0.2-0.2-0.4-0.3-0.6-0.5c-0.1-0.1-0.3-0.2-0.4-0.3c0,0-0.1,0-0.2,0l0,0c0-0.2-0.1-0.3-0.2-0.5
	c0-0.1-0.1-0.3-0.2-0.4c-0.1-0.2-0.2-0.3-0.2-0.5c0-0.1,0-0.1,0-0.2c0,0,0.1,0,0.1,0c0,0,0,0,0,0c0.1,0.1,0.2,0.2,0.2,0.3
	c0,0.1,0.1,0.2,0.2,0.3c0.1,0.1,0.2,0.3,0.2,0.4c0,0.1,0.1,0.2,0.1,0.2c0.1,0,0.2,0.1,0.3,0.2c0.1,0.1,0.1,0.1,0.2,0.2
	c0.1,0.1,0.3,0.2,0.4,0.3c0.1,0.1,0.2,0.2,0.3,0.3l0.1,0.1c0.3,0.2,0.5,0.4,0.8,0.6c0.2,0.2,0.4,0.3,0.6,0.5
	c0.1,0.1,0.2,0.1,0.3,0.1c0.1,0,0.1,0,0.2,0.1c0.5,0.2,1,0.5,1.4,0.9c0.2,0.2,0.5,0.4,0.8,0.5c0.2,0.1,0.4,0.2,0.6,0.4l0.2,0.2
	c0.1,0.1,0.2,0.1,0.4,0.1c0.1,0,0.2,0,0.3,0.1c0.1,0.1,0.1,0.1,0.2,0.2c0.1,0.2,0.3,0.3,0.5,0.4c0.2,0,0.3,0.1,0.5,0.2
	c0.1,0,0.1,0.1,0.2,0.1c0.1,0.1,0.1,0.2,0.2,0.2c0.3,0.1,0.5,0.3,0.7,0.6c0.1,0.1,0.2,0.2,0.3,0.3s0.1,0,0.1,0
	c0.1,0,0.3,0.1,0.4,0.1c0.2,0.1,0.4,0.2,0.7,0.3c0,0,0.1,0,0.1,0.1c0.2,0.2,0.4,0.3,0.6,0.4c0.2,0.1,0.4,0.2,0.5,0.3
	c0.1,0.1,0.2,0.1,0.3,0.2c0.2,0.1,0.4,0.2,0.6,0.3c0.1,0.1,0.3,0.1,0.4,0.2c0.3,0.1,0.5,0.2,0.7,0.4l0.1,0.1
	c0.1,0.2,0.3,0.3,0.4,0.4c0.2,0.1,0.4,0.3,0.6,0.4l0.1,0.1c0.3,0.1,0.5,0.2,0.8,0.4c0.2,0.1,0.4,0.2,0.7,0.3c0,0,0.1,0,0.1,0
	c0.1,0.1,0.3,0.2,0.4,0.3c0.1,0,0.1,0.1,0.1,0.2c0,0.1,0.1,0.2,0.2,0.2c0.2,0.1,0.4,0.2,0.6,0.2c0.2,0.1,0.4,0.2,0.5,0.3
	c0.3,0.3,0.6,0.6,1,0.8c0.3,0.1,0.5,0.3,0.7,0.5C89,72,89.1,72,89.2,72c0.1,0,0.3,0,0.4,0.1c0.2,0.2,0.5,0.3,0.8,0.4
	c0.1,0,0.2,0.1,0.2,0.2c0.1,0.1,0.2,0.2,0.3,0.1c0.1,0,0.2,0,0.3,0c0.1,0,0.1,0.1,0.1,0.2c0,0.2,0.2,0.4,0.3,0.4
	c0.2,0.1,0.3,0.2,0.4,0.3c0,0,0.1,0.1,0.2,0.1c0.3,0,0.5,0.1,0.7,0.3l0.2,0.1c0.1,0,0.1,0,0.1-0.1c0,0,0,0,0,0c0-0.1,0-0.2,0-0.3
	c0-0.1,0-0.1-0.1-0.2C93,73.2,93,73,93,72.7c0-0.1,0-0.2-0.1-0.3c-0.1-0.3-0.2-0.6-0.3-0.9c0-0.1-0.1-0.1-0.1-0.2
	c-0.1-0.1-0.1-0.2-0.1-0.3c-0.1-0.2-0.1-0.4-0.1-0.6c0-0.1-0.1-0.2-0.1-0.3c-0.1-0.1-0.2-0.3-0.2-0.5c0-0.1,0-0.2-0.1-0.2
	c-0.1-0.2-0.1-0.3-0.1-0.5c0-0.1-0.1-0.2-0.1-0.3c-0.1-0.1-0.1-0.2-0.1-0.3c0-0.1,0-0.2-0.1-0.3c-0.1-0.1-0.1-0.2-0.1-0.3
	c0-0.2,0-0.4-0.1-0.6c0-0.2-0.1-0.5-0.2-0.7c0-0.2,0-0.3-0.1-0.5c0,0,0-0.1,0-0.1c0-0.2,0-0.4-0.1-0.5c-0.1-0.4-0.2-0.8-0.3-1.2
	c0-0.2-0.1-0.3-0.2-0.5c-0.1-0.2-0.2-0.3-0.2-0.5c0-0.1-0.1-0.2-0.1-0.3c-0.1-0.2-0.2-0.3-0.3-0.5c-0.1-0.1-0.2-0.3-0.2-0.5
	c-0.1-0.2-0.2-0.3-0.3-0.5c-0.2-0.2-0.3-0.4-0.4-0.6c0,0,0-0.1,0-0.1c0-0.1-0.1-0.2-0.1-0.2c-0.1-0.1-0.2-0.3-0.3-0.5
	c-0.1-0.2-0.3-0.3-0.5-0.5c-0.4-0.2-0.7-0.5-0.8-0.9c-0.1-0.2-0.2-0.3-0.3-0.4c-0.2-0.3-0.5-0.6-0.7-0.8c-0.1-0.1-0.2-0.2-0.3-0.3
	c-0.3-0.3-0.7-0.5-0.9-0.9c-0.2-0.2-0.4-0.4-0.6-0.5c-0.1-0.1-0.2-0.2-0.4-0.3c-0.2-0.1-0.4-0.3-0.6-0.3c-0.3-0.1-0.5-0.3-0.8-0.4
	c-0.5-0.3-1.1-0.6-1.6-1c-0.3-0.2-0.7-0.5-1.1-0.7c-0.2-0.1-0.5-0.3-0.7-0.3c-0.1,0-0.2-0.1-0.3-0.1c-0.1-0.1-0.3-0.1-0.4-0.2
	c-0.1,0-0.3-0.1-0.4-0.2c-0.3-0.2-0.6-0.3-1-0.4c-0.2,0-0.4-0.1-0.6-0.1c-0.2,0-0.3-0.1-0.4-0.1c-0.2-0.1-0.4-0.2-0.6-0.3
	C75.2,51,75,51,74.8,51h-0.2c-0.2,0-0.3-0.1-0.4-0.2c-0.2-0.3-0.6-0.4-0.9-0.4h-0.2c-0.2,0-0.3,0-0.5,0c-0.3-0.1-0.7,0-0.9,0.2
	c-0.1,0.1-0.3,0.2-0.4,0.3c-0.1,0-0.1,0-0.2,0l0,0l0,0l0.1-0.1c0.1,0,0.1-0.1,0-0.2c0,0,0,0,0,0L71,50.4c-0.1-0.1-0.1-0.2-0.1-0.3
	c0,0,0,0,0.1-0.1c0.2-0.1,0.4-0.2,0.7-0.1h0.1c0.1,0,0.2,0,0.2,0l0.2-0.1c0.1,0,0.1-0.1,0.2-0.1l0.8-0.2c0.1,0,0.1,0,0.2,0
	c0.2,0,0.4-0.1,0.5-0.2c0,0,0.1-0.1,0.1-0.1c0.1-0.1,0.2-0.2,0.3-0.2c0,0,0.1,0,0.2,0c0.2-0.1,0.4-0.2,0.6-0.2l0.8-0.1l0.7-0.2
	c0.1,0,0.2,0,0.3-0.1h0.1l1.3-0.5c0.2-0.1,0.4-0.2,0.6-0.2l0.4-0.2c0.2-0.1,0.3-0.1,0.5-0.2l0.4-0.2l0.9-0.6H81
	c0.2-0.1,0.2-0.2,0.1-0.4s0-0.3,0.2-0.3c0.2,0,0.3-0.1,0.4-0.2c0.1-0.1,0.2-0.1,0.3-0.2c0.2-0.2,0.5-0.4,0.8-0.7
	c0.2-0.2,0.5-0.4,0.7-0.7l0.1-0.1c0.2-0.3,0.3-0.5,0.4-0.8c0,0,0-0.1,0-0.1c0,0-0.1,0-0.2,0c-0.1,0.1-0.2,0.2-0.4,0.2
	c-0.1,0-0.3,0.1-0.3,0.2c-0.1,0.1-0.2,0.1-0.3,0.1c-0.1,0-0.1-0.1-0.1-0.1c0,0,0,0,0,0c0-0.1,0.1-0.1,0.1-0.2l0.4-0.2
	c0.1-0.1,0.3-0.2,0.4-0.2c0,0,0.1,0,0.1-0.1c0.2-0.2,0.4-0.3,0.7-0.4c0.1,0,0.2-0.1,0.3-0.2c0.1-0.1,0.2-0.2,0.4-0.3
	c0.1,0,0.1-0.1,0.2-0.2c0.2-0.2,0.4-0.4,0.6-0.5c0,0,0.1-0.1,0.1-0.1c0.1-0.2,0.2-0.2,0.3-0.3c0.3-0.3,0.5-0.6,0.7-0.9
	c0.1-0.1,0.2-0.3,0.2-0.4c0-0.1,0.1-0.2,0.2-0.2c0.3-0.4,0.7-0.9,1-1.3c0.1-0.2,0.2-0.3,0.3-0.5c0.1-0.2,0.2-0.4,0.3-0.6
	c0,0,0-0.1,0.1-0.2c0.1-0.2,0.2-0.4,0.3-0.6c0,0,0.1-0.1,0.1-0.1c0-0.3,0.2-0.5,0.2-0.8c0,0,0-0.1,0-0.1c0.1-0.1,0.1-0.3,0.2-0.4
	c0-0.2,0.1-0.3,0.2-0.4c0.1-0.3,0.2-0.6,0.3-0.8c0.1-0.4,0.2-0.7,0.4-1.1c0-0.1,0.1-0.3,0.2-0.4c0-0.1,0.1-0.2,0.1-0.3
	c0-0.2,0.1-0.3,0.2-0.4c0.2-0.2,0.3-0.5,0.3-0.7c0-0.2,0.1-0.4,0.2-0.6c0.1-0.1,0.2-0.3,0.2-0.4c0,0,0-0.1,0-0.1
	C92,29,92,28.9,92,28.8c0.1,0,0.1,0,0.1,0c0,0.2,0.1,0.4,0.2,0.5c0,0,0,0,0.1,0h0.1c0-0.2,0-0.3,0-0.5c0-0.1,0-0.2,0-0.3
	c0-0.3,0.1-0.5,0.2-0.8c0-0.2,0.1-0.4,0.1-0.5c0-0.1,0-0.2-0.1-0.2c0,0-0.1-0.1-0.1-0.1s-0.3,0-0.4,0.1l-0.1,0c-0.1,0-0.1,0-0.2,0
	s0-0.1,0-0.1s0-0.2-0.1-0.2c-0.1-0.1-0.2-0.1-0.3-0.1c-0.2,0-0.4,0-0.6,0c-0.2,0-0.3-0.1-0.5-0.2c-0.3-0.1-0.6-0.2-0.9-0.3
	c-0.1,0-0.2-0.1-0.3-0.1c-0.2,0-0.4-0.1-0.7-0.2c-0.1,0-0.1,0-0.2,0c-0.3,0-0.5-0.1-0.8-0.2c-0.2-0.1-0.4-0.1-0.6-0.2
	c-0.1,0-0.1,0-0.2,0c-0.4-0.1-0.7-0.3-1.1-0.4c-0.2-0.1-0.3-0.1-0.5-0.2c-0.1-0.1-0.3-0.2-0.4-0.2c-0.1,0-0.1,0-0.2-0.1
	c-0.3-0.2-0.6-0.3-0.9-0.3c-0.1,0-0.2-0.1-0.3-0.1c-0.1-0.1-0.2-0.1-0.3-0.1c-0.3,0-0.5,0-0.8-0.1c-0.1,0-0.2,0-0.3,0l0,0l0,0h0.2
	c0.1,0,0.1-0.1,0.1-0.1c0,0,0,0,0,0c0,0,0-0.1-0.1-0.1l-0.4-0.2c-0.3-0.1-0.5-0.1-0.8-0.1c-0.1,0-0.1,0-0.1,0.1c0,0,0,0.1,0,0.2
	c0,0,0,0,0,0c0,0,0,0.1,0,0.1l0,0c-0.2-0.1-0.4-0.1-0.6-0.2c-0.1,0-0.1-0.1-0.2-0.1c-0.1-0.1-0.1-0.1-0.2,0c0,0,0,0,0,0
	c-0.1,0-0.2,0.1-0.2,0.1c-0.1,0-0.1,0-0.2,0c-0.1-0.1-0.2-0.1-0.3-0.1c-0.1,0-0.2,0-0.3,0.1s-0.1,0.1-0.1,0.1c-0.1,0-0.1,0-0.2-0.1
	c-0.1-0.1-0.2-0.1-0.3-0.1c-0.3,0-0.6,0.1-0.8,0.1c-0.2,0.1-0.4,0.1-0.6,0.1l0,0c0.1,0,0-0.1,0-0.1c-0.1,0-0.2-0.1-0.3-0.1H76
	c-0.2,0-0.3,0.1-0.5,0.1c-0.3,0.1-0.6,0.2-0.9,0.2s-0.6,0.2-1,0.2h-0.2c-0.1,0-0.2,0.1-0.3,0.1c-0.1,0.1-0.2,0.1-0.3,0.1
	c-0.1,0-0.2,0.1-0.3,0.1l-0.9,0.3L71.4,25c-0.1,0.1-0.2,0.1-0.4,0.1c-0.1,0-0.2,0-0.2,0.1l-0.6,0.3l-0.5,0.3
	c-0.2,0.1-0.3,0.2-0.5,0.3c-0.1,0-0.2,0.1-0.3,0.2l-0.1,0.1c-0.4,0.2-0.8,0.5-1.1,0.8c-0.3,0.1-0.5,0.4-0.7,0.5
	c-0.1,0.1-0.2,0.2-0.3,0.2c-0.1,0.1-0.2,0.1-0.3,0.2c-0.2,0.1-0.4,0.3-0.6,0.5c-0.1,0.1-0.2,0.3-0.2,0.5c0,0.2-0.1,0.4-0.2,0.5
	c0,0-0.1,0.1-0.1,0.1c-0.1,0.2-0.1,0.3-0.2,0.5c0,0-0.1,0.1-0.1,0.1c-0.1,0.2-0.1,0.3-0.3,0.4c-0.1,0.1-0.2,0.2-0.4,0.2
	c-0.1,0-0.2,0-0.2-0.1c0-0.1,0-0.1,0-0.2c0-0.1,0.1-0.1,0.1-0.2c0-0.1,0-0.1-0.1-0.1c-0.1,0-0.2,0-0.3,0.1c-0.2,0.2-0.4,0.4-0.5,0.6
	l-0.2,0.3l0.1,0.1c0,0-0.1,0.1,0,0.2c0,0,0,0,0,0c0.1,0.1,0.2,0.1,0.3,0.2c0.1,0.1,0.1,0.1,0.2,0.2c0,0,0,0.1,0,0.2
	c0,0.1-0.1,0.1-0.1,0.2c-0.2,0.2-0.3,0.4-0.3,0.7c0,0.1,0,0.2-0.1,0.3c0,0.1,0,0.1,0,0.2c0,0.2,0,0.4,0,0.7c0,0,0,0.1,0,0.1
	c-0.1,0.2-0.1,0.4-0.1,0.7c-0.1,0.4-0.1,0.8-0.1,1.2c0,0.1,0,0.2,0,0.3c0,0.1,0,0.2,0,0.3c0,0.1-0.1,0.2-0.1,0.3
	c0,0.1-0.1,0.2-0.1,0.3l0,0v0.1l0,0c0,0.2,0.1,0.3,0.1,0.5c0,0.2,0,0.4-0.1,0.5c0,0-0.1,0-0.1,0c0,0-0.1,0-0.1-0.1
	c0-0.1,0-0.1,0-0.2c0-0.1,0-0.2,0-0.3v-0.1l0,0v0.1c-0.1,0-0.2,0.1-0.1,0.3l0,0c0,0,0,0.1-0.1,0.1S62,38,62,38s0-0.3,0.1-0.5
	c0.1-0.1,0.1-0.2,0-0.3c0,0,0-0.1-0.1-0.2c-0.2-0.3-0.2-0.3-0.2-0.7c0-0.2,0-0.3,0-0.5c0-0.1,0-0.2-0.1-0.2l-0.1-0.1
	c-0.1-0.1-0.2-0.2-0.4-0.1c-0.1,0-0.2,0-0.3-0.1c-0.1-0.1-0.1-0.1,0-0.2l0.4-0.2c0.1,0,0.1,0,0.2,0c0-0.2,0-0.2,0.2-0.4
	c0,0,0.1-0.1,0.1-0.1c0.1-0.3,0.2-0.5,0.3-0.7c0-0.1,0-0.2,0-0.2c0-0.2,0.1-0.4,0.2-0.5c0.1-0.2,0.2-0.4,0.3-0.6c0,0,0-0.1,0-0.1
	c0-0.1,0-0.1-0.1-0.2c-0.1,0-0.1,0-0.2,0.1c-0.1,0.2-0.3,0.4-0.5,0.6c0,0-0.1,0.1-0.1,0.1c0,0-0.1,0-0.1,0c0,0-0.1-0.1,0-0.1
	c0-0.1,0.1-0.2,0.1-0.3c0.1-0.1,0.1-0.3,0.2-0.4c0-0.1,0-0.2,0-0.3c0-0.1,0-0.3,0-0.4c0,0,0,0,0,0c0-0.3,0-0.6,0.1-0.9
	c0-0.1,0-0.2,0-0.2c0-0.1,0-0.3,0-0.4c0-0.1,0-0.2,0-0.3c0-0.2,0-0.3,0-0.5c0-0.1,0-0.2,0.1-0.2c0.1-0.2,0.1-0.4,0.1-0.5
	c0-0.2,0-0.5,0.1-0.7c0-0.1,0-0.2,0-0.3c0-0.1,0-0.3,0.1-0.4c0.1-0.3,0.2-0.6,0.2-0.9c0-0.3,0-0.6,0-0.8c0-0.1,0-0.1,0-0.2
	c0-0.1,0-0.3,0-0.4c0-0.2,0-0.3,0-0.5c0-0.2,0-0.3,0.1-0.5c0.1-0.2,0.1-0.5,0.1-0.7c0-0.4,0-0.8,0-1.2c0-0.1,0-0.1,0-0.2
	c0-0.2,0-0.3,0-0.5c-0.1-0.4-0.1-0.8-0.1-1.2c0-0.2,0-0.5-0.1-0.7c0-0.1,0-0.3,0-0.4c0-0.2,0-0.4,0-0.5c0-0.1,0-0.2,0-0.4
	c0-0.1,0-0.1,0-0.2c-0.1-0.4-0.2-0.9-0.2-1.3c0-0.3,0-0.5,0-0.8c0,0,0-0.1,0-0.1c-0.1-0.1-0.1-0.2,0-0.3c0.1-0.1,0.1-0.3,0-0.5
	c0,0,0-0.1,0-0.1c0-0.1,0-0.2-0.1-0.2c-0.1-0.1-0.1-0.2-0.1-0.3c0-0.1,0-0.1-0.1-0.2c-0.1-0.1-0.1-0.2-0.1-0.3
	c0-0.1-0.1-0.3-0.1-0.4c0-0.1-0.1-0.1-0.1-0.1c-0.1-0.1-0.2-0.3-0.2-0.4c0-0.1,0-0.1,0-0.2c-0.1-0.2-0.2-0.4-0.3-0.5
	c-0.1-0.1-0.2-0.3-0.2-0.4c0-0.1-0.1-0.2-0.1-0.4c0,0,0-0.1,0-0.1h0.1c0,0.1,0,0.2,0,0.3c0.2,0.2,0.3,0.4,0.4,0.7
	c0.1,0.1,0.1,0.1,0.1,0.2c0,0.1,0.1,0.2,0.2,0.3c0,0,0,0,0.1,0c0,0,0,0,0-0.1c0-0.1,0-0.2-0.1-0.3c-0.2-0.3-0.3-0.6-0.5-0.9
	c-0.1-0.1-0.2-0.2-0.3-0.3c0-0.1-0.1-0.1-0.1-0.1c0,0,0,0,0,0c-0.1,0.1-0.2,0.1-0.2,0c-0.1-0.1-0.2-0.3-0.3-0.4
	c0-0.2-0.2-0.3-0.2-0.5l0,0c-0.1-0.3-0.3-0.6-0.3-0.9c-0.1-0.2-0.3-0.4-0.5-0.5c-0.1,0-0.1-0.1-0.2-0.2c-0.1-0.1-0.1-0.2-0.2-0.2
	c-0.1,0-0.1-0.1-0.2-0.2c-0.2-0.3-0.4-0.5-0.7-0.7c-0.3-0.2-0.5-0.4-0.7-0.8c-0.1-0.1-0.2-0.2-0.3-0.3c-0.1,0-0.1-0.1-0.2-0.2
	c-0.2-0.2-0.4-0.4-0.6-0.5l-0.5-0.4c-0.2-0.1-0.3-0.2-0.3-0.4c0-0.1,0-0.1-0.1-0.1c-0.3-0.4-0.5-0.7-0.8-1.1s-0.3-0.4-0.5-0.6
	c-0.1-0.1-0.1-0.2-0.2-0.3c-0.1-0.1-0.1-0.2-0.2-0.3c-0.1-0.2-0.3-0.2-0.5-0.1c0,0,0,0,0,0c-0.2,0.1-0.4,0.3-0.6,0.4
	c0,0-0.1,0-0.1,0.1c-0.3,0.3-0.6,0.5-1,0.6C50.8,3.5,50.4,3.7,50,4c-0.3,0.2-0.6,0.4-0.9,0.6c-0.1,0.1-0.3,0.2-0.5,0.3
	c-0.2,0.1-0.3,0.2-0.5,0.3c-0.1,0.1-0.3,0.3-0.5,0.4c-0.2,0.1-0.3,0.2-0.5,0.4C47.1,6,47.1,6.1,47,6.1c-0.2,0.1-0.3,0.2-0.5,0.3
	c-0.3,0.3-0.6,0.6-0.9,0.8c-0.2,0.2-0.4,0.4-0.6,0.6c-0.1,0.1-0.2,0.2-0.4,0.3c-0.3,0.2-0.6,0.3-0.8,0.6c-0.2,0.1-0.3,0.3-0.5,0.4
	c-0.2,0.2-0.4,0.4-0.5,0.6c-0.2,0.3-0.4,0.5-0.6,0.8c-0.2,0.2-0.4,0.5-0.5,0.7c-0.1,0.1-0.1,0.2-0.2,0.3l-0.7,1.1
	c0,0.1-0.1,0.1-0.1,0.2c0,0.2-0.1,0.4-0.2,0.6c-0.1,0.2-0.2,0.5-0.3,0.7c-0.1,0.1,0,0.2,0.1,0.3c0,0,0.1,0,0.1,0
	c0.1,0,0.2,0.1,0.2,0.1c0,0.1,0,0.1,0,0.2c0,0,0,0,0,0c-0.1,0-0.2,0.1-0.3,0c-0.1-0.1-0.3,0-0.3,0.1c-0.2,0.1-0.3,0.3-0.4,0.6
	c-0.1,0.2-0.1,0.4-0.1,0.6c0,0.2-0.1,0.4-0.2,0.5c-0.1,0.2-0.2,0.4-0.2,0.6c0,0.1,0,0.1,0,0.2c0,0.1-0.1,0.3-0.1,0.4
	c0,0.1,0,0.2-0.1,0.3c0,0.1,0,0.2,0,0.3c0,0.1,0,0.3-0.1,0.4c-0.1,0.2-0.1,0.4-0.1,0.5c0,0.2,0,0.4,0,0.5c0,0,0,0.1,0,0.2
	c0,0.2,0,0.4-0.1,0.6c0,0.1,0,0.2,0,0.3v0.1c0,0,0,0,0,0c0,0,0-0.1,0-0.1c0-0.2-0.1-0.4-0.1-0.6c0,0,0-0.1-0.1-0.1c0,0-0.1,0-0.1,0
	c0,0,0,0.1,0,0.1c0,0.1,0,0.2,0,0.3c0,0.1,0,0.3,0,0.4c0,0.2,0,0.4,0.1,0.6c0,0.2,0,0.3,0,0.5c0,0.2,0,0.4,0,0.7l0,0l0,0
	c0.1-0.1,0.1-0.3,0.1-0.4c0-0.1,0-0.3,0-0.4l0,0l0.1-0.1l0,0c0,0,0,0,0,0c0,0.2,0,0.4,0.1,0.6c0,0,0,0.1,0,0.1c0,0.2,0,0.3,0.1,0.5
	c0,0,0,0.1,0,0.1c0,0.2,0.1,0.5,0.1,0.7s0.1,0.3,0.1,0.5c0,0.1,0,0.2,0.1,0.3c0,0.1,0.1,0.3,0.2,0.4c0.1,0.2,0.2,0.4,0.2,0.6
	c0,0.3,0.1,0.5,0.2,0.8c0,0.1,0,0.1,0,0.2c0,0.1,0,0.3,0.1,0.4c0.1,0.2,0.2,0.5,0.2,0.8c0.1,0.4,0.2,0.7,0.4,1
	c0.1,0.1,0.1,0.3,0.2,0.4c0.1,0.1,0.1,0.3,0.2,0.4c0,0.2,0,0.3,0.1,0.5c0,0.2,0.1,0.5,0.2,0.7c0.1,0.3,0.2,0.5,0.3,0.7
	c0.1,0.2,0.2,0.4,0.1,0.5c0,0.1-0.1,0.2-0.2,0.1l-0.1-0.1l-0.2-0.2c-0.1-0.1-0.2-0.1-0.4-0.1c-0.2,0-0.2,0-0.3-0.1
	c-0.1-0.3-0.3-0.5-0.5-0.7c-0.1-0.2-0.2-0.3-0.3-0.5c-0.1-0.1-0.2-0.3-0.3-0.4c-0.2-0.3-0.5-0.5-0.7-0.8c-0.1-0.1-0.1-0.1-0.2-0.2
	c-0.1-0.1-0.2-0.2-0.3-0.4c-0.1,0-0.1,0-0.2,0l-0.5-0.6c0,0-0.1-0.1-0.2-0.1c-0.2-0.1-0.3-0.2-0.4-0.4c-0.1-0.1-0.2-0.3-0.3-0.4
	c-0.2-0.2-0.4-0.4-0.6-0.5c-0.3-0.3-0.7-0.5-1-0.7c-0.2-0.1-0.4-0.2-0.6-0.4c-0.1-0.1-0.2-0.2-0.4-0.2c-0.2-0.1-0.4-0.2-0.5-0.3
	c-0.2-0.1-0.4-0.2-0.6-0.3c-0.1,0-0.2-0.1-0.2-0.1c-0.2-0.1-0.4-0.3-0.6-0.3c-0.1,0-0.2-0.1-0.3-0.1c-0.3-0.2-0.6-0.4-0.9-0.5
	l-0.7-0.3c-0.1,0-0.2-0.1-0.4-0.2c-0.3-0.1-0.6-0.2-0.9-0.3s-0.5-0.2-0.8-0.3s-0.6-0.2-0.9-0.3l-0.6-0.1c-0.2,0-0.4-0.1-0.5-0.2
	c-0.5-0.2-1-0.2-1.5-0.2h-0.4c-0.1,0-0.2,0-0.3,0.1c-0.1,0-0.1,0.1-0.1,0.2c0,0.1,0,0.3-0.1,0.4c0,0.1,0,0.1-0.1,0.2
	c0,0.1,0,0.2,0.1,0.3c0.1,0,0.1,0.1,0.2,0.1h0.1c0.1,0,0.2,0,0.1,0.2s0,0.1,0.1,0.2s0.1,0,0.1,0s0-0.2,0.1-0.2c0.1,0,0.2,0,0.3,0
	c0.2,0.1,0.5,0.1,0.7,0.2c0.1,0,0.1,0.1,0.2,0.1l0.7,0.1c0.1,0,0.2,0.1,0.2,0.1c0,0,0.1,0.1,0.1,0.1c0,0,0,0,0,0
	c0,0-0.1,0.1-0.1,0.1c-0.1,0-0.3,0-0.4,0l-0.2-0.1c-0.1,0-0.1-0.1-0.2-0.1c-0.1,0-0.2,0-0.3-0.1C25.2,24.1,25.1,24,25,24h-0.4
	c-0.1,0-0.1,0.1-0.1,0.2l0,0c0,0,0,0.1,0,0.1c0,0,0,0,0,0c-0.2,0-0.5,0-0.7,0c-0.1,0-0.3-0.1-0.3-0.3c0-0.1-0.1-0.1-0.1-0.1
	c0,0,0,0,0,0c-0.1,0-0.1-0.2-0.2-0.1s0.1,0.1,0.1,0.2c0,0,0,0.1,0,0.1c0,0.1-0.1,0.1-0.1,0.1c-0.1,0-0.2,0-0.2,0
	c-0.2,0-0.4-0.1-0.6-0.1h-0.1c-0.3,0-0.7,0.1-1,0H21c-0.5,0.1-0.9,0.1-1.4,0.2c-0.1,0-0.2,0-0.3,0.1c-0.2,0.1-0.4,0.2-0.6,0.2
	c-0.1,0-0.2,0-0.4,0c-0.1,0-0.2,0-0.3,0.1c-0.2,0.1-0.4,0.2-0.7,0.2c-0.1,0-0.2,0-0.2,0c-0.1,0-0.2,0-0.2,0c0,0-0.1,0-0.1-0.1
	c0,0,0-0.1,0.1-0.1c0.1,0,0.1,0,0.2,0c0.2,0.1,0.4-0.1,0.5-0.2c0,0,0.1-0.1,0-0.1c0,0,0,0,0,0c-0.1,0-0.1,0-0.2,0
	c-0.1,0-0.3,0-0.4,0c-0.1,0-0.2,0-0.3,0L16,24.6H16c-0.4,0.1-0.8,0.1-1.2,0.1h-0.3c-0.1,0-0.2,0.1-0.3,0c0-0.1,0.1-0.2,0.2-0.2
	c0.2-0.1,0.3-0.1,0.5-0.1c0.2,0,0.3,0,0.5,0c0.1,0,0.2,0,0.3,0c0.1,0,0.3,0,0.4-0.1c0.2-0.1,0.4-0.2,0.6-0.2c0.1,0,0.2,0,0.3,0
	c0.3,0,0.6-0.1,0.9-0.1c0.3,0,0.5,0,0.8-0.1c0.1,0,0.3,0,0.4,0c0.1,0,0.2,0,0.4,0c0,0,0.1,0,0.1,0c0.1-0.1,0.2-0.1,0.3-0.1h0.5h0.1
	c0.3-0.1,0.5,0,0.8-0.1c0.3-0.1,0.7-0.1,1-0.1h0.3c0.1,0,0.2-0.1,0.2-0.1c0-0.1,0.1-0.1,0.1-0.2c0.2-0.2,0.3-0.4,0.4-0.6
	c0-0.1,0-0.1,0.1-0.2c0.1-0.1,0-0.3-0.2-0.3c0,0,0,0-0.1,0h-0.2c-0.7,0-1.5,0-2.2,0h-0.4c-0.3,0-0.6,0-0.9,0c-0.2,0-0.4,0-0.6,0
	h-0.2L18,22.4l-0.8,0.2H17L16,22.9c-0.1,0-0.2,0.1-0.3,0.1c0,0-0.1,0-0.1,0c-0.2,0-0.4,0.1-0.5,0.2c-0.1,0.1-0.3,0.1-0.4,0.2
	c-0.1,0-0.2,0-0.3,0c-0.1,0-0.2,0-0.3,0c0,0-0.1,0-0.1,0c-0.3,0-0.5,0.1-0.7,0.2c-0.2,0.1-0.4,0.1-0.6,0.2c-0.1,0-0.3,0.1-0.4,0.1
	c-0.4,0.1-0.8,0.1-1.2,0.3c-0.3,0-0.6,0.1-0.9,0.3c-0.1,0-0.2,0.1-0.3,0.1H9.6c-0.3,0.1-0.3,0.2-0.3,0.4c0,0.2,0,0.3-0.1,0.5
	c0,0.1,0,0.1,0,0.2c0,0.3,0,0.5,0,0.8c0,0.3,0,0.6-0.1,0.9c-0.1,0.3-0.1,0.6,0,0.9c0,0.1,0,0.2,0,0.2c-0.1,0.5,0,1,0.1,1.6
	c0,0.1,0,0.2,0,0.2c0,0.2,0,0.3,0.1,0.5c0,0.1,0,0.1,0,0.2c0,0.3,0.1,0.7,0.2,1c0.1,0.2,0.2,0.5,0.2,0.8c0.1,0.3,0.2,0.7,0.3,1
	c0.1,0.1,0.1,0.3,0.1,0.5c0,0.2,0.1,0.4,0.1,0.5c0.1,0.2,0.1,0.5,0.2,0.8c0,0.1,0.1,0.2,0.1,0.2c0.1,0.1,0.2,0.3,0.2,0.4
	c0,0,0,0.1,0,0.1c0.2,0.3,0.3,0.7,0.4,1.1c0.1,0.2,0.1,0.3,0.2,0.5c0.1,0.2,0.2,0.4,0.3,0.5l0.3,0.5c0,0.1,0.1,0.2,0.1,0.2
	c0.2,0.2,0.3,0.5,0.4,0.7c0,0.1,0.1,0.2,0.2,0.2c0.1,0,0.2,0,0.2,0.1c0,0.1,0.1,0.2,0.2,0.2c0.1,0.1,0.2,0.2,0.2,0.3
	c0.1,0.2,0.3,0.3,0.4,0.5c0,0,0,0.1,0.1,0.1c0.1,0.1,0.2,0.2,0.3,0.3c0,0.1,0.1,0.1,0.1,0.1c0.1,0.1,0.2,0.2,0.2,0.3
	c0,0.1,0.1,0.1,0.2,0.2h0.3c0.1,0,0.1,0.1,0.1,0.2c0,0,0,0,0,0c0,0,0,0.1,0,0.1c0,0.1,0,0.2,0.1,0.3c0.2,0.1,0.3,0.2,0.4,0.4l0,0
	c0.1,0,0.2,0.2,0.2,0.3l0,0c0.1,0,0.1,0,0.2,0l0.4,0.5c0.1,0.1,0.2,0.2,0.3,0.3c0.1,0.1,0.2,0.2,0.3,0.3c0.1,0,0.2,0.2,0.2,0.3l0,0
	l0,0c0,0,0.1,0,0.1,0c0.3,0.2,0.6,0.3,0.8,0.5c0.1,0,0.1,0.1,0.2,0.1c0.2,0.1,0.4,0.2,0.5,0.4l0,0l0,0l-0.2-0.1c-0.1,0-0.1,0-0.2,0
	c0,0.1,0.1,0.2,0.2,0.3c0.1,0.1,0.2,0.1,0.3,0.1c0.1,0,0.3,0.1,0.4,0.2c0.1,0,0.1,0,0.1-0.1c0-0.1,0.1-0.1,0.1-0.1c0,0,0,0,0,0h0.1
	l0.2,0.1c0.3,0.2,0.6,0.4,1,0.6c0.2,0.1,0.3,0.3,0.5,0.4l0.7,0.4l0.2,0.1l0.5,0.2c0.1,0,0.2,0.1,0.3,0.1c0.1,0,0.2,0,0.3,0.1
	c0.3,0.2,0.7,0.4,1,0.5l0.1,0.1c0.1,0.1,0.3,0.1,0.4,0.1c0.2,0,0.5,0.1,0.6,0.2c0.1,0,0.1,0.1,0.2,0.1c0.1,0.1,0.2,0.1,0.3,0.1
	l0.4,0.1c0.2,0,0.4,0.1,0.6,0.2c0.3,0.1,0.6,0.2,0.9,0.1c0.2,0,0.3,0,0.5,0c0.1,0,0.1,0,0.2,0.1c0.1,0,0.1,0.1,0.1,0.2
	c0,0.1-0.1,0.1-0.1,0.2h-0.2c-0.3,0-0.6,0.1-0.9,0.3C27.6,50,27.6,50,27.5,50c-0.3,0-0.6,0-0.9,0.1l-0.3,0.1c0,0-0.1,0.1-0.1,0.1
	c0,0,0,0.1,0.1,0.1c0.1,0,0.2,0,0.3,0c0.1-0.1,0.2-0.1,0.3-0.1c0.2,0,0.4-0.1,0.5-0.1c0.1,0,0.1-0.1,0.2-0.1c0.2,0,0.4,0,0.6-0.1
	c0.1,0,0.2,0,0.2,0c0.2,0,0.3,0,0.5-0.1c0.1,0,0.2-0.1,0.2-0.1c0.2,0,0.5,0,0.7-0.1c0.1,0,0.2,0,0.3,0c0.2,0,0.5,0,0.7-0.1
	c0.1-0.1,0.3-0.1,0.4,0c0.2,0.1,0.4,0.2,0.6,0.1c0.1,0,0.1,0,0.2,0c0.1,0,0.2-0.1,0.2-0.1c0.2,0,0.3-0.1,0.5-0.1
	c0.2,0,0.3,0,0.5-0.1c0.1,0,0.2,0,0.3,0c0.1,0,0.3,0,0.4,0c0.2,0,0.5,0,0.7,0.1c0.1,0,0.2,0.2,0.2,0.3s0,0.1,0,0.2
	c0.1,0.3,0.1,0.3,0.4,0.3h0.1c0.1,0,0.2,0,0.2-0.1c0,0,0-0.1,0-0.1c0-0.1-0.1-0.3-0.1-0.4c0-0.1,0-0.2,0-0.3c0.1-0.1,0.1-0.2,0-0.3
	c-0.1-0.1,0-0.3,0.1-0.4c0,0,0,0,0,0c0.1-0.1,0.2-0.2,0.3-0.4c0.1-0.2,0.2-0.3,0.4-0.5c0.2-0.2,0.3-0.4,0.5-0.6l0.2-0.4
	c0.1-0.1,0.1-0.2,0.1-0.3c0-0.2,0.1-0.4,0.2-0.5c0.1-0.2,0.2-0.4,0.2-0.6c0.1-0.2,0.2-0.4,0.3-0.6c0,0,0.1-0.1,0.1-0.2
	c0-0.1,0.1-0.2,0.3-0.3h0.1c0.2-0.2,0.5-0.2,0.8-0.1c0.1,0,0.2,0,0.2,0c0.1-0.1,0.2-0.1,0.3,0c0.1,0,0.1,0,0.2,0
	c0.1,0,0.2,0,0.2-0.2s0,0,0.1,0c0,0,0.1,0,0.1,0c0,0,0,0,0,0l0,0c0,0.1,0,0.2,0.1,0.2c0,0,0,0,0,0c0.2,0,0.4,0.1,0.5,0.2
	c0.1,0.1,0.3,0.1,0.4,0.1c0,0,0.1,0.1,0.2,0s-0.1-0.1-0.1-0.1c-0.3-0.2-0.6-0.5-0.9-0.9c-0.1-0.1-0.2-0.3-0.3-0.4
	c0,0-0.1-0.1-0.1-0.2c-0.1-0.3-0.2-0.6-0.3-0.9c-0.1-0.2-0.1-0.5,0-0.7c0.1-0.3,0.1-0.6,0-0.9c0,0,0-0.1,0-0.1
	c0.1-0.1,0.1-0.2,0.2-0.3c0-0.1,0.1-0.2,0.2-0.3c0.1-0.2,0.2-0.4,0.3-0.6c0-0.2,0.1-0.3,0.2-0.4c0.2-0.2,0.3-0.5,0.5-0.7
	s0.2-0.2,0.3-0.4c0.1-0.1,0.1-0.1,0.2-0.2l0.2-0.1c0.1-0.1,0.1-0.2-0.1-0.2c-0.1,0-0.2,0-0.2,0c-0.1,0-0.1,0-0.2,0
	c-0.1-0.1-0.2-0.1-0.3,0c-0.3,0.2-0.5,0.1-0.6-0.3c0,0,0-0.1,0-0.1c0,0,0,0-0.1,0L40,37c0,0.1,0,0.2-0.1,0.3c0,0.1,0,0.3,0,0.4
	s0.1,0.2,0.2,0.1l0.2,0c0.1-0.1,0.3-0.1,0.4,0c0.2,0.1,0.2,0.2,0.2,0.4c0,0,0,0,0,0.1c-0.1,0.1-0.3,0.3-0.4,0.4
	c-0.2,0.1-0.3,0.3-0.4,0.5c-0.1,0.2-0.2,0.5-0.3,0.8c0,0.1-0.1,0.2-0.2,0.2c-0.1,0.1-0.2,0.3-0.3,0.4c0,0-0.1,0-0.1,0
	c0,0-0.1-0.1,0-0.1c0,0,0-0.1,0-0.1c0.1-0.2,0-0.2-0.1-0.2c-0.1,0-0.3,0-0.4,0c-0.1,0-0.2,0.1-0.2,0.2c0,0.1-0.1,0.1-0.1,0.1
	c-0.1,0.1-0.2,0.2-0.3,0.3c0,0-0.1,0-0.1,0.1c0,0,0,0.1,0.1,0.1c0.1,0,0.2,0.1,0.2,0.1l0,0l-0.1,0.2c0,0.1-0.1,0.1-0.2,0.1
	c0,0,0,0,0,0l0,0c0,0,0-0.1,0-0.1s0-0.1,0-0.2l0,0l0,0c0,0.1-0.1,0.3-0.2,0.4c-0.1,0.1,0,0.1,0,0.2l0.1,0c0.1,0,0.1,0,0.1,0.1
	c0.1,0.2,0.1,0.2,0,0.4c-0.1,0.1-0.1,0.3-0.2,0.4c0,0,0,0.1,0,0.1c-0.1,0.1-0.2,0.1-0.2,0c-0.2-0.1-0.5-0.2-0.8-0.3h-0.2
	c-0.1,0-0.1,0-0.1,0.1c0,0.1,0.1,0.2,0.2,0.2c0.1,0,0,0.1,0,0.1c-0.1,0-0.2,0.1-0.3,0.1c-0.1,0-0.1,0-0.2,0c0,0,0,0,0,0
	c0-0.1,0-0.1,0-0.2c0-0.1,0-0.2-0.1-0.2c0,0,0,0,0.1,0c0.1,0,0.2,0,0.2,0.1c0,0,0.1,0,0.1,0c0,0,0-0.1,0-0.1c0,0,0,0,0,0
	c-0.1,0-0.2-0.1-0.4-0.1c-0.1-0.1-0.3-0.1-0.4-0.2c0,0-0.1-0.1-0.1-0.1c-0.1-0.1-0.3-0.1-0.4-0.3l-0.1,0c0,0-0.1,0-0.1,0
	c0,0,0,0,0,0.1c0,0.1,0.1,0.2,0.1,0.3c0.1,0.1,0.1,0.2,0.1,0.4c0,0.1,0.1,0.1,0.1,0.2c0.2,0.1,0.3,0.3,0.2,0.5
	c0,0.1-0.1,0.1-0.1,0.1c-0.1,0-0.3,0-0.4,0.1l0,0L35,43.3c-0.1-0.1-0.1-0.2-0.2-0.3c0-0.1-0.1-0.1-0.1-0.1c-0.1,0-0.1,0.1-0.1,0.2
	c0,0.1,0,0.1,0,0.2c0,0.1,0,0.1,0.1,0.2c0.1,0.1,0.1,0.3,0.1,0.5c0,0,0,0,0,0.1l0,0c0,0-0.1,0.1-0.1,0.1l0,0c-0.1,0-0.1,0-0.2-0.1
	c0-0.1-0.1-0.2-0.1-0.2s-0.1-0.2-0.1-0.3c0,0,0-0.1,0-0.1c0-0.1-0.1-0.3-0.2-0.3c-0.3-0.1-0.4-0.4-0.5-0.7c0-0.1,0-0.2-0.1-0.3
	c0-0.2-0.1-0.4-0.3-0.5c0-0.2-0.2-0.3-0.3-0.4c-0.1-0.1-0.2-0.2-0.3-0.3c-0.1-0.1-0.1-0.1-0.1-0.2c-0.1-0.2-0.2-0.3-0.3-0.5
	c-0.1-0.1-0.2-0.2-0.4-0.3c-0.1,0-0.2-0.1-0.3-0.2c0-0.1-0.1-0.1-0.2-0.2c-0.1-0.1-0.2-0.2-0.3-0.3c-0.1-0.2-0.3-0.4-0.5-0.5
	c-0.2-0.1-0.3-0.3-0.4-0.4c0,0,0-0.1,0-0.1c0.1-0.2,0-0.2-0.1-0.3c-0.1-0.1-0.3-0.1-0.4-0.2c-0.1-0.1-0.2-0.2-0.4-0.3
	c-0.2-0.1-0.4-0.2-0.5-0.3c-0.2-0.1-0.4-0.3-0.6-0.4c-0.1-0.1-0.2-0.2-0.3-0.4C28,36,28,36,27.9,36c0,0,0,0,0,0h-0.1
	c0,0-0.1-0.1-0.2-0.2l0,0c0.1,0,0.2,0,0.3,0c0.2,0,0.3,0.1,0.4,0.2c0.1,0.2,0.3,0.3,0.5,0.5c0.1,0.1,0.2,0.2,0.3,0.2
	c0.1,0,0.2,0,0.3,0c0.1,0,0.2,0,0.3,0l0.2,0.1C29.9,37,30,37,30,37c0.1,0,0.1,0,0.2-0.1c0-0.1,0-0.1,0-0.2l0,0l-0.5-0.4
	c-0.2-0.1-0.3-0.2-0.5-0.3c-0.1-0.1-0.3-0.2-0.4-0.3c0,0,0-0.1,0-0.1c0,0,0,0,0-0.1c0,0,0,0,0.1,0c0.2,0.1,0.5,0.3,0.7,0.5
	c0.2,0.2,0.3,0.3,0.5,0.4c0.3,0.2,0.5,0.4,0.7,0.7c0.2,0.2,0.4,0.3,0.6,0.3c0.2,0,0.3,0.1,0.4,0.2c0,0,0.1,0.1,0.2,0.1
	c0.1,0.1,0.3,0.2,0.4,0.3c0.1,0.1,0.3,0.2,0.4,0.2c0.1,0,0.2,0.1,0.2,0.2l0,0c0,0,0,0,0.1,0.1c0.2,0.1,0.3,0.3,0.5,0.4
	c0.1,0.1,0.3,0.1,0.4,0.1c0.1,0,0.2,0,0.3,0c0,0,0.1,0,0.1,0l0.2-0.1c0.1,0,0.1,0,0.2,0c0.2,0.1,0.5,0.1,0.7,0.1c0.2,0,0.3,0,0.5,0
	c0.3,0,0.5,0,0.8-0.1c0.2,0,0.3-0.1,0.5-0.2c0.1,0,0.3-0.2,0.3-0.3c0-0.2,0-0.3,0-0.5c0,0,0,0-0.1,0c-0.1,0-0.2,0-0.3-0.1
	c0-0.1-0.1-0.2-0.1-0.2c0-0.1,0-0.1,0.1-0.1h0c0.1,0,0.1-0.1,0-0.1l0,0l-0.2-0.6c0,0,0-0.1,0-0.1c0-0.1,0.1-0.1,0.1-0.1c0,0,0,0,0,0
	l0.2,0.2c0,0,0.1,0.1,0.1,0.1c0.1-0.1,0.1-0.3,0.1-0.5c0,0,0-0.1,0-0.1c-0.1-0.1-0.1-0.3-0.1-0.5c0,0,0-0.1,0-0.1
	c-0.1-0.3-0.1-0.5-0.1-0.8c0-0.2,0-0.4-0.1-0.6c0-0.1,0-0.1-0.1-0.2c-0.1-0.4-0.2-0.8-0.3-1.1c-0.1-0.2-0.1-0.4-0.2-0.6
	c0-0.1,0-0.1-0.1-0.2c-0.2-0.4-0.3-0.7-0.5-1c-0.1-0.2-0.1-0.4-0.2-0.5c0-0.1-0.1-0.3-0.2-0.4c-0.2-0.2-0.3-0.4-0.4-0.6
	c0-0.1-0.1-0.1-0.2-0.2c-0.2,0-0.3-0.2-0.4-0.4c0,0,0-0.1-0.1-0.1c-0.1-0.1-0.2-0.2-0.4-0.2c-0.1,0-0.3-0.1-0.3-0.2l-0.5-0.6
	c-0.1-0.1-0.1-0.1-0.2-0.2c-0.1-0.1-0.2-0.3-0.2-0.5c0.2,0,0.3,0,0.4,0.2c0.2,0.2,0.4,0.4,0.6,0.5c0.1,0,0.1,0.1,0.2,0.2
	c0.1,0.1,0.2,0.1,0.2,0.1h0.3c0.1,0,0.2,0,0.3,0.1c0.1,0.1,0.2,0.2,0.3,0.2c0.1,0.1,0.3,0.2,0.4,0.2c0.1,0,0.3,0.1,0.3,0.3
	c0.1,0.1,0.1,0.2,0.2,0.3c0.1,0.2,0.3,0.4,0.5,0.6c0.1,0.1,0.3,0.2,0.4,0.4c0.1,0.2,0.3,0.3,0.4,0.5c0,0.1,0.1,0.1,0.2,0.1
	c0.1,0,0.2,0.1,0.2,0.2c0-0.1,0-0.1-0.1-0.2c0.1,0,0.3,0.1,0.3,0.3c0,0.1,0.1,0.1,0.2,0.1c0.2,0.1,0.4,0.2,0.5,0.4
	c0,0,0,0.1,0.1,0.1c0.2,0.1,0.4,0.3,0.6,0.5c0.2,0.2,0.3,0.3,0.5,0.5c0.1,0.2,0.2,0.3,0.4,0.4c0.2,0.2,0.3,0.3,0.5,0.5
	c0.1,0,0.1,0.2,0.2,0.2c0.1,0.1,0.2,0.2,0.3,0.3c0.1,0,0.1,0.1,0.1,0.1c0,0.1,0,0.1,0,0.2c-0.1,0.2-0.1,0.4,0,0.6
	c0,0.1,0.1,0.1,0.1,0.2s0.1,0.2,0,0.4c-0.1,0.1-0.1,0.2-0.1,0.3c0.1,0.2,0.1,0.5,0.2,0.7c0.1,0.2,0.1,0.4,0.1,0.6
	c0,0.1,0,0.1,0.2,0.1c0.1,0,0.1,0,0.2-0.1L43,37c0.2-0.1,0.4-0.2,0.7-0.3c0.1,0,0.2-0.1,0.4-0.1c0.3-0.1,0.5-0.2,0.8-0.2
	c0.2,0,0.3-0.1,0.4-0.2c0,0,0-0.1,0-0.1c0-0.1,0-0.2-0.1-0.3c-0.2-0.4-0.4-0.8-0.6-1.2c-0.1-0.1-0.1-0.2-0.2-0.3
	c0-0.1-0.1-0.2-0.1-0.3c-0.1-0.1-0.1-0.2-0.1-0.3c0-0.1-0.1-0.3-0.2-0.4c-0.1-0.1-0.1-0.2-0.2-0.3c-0.1-0.1-0.1-0.3-0.2-0.4
	c0-0.1-0.1-0.1-0.2-0.1v-0.2c0,0,0,0,0-0.1s0,0,0,0l0,0c0,0,0,0.1,0,0.1v0.2c0.1,0.1,0.1,0.3,0.2,0.4c0,0,0,0,0,0
	c0.2,0.2,0.2,0.5,0.2,0.8c0,0.1,0,0.1-0.1,0.1c0,0-0.1,0-0.2,0c-0.1,0-0.1-0.1-0.1-0.2c0,0,0,0,0,0c0-0.3-0.1-0.5-0.2-0.8
	c0,0,0-0.1,0-0.1c0-0.1,0-0.3-0.1-0.4c0-0.1,0-0.3,0-0.4c0-0.1,0-0.2-0.1-0.2c-0.1,0-0.1-0.1-0.1-0.1c0-0.1,0-0.3-0.1-0.4
	c-0.1-0.2-0.2-0.4-0.3-0.6c0-0.1-0.1-0.1-0.1-0.2c0-0.1-0.1-0.1-0.1-0.2c0-0.2-0.1-0.4-0.3-0.6c-0.1-0.2-0.2-0.4-0.3-0.7
	c0,0,0-0.1,0-0.1c0-0.1,0-0.2,0-0.3c0-0.1,0-0.2,0-0.3c0-0.2,0-0.4-0.1-0.6c0-0.1,0-0.2,0-0.3c0-0.2,0-0.4,0-0.6
	c0-0.1,0-0.1-0.1-0.2c-0.1-0.1-0.1-0.1-0.1-0.2c-0.1-0.2-0.1-0.4-0.1-0.6c0-0.1,0-0.2-0.1-0.3c-0.1-0.2-0.2-0.4-0.1-0.6
	c0-0.1,0-0.2,0.1-0.3c0.1-0.3,0.1-0.6,0.1-0.9c0-0.3,0-0.6,0-0.9c0-0.2,0-0.3,0-0.5c0-0.1,0-0.2,0-0.4c0-0.2,0-0.4,0.1-0.5
	c0.1-0.1,0.1-0.2,0.1-0.4c0-0.1,0.1-0.2,0.3-0.1L42,21c0.2,0.1,0.3,0.3,0.2,0.5c0,0.2,0,0.4,0.1,0.6c0,0,0,0.1,0,0.1
	c0,0.4,0.1,0.8,0.2,1.2c0,0.1,0,0.2,0,0.3c0,0.1,0,0.2,0.1,0.3c0,0.1,0,0.1,0,0.2c0,0,0,0.1,0,0.1c0.1,0.3,0.2,0.6,0.2,0.9
	c0.1,0.6,0.3,1.3,0.5,1.9c0,0.1,0.1,0.2,0.1,0.2c0.1,0.1,0.1,0.2,0.1,0.3c0,0.1,0,0.1,0.1,0.2c0.1,0.1,0.1,0.2,0.1,0.4
	c0,0.1,0,0.1,0,0.2c0,0.1,0,0.2,0.1,0.2c0.1,0.2,0.3,0.3,0.5,0.4c0.1,0.1,0.2,0.2,0.2,0.3c0.1,0.1,0.2,0.3,0.3,0.4
	c0,0,0.1,0.1,0.1,0.2c0.1,0.2,0.2,0.3,0.4,0.5l0,0c0.3,0.4,0.6,0.7,1,1c0.2,0.2,0.3,0.3,0.5,0.5c0.1,0.1,0.2,0.3,0.4,0.4
	c0.1,0.1,0.1,0.1,0.2,0.1c0.1,0,0.1,0,0.2,0.1c0.1,0.1,0.1,0.2,0.2,0.2c0.1,0,0.1,0.2,0.2,0.2s0.2,0.1,0.2,0.2
	c0,0.1,0.1,0.2,0.1,0.2c0,0.1,0,0.2,0,0.2c0,0.1-0.1,0.1-0.1,0.2c-0.1,0.2-0.1,0.3-0.3,0.4c-0.1,0-0.1,0.1-0.1,0.2
	c0,0.1-0.1,0.2-0.3,0.3l-0.2,0.2c-0.1,0.1-0.1,0.1-0.1,0.2c0,0.1,0.1,0.1,0.2,0.2c0.2,0,0.3,0.1,0.5,0.2c0.1,0.1,0.3,0.2,0.4,0.3
	c0.3,0.2,0.6,0.4,0.8,0.7c0.1,0.2,0.3,0.2,0.4,0.4c0.1,0.1,0.2,0.1,0.3,0.2l0.6,0.2c0.2,0.1,0.3,0.2,0.4,0.3l0,0c-0.1,0-0.2,0-0.2,0
	c0,0-0.1,0-0.1,0c0,0,0,0.1,0,0.1c0,0,0,0.1,0,0.1c0.1,0.1,0.3,0.2,0.5,0.2c0.1,0,0.1,0,0.2-0.1s0.1,0,0.1,0s0,0,0,0s-0.1,0-0.1,0.1
	s0.1,0.1,0.1,0.1c0.1,0,0.1,0,0.2,0c0.1,0,0.2-0.1,0.2-0.1h0.7c0.2,0,0.3,0,0.5,0c0.2,0,0.3,0.1,0.3,0.3c0,0,0,0.1,0,0.1
	c0,0.1-0.1,0.2-0.1,0.2c0,0,0,0.1,0,0.1c0,0.2,0,0.2,0.2,0.2c0.3,0,0.7,0,1,0.1c0.1,0,0.3,0.1,0.4,0.2l0.2,0.2
	c0.2,0.1,0.4,0.1,0.5-0.1c0,0,0,0,0,0c0.1-0.1,0.2-0.2,0.3-0.3c0.1-0.1,0.2-0.2,0.4-0.2c0.2-0.1,0.4-0.1,0.6-0.2
	c0.1-0.1,0.3-0.1,0.5,0c0.1,0,0.1,0.1,0.2,0.1c0.2,0.2,0.4,0.4,0.6,0.6c0.1,0.1,0.1,0.1,0.2,0.2c0.2,0.1,0.3,0.2,0.5,0.4l0.2,0.1
	c0.1,0.1,0.2,0.2,0.2,0.3c0,0.2,0.1,0.4,0.3,0.5c0.1,0,0.1-0.1,0.1-0.1s0.2-0.1,0.3,0c0.1,0.1,0.1,0.2,0.2,0.3
	c0,0.2,0.2,0.3,0.4,0.3c0.2,0,0.4,0.1,0.6,0.2c0.1,0.1,0.2,0.1,0.2,0s0.1,0,0.2,0.1c0,0,0,0.1,0,0.1c0.1,0.2,0.2,0.5,0.2,0.7
	c0,0,0,0.1,0,0.1c0.1,0.2,0.3,0.5,0.4,0.7c0,0.1,0.1,0.1,0.1,0.2c0,0.1,0,0.1,0,0.2c0,0.1,0,0.2,0,0.2c0,0,0,0.1,0,0.1
	c-0.1,0.1-0.1,0.2-0.1,0.3c0.1,0.1,0.2,0.1,0.3,0.1l0,0c0.1,0,0.2,0,0.3-0.1c0.1-0.1,0.3-0.2,0.4-0.3c0.1-0.1,0.1-0.1,0.2-0.1
	c0.1,0,0.2,0,0.2,0.1c0,0,0,0,0,0c0,0.1,0,0.3-0.1,0.4l-0.1,0.2c0,0.1-0.1,0.2,0,0.2c0.1,0.1,0.2,0.1,0.3,0.1l0.1,0
	c0.3-0.1,0.5,0,0.6,0.3c0.1,0.3,0.2,0.6,0.3,0.9c0,0,0,0.1,0,0.1c0,0.1-0.1,0.2-0.2,0.2c0,0,0,0,0,0c-0.1,0-0.1-0.1-0.1-0.1
	c0-0.1,0-0.3,0-0.4c0-0.1,0-0.3-0.1-0.4c0-0.1-0.1-0.3-0.3-0.3c0,0-0.1,0-0.1,0c-0.2,0.1-0.4,0.1-0.6,0.1c0,0-0.1,0-0.1,0
	c-0.1,0-0.2-0.1-0.2-0.2c0-0.1-0.1-0.3-0.3-0.3c-0.1-0.1-0.3-0.1-0.4,0c-0.1,0.1-0.3,0.1-0.5,0c-0.1-0.1-0.2-0.1-0.3,0
	c-0.1,0-0.2,0.1-0.2,0.1c-0.1,0-0.1,0-0.2,0.1v0.1l0,0l0,0c0,0,0,0,0-0.1c0,0,0-0.1,0-0.1h0.1c0.2,0,0.3,0.1,0.3,0.3
	c0,0.1,0,0.3-0.1,0.4c0,0-0.1,0.1-0.1,0.1c0,0,0,0.1,0,0.1c0,0,0.1,0,0.1,0c0.1,0,0.1-0.1,0.1-0.1c0-0.1,0.1-0.2,0.2-0.2
	c0.1,0,0.1,0,0.2,0.1c0,0.1,0,0.1,0,0.2l-0.1,0.1c-0.1,0.1-0.1,0.1-0.1,0.2c0,0,0,0.1,0,0.1c0,0,0.1,0,0.1,0
	c0.1-0.1,0.3-0.3,0.4-0.4c0.1-0.1,0.2-0.2,0.2-0.3c0-0.1,0.1-0.2,0.3-0.2c0,0,0,0,0,0c0.1,0,0.1,0.1,0.1,0.1c0,0,0,0,0,0
	c0,0.2-0.1,0.3-0.3,0.4c-0.1,0.1-0.2,0.2-0.3,0.3c-0.1,0.1-0.1,0.1-0.2,0.2c0,0-0.1,0-0.1,0.1c-0.1,0.2-0.3,0.3-0.5,0.4
	c-0.1,0.1-0.2,0.2-0.3,0.2c0,0-0.1,0-0.1,0.1c-0.2,0.1-0.4,0.2-0.6,0.3c-0.1,0.1-0.2,0-0.3-0.1c-0.1-0.1-0.2-0.1-0.3,0c0,0,0,0,0,0
	l-0.1,0.1c-0.1,0.1-0.1,0.2-0.2,0.2c0,0,0,0,0,0.1c0,0,0.1,0,0.1,0c0.1-0.1,0.2-0.1,0.3-0.1c0,0,0.1,0,0.1,0.1c0,0,0,0.1,0,0.1
	c-0.2,0.1-0.3,0.3-0.5,0.4s-0.1,0.1-0.1,0.1c0,0.1-0.1,0.1-0.2,0.1c0,0-0.1,0-0.1-0.1c-0.1-0.1-0.1-0.1-0.2,0
	c-0.1,0.1-0.3,0.2-0.3,0.3c-0.1,0.1,0,0.2,0,0.2c0,0,0.1,0,0.1,0H59c0.1,0,0.3,0,0.4,0.1s0.1,0,0.2,0c0.2,0.1,0.4,0.2,0.7,0.2
	c0.1,0,0.1,0,0.2,0.1c0.2,0.1,0.3,0.3,0.5,0.4c0.1,0.1,0.1,0.1,0.1,0.2c0.1,0.1,0.1,0.3,0.2,0.4c0.1,0.1,0.1,0.2,0.2,0.3
	c0,0.1,0,0.2,0,0.3l0,0c0,0.1-0.1,0.2-0.1,0.2s0.2,0,0.2,0s0.2-0.1,0.2-0.1c0.1-0.1,0.3-0.1,0.4-0.2c0.1,0,0.1-0.1,0.2-0.1
	c0.1-0.1,0.1-0.2,0.2-0.3c0.1-0.2,0.1-0.2,0.3-0.2H63c0.1,0,0.1-0.1,0.1-0.2c0,0,0,0,0,0c0-0.1-0.1-0.1-0.2-0.1c-0.1,0-0.3,0-0.4,0
	c-0.1,0-0.1,0-0.1-0.1l0,0c0.1-0.1,0.2-0.2,0.2-0.3c0-0.1,0-0.1,0.1-0.2c0.1-0.1,0.1-0.1,0.2,0c0.1,0.1,0.3,0.2,0.4,0.2
	c0.1,0,0.1,0,0.1-0.1c0,0,0-0.1,0-0.1l-0.1-0.1c0,0,0-0.1,0-0.2c0,0,0,0,0.1,0c0.1,0,0.1,0,0.2,0l0.1,0.1v0.1l0,0l0,0h-0.1l-0.1-0.1
	c0.1-0.1,0-0.1,0.1-0.2l0,0l0,0c0,0,0,0.1,0,0.1c0,0,0,0.1,0.1,0.1c0-0.2,0.1-0.5,0.3-0.6c0.1-0.1,0.1-0.2,0.2-0.4
	c0-0.1,0.1-0.2,0.1-0.3c0.1-0.1,0.1-0.2,0.1-0.3c0-0.1,0.1-0.3,0.2-0.4c0-0.1,0.2-0.2,0.3-0.2c0.1,0,0.2-0.1,0.2-0.2c0,0,0,0,0,0
	c0-0.1,0.1-0.2,0.2-0.2c0,0,0.1,0,0.1-0.1c0,0,0,0,0,0c0-0.1,0-0.1,0.1-0.2c0-0.1,0.1-0.1,0.2-0.1c0.1,0,0.2,0.1,0.2,0.2
	c0,0.1,0,0.1,0,0.2c-0.1,0.2-0.1,0.4-0.1,0.6c0,0,0,0.1-0.1,0s-0.1,0-0.1,0c0,0,0,0.1,0,0.1l0,0c0.1,0.2,0,0.3-0.1,0.5
	c-0.1,0.1-0.1,0.2-0.1,0.2c-0.1,0.1,0,0.3,0.1,0.4l0,0c0,0.1,0,0.2-0.2,0.1s0,0,0,0.1c0,0,0,0.1,0,0.1c0,0.3-0.1,0.6-0.2,0.9
	c-0.2,0.4-0.4,0.8-0.5,1.2c0,0.1,0,0.1-0.1,0.2c0,0,0,0.1,0,0.2c0.1,0.1,0.1,0,0.1,0h0.1c0,0,0.1,0,0.1,0l0.2,0.3
	c0.2,0.1,0.2,0.3,0.2,0.5c0,0.1,0,0.1,0,0.2c0,0.1,0,0.1-0.2,0.2s-0.1,0.1-0.1,0.1s0,0-0.1,0h0.1l-0.1,0.2c0,0.1,0,0.1,0,0.2
	l0.2,0.4h0.1c0,0.1,0.1,0.1,0.1,0.2h-0.1c0,0-0.1,0-0.1,0s0,0.1,0,0.1c0,0.1,0,0.2-0.1,0.3c-0.1,0.2-0.2,0.4-0.3,0.6
	c0,0.1,0,0.2,0,0.3c0,0.1,0.1,0.3,0.1,0.4c0,0.1,0.1,0.1,0.1,0.2c0.1,0.1,0.1,0.1,0.1,0.2c0,0,0,0.1,0,0.1c-0.1,0-0.1,0.1-0.1,0.2
	c0,0.4,0,0.8,0,1.2c0,0.1,0.1,0.2,0.1,0.2c0.1,0.1,0.2,0.1,0.2,0c0,0,0-0.1,0-0.1c0-0.2,0.1-0.3,0.1-0.5s0,0,0.1,0
	c0.1,0,0.2,0.1,0.2,0.1c0,0,0,0.1,0.1,0.2l0,0l-0.1,0.1l0,0c-0.2,0.1-0.2,0.3-0.4,0.4c0,0,0,0.1,0,0.1c0,0,0,0,0,0.1
	c0,0.2,0,0.3,0,0.5c0,0.1,0,0.2,0,0.3c0,0.2,0,0.4-0.2,0.5c0,0-0.1,0.1-0.1,0.1c-0.1,0.1-0.1,0.2-0.2,0.3c-0.2,0.2-0.3,0.4-0.4,0.6
	c-0.1,0.3-0.3,0.5-0.5,0.8c-0.1,0.2-0.2,0.4-0.3,0.6c-0.1,0.2-0.2,0.4-0.3,0.5c-0.1,0.1-0.2,0.2-0.3,0.2c-0.1,0-0.2,0.1-0.2,0.2
	c0,0.1-0.1,0.1-0.2,0.2c-0.2,0.2-0.4,0.3-0.5,0.6c-0.1,0.1-0.1,0.2,0,0.3c0.1,0.2,0.1,0.5,0,0.7c0,0.1,0,0.2,0,0.3
	c0,0.1-0.1,0.2-0.2,0.2c-0.1,0-0.3,0-0.4,0c0,0-0.1,0-0.1,0c-0.1-0.1-0.2-0.2-0.3-0.3c-0.1-0.1-0.3-0.2-0.4-0.2c0,0-0.1,0-0.2,0
	c-0.1,0.1-0.2,0.1-0.3,0.1c-0.1,0-0.2,0.1-0.2,0.2s0,0.1-0.1,0.1s-0.2,0.1-0.4,0.1S59,63.9,59,64c0,0,0,0,0,0.1c0,0.1,0,0.1,0,0.2
	c-0.1,0.1-0.2,0.2-0.3,0.2c-0.1,0-0.2,0-0.2-0.1c-0.1-0.1-0.1-0.2-0.1-0.3c0,0,0-0.1,0-0.1c0,0,0,0,0,0h0.2c0,0,0.1,0,0.1-0.1
	c0,0,0,0,0,0c-0.1-0.2-0.3-0.4-0.5-0.4c-0.1,0-0.1,0-0.2,0c0,0-0.1,0-0.1,0.1c0,0,0,0.1,0,0.1c0,0,0,0,0,0H58c0,0,0.1,0.2,0.1,0.3
	c0,0.1-0.1,0.1-0.1,0.1c-0.2,0.1-0.3,0-0.4-0.2l0,0v-0.1l0,0v0l0,0c-0.2,0-0.3,0-0.5,0.1C57,64,56.9,64.1,56.8,64
	c-0.4,0.1-0.7,0.1-1.1,0c-0.1,0-0.3,0-0.4-0.1c-0.2-0.1-0.4,0-0.6,0.1c-0.1,0-0.2,0-0.3,0c0,0-0.1,0-0.1,0s0,0,0.1,0
	c0.1,0,0.1,0,0.2,0l0,0l0.1-0.1c0.1-0.1,0.1-0.1,0-0.2c0,0,0,0,0,0c-0.2-0.2-0.5-0.2-0.8-0.3c-0.1,0-0.1,0-0.2,0
	c-0.2-0.1-0.3-0.1-0.5,0c-0.1,0-0.2,0-0.3,0c-0.1,0-0.1,0-0.2-0.1c0-0.1-0.1-0.2-0.3-0.2c-0.1,0-0.1,0-0.2-0.1s-0.1-0.1-0.2-0.1
	c-0.1,0-0.1,0.1-0.2,0.1c-0.2,0.1-0.4,0.1-0.6,0.1c-0.1,0-0.3-0.1-0.4-0.1c-0.1-0.1-0.2-0.1-0.3-0.2c-0.1,0-0.1-0.1,0-0.2
	c0.2-0.1,0.4-0.2,0.6-0.2c0.1,0,0.2,0,0.2-0.1c0,0,0.1-0.1,0-0.2c0,0,0,0,0,0c-0.1-0.1-0.3-0.1-0.4,0c-0.1,0.1-0.3,0.1-0.5,0.2
	c-0.1,0-0.2,0.1-0.3,0.2c0,0,0,0.1,0,0.1c0,0,0,0.1,0.1,0.1s0.2,0,0.2,0.1c-0.1,0.1-0.3,0-0.4,0.1s-0.3,0.2-0.4,0.2
	s-0.1,0.1-0.1,0.1c0,0.1-0.1,0.1-0.2,0c0,0,0,0,0,0c0,0,0-0.1,0-0.1l0.2-0.2l0.2-0.2c-0.1-0.1-0.3-0.1-0.5,0
	c-0.2,0.1-0.5,0.2-0.8,0.2h-0.4c-0.1,0-0.3,0-0.4,0.1c-0.1,0-0.2,0.1-0.3,0.1c-0.2,0.1-0.4,0-0.4-0.2c-0.1-0.2-0.3-0.4-0.5-0.6
	c-0.1-0.1-0.2-0.2-0.3-0.2c-0.1,0-0.1-0.1-0.2-0.1s-0.2,0-0.3,0.1c0,0.1,0,0.1,0,0.2c0,0.1,0,0.2-0.1,0.2c0,0-0.1,0-0.1,0
	c0,0-0.1,0-0.1-0.1c0-0.1,0-0.1,0-0.2c0,0,0-0.1,0-0.1c0-0.1-0.1-0.2-0.2-0.1c0,0,0,0,0,0c-0.1,0-0.2,0.1-0.2,0.2c0,0,0,0,0,0
	c0,0.1,0,0.2,0,0.2s0,0.1-0.1,0.1c-0.1,0-0.2,0.1-0.2,0.2c-0.1,0.1-0.2,0.2-0.3,0.2c0,0-0.1,0-0.1,0.1c-0.1,0-0.1,0.1-0.1,0.2
	c0.1,0.2,0,0.4-0.1,0.6c-0.1,0.2-0.2,0.4-0.3,0.6c-0.1,0.1-0.2,0.3-0.2,0.4c0,0.1,0,0.1,0,0.2c0,0.2-0.1,0.3-0.3,0.4
	c-0.1,0.1-0.2,0.2-0.3,0.3C43,65.9,43,66.1,43,66.3c0,0.1,0,0.1-0.1,0.2c-0.1,0.1-0.2,0.2-0.3,0.4c-0.1,0.3-0.3,0.6-0.4,0.9
	S42,68.2,42,68.4c0,0.1,0,0.1,0,0.2c0,0.2-0.1,0.4-0.2,0.5c0,0,0,0.1-0.1,0.1c0,0.1,0,0.3-0.1,0.4c0,0.1,0,0.2,0.1,0.2c0,0,0,0,0,0
	c0,0,0.1,0.1,0.1,0.1c0,0,0,0,0,0c0,0.1-0.1,0.1-0.1,0.1c0,0,0,0,0,0c-0.1-0.1-0.2,0-0.2,0c-0.1,0.1-0.2,0.2-0.2,0.3
	c-0.1,0.2-0.2,0.4-0.3,0.5c0,0.1-0.1,0.1-0.2,0.1c-0.2,0.1-0.3,0.2-0.3,0.4c0,0.3-0.1,0.5-0.2,0.7c0,0.1-0.1,0.3-0.1,0.4
	c0,0,0,0.1,0,0.1c0,0,0,0.1,0,0.1c0.1,0.3,0.1,0.6-0.1,0.8c-0.1,0.2-0.2,0.4-0.2,0.6c0,0.1,0,0.2,0,0.4c0,0.1-0.1,0.1-0.1,0.1
	c0,0,0,0,0,0h-0.1c-0.1,0-0.1-0.1-0.1-0.2c0-0.1,0-0.1,0-0.2c0-0.1,0.1-0.3,0.2-0.4c0-0.1,0.1-0.2,0.1-0.3c0-0.1,0-0.3,0.1-0.4
	c0-0.1,0-0.1,0-0.2c0-0.1,0-0.2,0-0.3c0.1-0.1,0.1-0.2,0.1-0.3c0,0,0-0.1,0-0.1l0.2-0.9c0,0,0-0.1,0.1-0.1c0.1-0.2,0.2-0.3,0.2-0.5
	c0-0.1,0.1-0.2,0.1-0.3c0.1-0.2,0.2-0.4,0.2-0.6c0,0,0-0.1,0.1-0.1c0.1-0.2,0.2-0.4,0.2-0.6c0-0.1,0-0.2,0-0.2c0-0.1,0-0.2,0-0.2
	c0.1-0.2,0.1-0.5,0-0.7c0-0.1,0-0.1,0.1-0.2c0.2-0.1,0.4-0.3,0.4-0.5c0.1-0.2,0.2-0.4,0.2-0.7s0.1-0.2,0.1-0.4s0.2-0.3,0.3-0.5
	s0.1-0.1,0.1-0.1c0.1-0.1,0.1-0.2,0.2-0.3c0,0,0-0.1,0-0.1c0-0.1,0-0.3,0.1-0.4c0-0.1,0.1-0.1,0.1-0.2s0.1-0.1,0.1-0.2
	c0.1-0.1,0.2-0.2,0.2-0.3c0,0,0-0.1,0-0.1c0.1-0.2,0.1-0.3,0.2-0.5c0-0.1,0.1-0.1,0.2-0.1h0.1c0.1,0,0.1,0.1,0.1,0.1c0,0,0,0,0,0
	c0,0,0,0.1,0,0.1c0.1,0,0.1-0.1,0.1-0.2l0,0l-0.1-0.1c0,0,0-0.1,0-0.2c0,0,0,0,0,0c0.1-0.1,0.1-0.2,0.2-0.2c0.1,0,0.1-0.1,0.1-0.2
	c0-0.1,0-0.1,0-0.2c0-0.1,0-0.2,0.2-0.1c0.1,0,0.2,0,0.2-0.1c0.1-0.2,0.2-0.3,0.2-0.5c0-0.3,0.1-0.7,0.1-1c0,0,0-0.1,0-0.1
	c0,0-0.1,0-0.2,0c0,0-0.1,0.1-0.1,0.1c-0.1,0.1-0.3,0.3-0.4,0.3l0,0c0-0.2,0.1-0.4,0.3-0.5l0.1-0.1c0,0,0.1-0.1,0-0.1
	s-0.1-0.1-0.2,0l-0.2,0.1c-0.1,0-0.2,0-0.3,0c0,0,0,0,0-0.1c0,0,0,0,0-0.1s0.1,0,0.1,0c0.1-0.2,0.3-0.2,0.5-0.3
	c0.2,0,0.3-0.2,0.4-0.4c0-0.1,0-0.2-0.1-0.2c0,0,0,0,0,0c-0.1,0-0.1,0-0.2,0c-0.2,0.1-0.3,0.3-0.5,0.3c0,0-0.1,0.1-0.1,0.1
	c-0.1,0.1-0.2,0.2-0.3,0.3c0,0-0.1,0.1-0.1,0.1c-0.1,0.1-0.2,0.2-0.3,0.3c-0.1,0.1-0.1,0.1-0.2,0.1c-0.1,0-0.2,0.1-0.2,0.2
	c-0.1,0.2-0.2,0.3-0.3,0.4c-0.1,0-0.2,0.1-0.2,0.2c-0.1,0.2-0.3,0.4-0.6,0.4c-0.2,0-0.3,0.2-0.4,0.4c0,0,0,0.1,0,0.1c0,0,0,0,0,0
	c0.2,0,0.4,0.1,0.6,0.2c0.1,0,0.2,0,0.3,0c0.1,0,0.2,0,0.3,0.1l0,0l-0.1,0.1c-0.1,0.1-0.2,0.1-0.4,0.1l-0.5-0.1
	c-0.1,0-0.1,0-0.2-0.1c0,0-0.1-0.1-0.2-0.1c-0.1,0-0.2,0-0.2,0c-0.1,0.1-0.2,0.1-0.3,0.2c-0.1,0.1-0.2,0.2-0.2,0.3
	c0,0.1-0.1,0.2-0.2,0.3c-0.1,0.1-0.2,0.3-0.2,0.5c0,0.2-0.1,0.4-0.2,0.5c-0.1,0.1-0.1,0.2-0.2,0.2c0,0,0,0.1,0,0.1
	c-0.2,0.2-0.4,0.5-0.5,0.7L39,65.5c-0.1,0.1-0.1,0.2-0.1,0.3c0,0,0.1,0,0.2,0c0,0,0,0.1,0,0.2l0,0c-0.2,0.1-0.4,0.2-0.6,0.3
	c-0.2,0.1-0.4,0.2-0.5,0.3c-0.2,0.1-0.3,0.3-0.5,0.5c0,0-0.1,0.1-0.1,0.1c-0.1,0.1-0.2,0.1-0.3,0.2c-0.1,0.1-0.1,0.2-0.2,0.2
	l-0.5,0.3l-0.2,0.2c-0.1,0.1-0.1,0.1-0.2,0.2c-0.1,0-0.1,0.1-0.2,0.1c-0.2,0.2-0.3,0.4-0.5,0.5c-0.2,0.2-0.3,0.3-0.5,0.6
	c0,0-0.1,0.1-0.1,0c-0.1-0.1-0.3,0-0.3,0.1c-0.3,0.2-0.6,0.4-0.9,0.7c-0.1,0.1-0.2,0.1-0.3,0.2c-0.2,0.1-0.3,0.2-0.5,0.2l0,0
	c-0.2,0-0.3,0.1-0.4,0.2c-0.1,0.1-0.1,0.1-0.2,0.1c-0.1,0-0.2,0.1-0.3,0.2c-0.1,0.1-0.2,0.2-0.4,0.3c-0.1,0-0.1,0-0.1,0.1
	c-0.1,0.1-0.1,0.1-0.2,0.2c-0.2,0-0.3,0.1-0.4,0.2c-0.1,0.1-0.2,0.1-0.2,0.1c0,0,0,0-0.1,0c0,0,0,0,0-0.1c0.1-0.1,0.1-0.2,0.3-0.3
	c0.1,0,0.2-0.1,0.2-0.2c0,0,0.1-0.1,0.1-0.1s0.2-0.2,0.3-0.3c0.1-0.1,0.1-0.2,0.3-0.3c0.1,0,0.1-0.1,0.2-0.1
	c0.2-0.1,0.4-0.2,0.6-0.4c0.2-0.2,0.4-0.4,0.6-0.5c0.2-0.2,0.4-0.3,0.6-0.5s0.5-0.4,0.7-0.6s0.2-0.2,0.3-0.2
	c0.2-0.1,0.3-0.3,0.5-0.4c0.1-0.1,0.2-0.1,0.2-0.2c0.1-0.1,0.2-0.2,0.4-0.3c0,0,0.1,0,0.1-0.1c0.2-0.1,0.3-0.3,0.5-0.4
	c0.1-0.1,0.1-0.2,0.2-0.2c0.1-0.1,0.2-0.2,0.2-0.3c0-0.1,0.1-0.2,0.2-0.2c0.2-0.1,0.3-0.2,0.4-0.3c0.2-0.3,0.4-0.6,0.5-0.9
	c0.1-0.2,0.2-0.4,0.4-0.6c0.1-0.1,0.1-0.2,0.1-0.2c0,0,0-0.1,0-0.1c0.3-0.4,0.5-0.8,0.7-1.2c0.2-0.2,0.3-0.5,0.5-0.7
	c0.1-0.1,0.1-0.2,0.2-0.4c0.1-0.2,0.2-0.4,0.4-0.6c0.1-0.1,0.2-0.2,0.2-0.3c0,0,0-0.1,0.1-0.1c0,0,0.1,0,0.1,0c0,0,0.1,0,0.1,0.1
	c0,0.1,0,0.1,0,0.2c0,0.1,0,0.1,0.2,0.2h0.1c0,0,0.1,0,0,0.1s-0.1,0.2-0.2,0.3c-0.1,0-0.1,0.1-0.1,0.2c-0.1,0.2-0.2,0.4-0.3,0.7
	c0,0,0,0.1,0,0.1c0,0.1,0,0.1,0,0.1s0.1,0,0.1,0c0.2-0.2,0.4-0.4,0.5-0.7c0-0.1,0.1-0.2,0.2-0.3c0.1-0.1,0.1-0.1,0.2,0l0.1,0.2
	c0,0.1,0.1,0.1,0.2,0c0.1,0,0.1-0.1,0.2-0.2c0.1-0.2,0.3-0.3,0.5-0.5s0.3-0.3,0.4-0.5s0.1-0.1,0.1-0.1c0.1-0.1,0.2-0.1,0.3-0.1
	c0.1,0,0.2,0,0.2-0.1c0.1-0.1,0.1-0.1,0.2-0.2c0-0.1,0-0.1,0-0.2l0,0l-0.1-0.1l0,0c0,0,0.1-0.1,0.1,0c0,0,0.1,0,0.1,0
	c0,0,0.1-0.1,0-0.1c-0.1-0.1-0.2-0.2-0.3-0.3c-0.3-0.1-0.5-0.3-0.7-0.5c-0.1-0.1-0.3-0.2-0.5-0.2c-0.2,0-0.3,0-0.5-0.2
	c0,0-0.1-0.1-0.1-0.2c-0.1-0.2-0.2-0.3-0.3-0.4c0,0-0.1-0.1-0.1-0.1c-0.1-0.2-0.3-0.3-0.4-0.5c-0.1-0.1-0.3-0.3-0.4-0.3
	c-0.1,0-0.2-0.1-0.3-0.2c0,0,0-0.1-0.1-0.1c-0.1-0.1-0.2-0.1-0.2,0s0,0-0.1,0l0,0c-0.2-0.1-0.3-0.3-0.4-0.5
	c-0.1-0.2-0.3-0.3-0.5-0.3c-0.2,0-0.3-0.1-0.5-0.1c-0.2,0-0.3-0.2-0.3-0.3c0-0.2,0-0.3,0.1-0.5c0.1-0.1,0.1-0.2,0.2-0.3
	c0.1-0.1,0.1-0.2,0.2-0.3c0.1-0.1,0.1-0.3,0-0.4c-0.1-0.2-0.2-0.4-0.2-0.6c0-0.1,0-0.1-0.1-0.2c-0.1-0.2-0.2-0.3-0.3-0.5
	c-0.1-0.1-0.2-0.2-0.3-0.3c-0.1-0.1-0.2-0.1-0.3-0.3c-0.2-0.3-0.3-0.6-0.5-0.8c-0.1-0.1-0.1-0.2-0.2-0.3c0-0.1-0.1-0.2-0.2-0.3
	c-0.2-0.1-0.2-0.1-0.4,0c-0.1,0.1-0.3,0.1-0.4,0.1c-0.3,0-0.5,0.1-0.7,0.2c-0.1,0-0.1,0-0.2,0c-0.4,0-0.8,0.2-1.1,0.5
	c-0.1,0.1-0.1,0.1,0,0.2s0,0.1-0.1,0.2l0,0c-0.1,0-0.2,0-0.3,0.1c-0.1,0.1-0.2,0.1-0.3,0.1H32c-0.2,0.1-0.3,0.1-0.5,0.1
	c-0.3,0-0.6,0.1-0.8,0.3l0,0c-0.1,0.1-0.2,0.1-0.3,0c0,0,0,0,0,0c-0.1-0.1-0.1-0.1-0.2-0.1c-0.1,0-0.2,0-0.3-0.1
	c-0.1-0.1-0.1-0.1-0.2,0c-0.1,0.1-0.2,0.1-0.3,0c-0.1,0-0.2,0-0.3,0c-0.1,0-0.2,0.1-0.2,0.2c0,0,0,0.1,0,0.1l0.1,0
	c0,0,0.1,0.1,0.1,0.1l0,0c0,0-0.1,0-0.1,0c-0.2-0.2-0.4-0.3-0.6-0.4c-0.1,0-0.1-0.1-0.2-0.1c-0.3,0-0.6-0.1-0.9-0.1
	c-0.2,0-0.4,0-0.5-0.1c-0.2-0.1-0.3-0.1-0.5,0c-0.1,0-0.1,0.1-0.2,0.1c0,0.1-0.1,0.1-0.2,0.1c-0.1,0-0.3,0-0.4,0.1
	c-0.3,0.1-0.7,0.2-1,0.2c-0.1,0-0.2,0-0.2,0c-0.1,0.1-0.3,0.1-0.5,0l-0.1-0.1c0,0-0.1,0-0.1,0s0,0.1,0,0.1s0,0.1-0.1,0.1
	c-0.2-0.1-0.4,0-0.5,0.1l-0.4,0.1c-0.2,0.1-0.4,0.1-0.5,0.3c-0.3,0.2-0.6,0.4-0.9,0.5c-0.1,0-0.1,0.1-0.2,0.1
	c-0.1,0.1-0.3,0.2-0.5,0.2c-0.1,0-0.2,0.1-0.4,0.1c-0.1,0.1-0.2,0.1-0.3,0.2c0,0-0.1,0-0.1,0c0,0-0.1,0,0-0.1c0-0.1,0.1-0.1,0.1-0.1
	l0.3-0.2c0.2-0.1,0.3-0.3,0.2-0.4c0-0.1,0-0.2,0.1-0.3c0.1-0.1,0.3-0.2,0.5-0.3l0,0c0.1-0.2,0.4-0.3,0.5-0.6c0-0.1,0.1-0.1,0.2-0.2
	c0.1,0,0.2-0.1,0.3-0.1c0.1,0,0.2-0.1,0.3-0.2c0.1-0.1,0.3-0.2,0.4-0.2c0.1,0,0.3-0.1,0.4-0.1c0.1,0,0.2-0.1,0.3-0.1
	c0.1,0,0.2-0.1,0.2-0.2c0,0,0,0,0-0.1c0.1,0.1,0.3,0.1,0.4,0c0.1,0,0.1-0.1,0.2-0.1c0.1,0,0.1,0,0.1-0.1c0,0,0,0,0-0.1
	c-0.1,0-0.1,0-0.2,0.1l0,0c-0.1,0-0.1,0-0.2,0l-0.3,0.2c-0.2,0-0.4,0.1-0.6,0.1s-0.4,0.1-0.6,0.2C22,51.9,22,52,21.9,52
	c-0.1,0-0.2,0.1-0.3,0.1c0,0-0.1,0-0.1,0.1c-0.2,0-0.3,0.1-0.4,0.2c0,0-0.1,0-0.1,0c-0.3,0.1-0.5,0.1-0.8,0.2
	c-0.1,0-0.1,0.1-0.2,0.1l-0.3,0h0c-0.3,0.2-0.6,0.3-0.9,0.5c-0.1,0-0.1,0.1-0.2,0.1c-0.2,0-0.3,0.1-0.5,0.2
	c-0.1,0.1-0.1,0.1-0.2,0.1c-0.2,0.1-0.4,0.2-0.5,0.3c-0.2,0.1-0.3,0.2-0.5,0.4l-0.1,0c-0.2,0.2-0.4,0.4-0.5,0.5s-0.4,0.4-0.6,0.5
	c-0.2,0.1-0.3,0.3-0.5,0.5c-0.1,0.1-0.1,0.1-0.1,0.2c0,0.2-0.2,0.4-0.4,0.5c-0.2,0.1-0.3,0.3-0.5,0.4c-0.2,0.3-0.4,0.6-0.5,0.9
	c0,0.1-0.1,0.1-0.1,0.2c0,0.1-0.1,0.2-0.1,0.3c0,0.1-0.1,0.1-0.1,0.2l0,0l0,0c0-0.1,0-0.1-0.1-0.2s-0.1-0.1-0.2,0c0,0,0,0.1-0.1,0.1
	c-0.1,0.2-0.2,0.3-0.3,0.5c0,0.1,0,0.2,0,0.3c0,0,0,0.1,0.1,0.1c0,0,0.1,0,0.1,0c0,0,0-0.1,0.1-0.1c0.1-0.2,0.2-0.3,0.4-0.4l0,0l0,0
	c-0.1,0.2-0.2,0.4-0.3,0.6c-0.1,0.1-0.2,0.3-0.1,0.5c0,0,0,0,0,0c0.1,0.1,0.1,0.2,0.2,0.2c0.1,0.1,0.1,0.1,0.1,0.2
	c0,0.1,0,0.1-0.1,0.1h-0.1c-0.1,0-0.3,0-0.4-0.1c-0.1-0.1-0.2-0.1-0.2,0c0,0,0,0,0,0.1c-0.1,0.3-0.3,0.6-0.3,0.9c0,0,0,0.1,0,0.1
	c-0.2,0.3-0.3,0.7-0.4,1c0,0.1-0.1,0.2-0.1,0.3c0,0.1-0.1,0.1-0.1,0.2c-0.1,0.1-0.1,0.1-0.2,0.2l0,0c0,0-0.1,0-0.1,0
	c0,0-0.1,0-0.1-0.1c0-0.1,0-0.2,0.1-0.3c0.1-0.2,0.2-0.5,0.4-0.7c0-0.1,0.1-0.1,0.1-0.2c0.1-0.4,0.3-0.7,0.4-1.1
	c0.1-0.3,0.2-0.5,0.2-0.8c0-0.2,0-0.4-0.2-0.6c-0.1-0.1-0.1-0.2-0.2-0.2c-0.1-0.1-0.2-0.3-0.4-0.4s-0.4-0.5-0.6-0.7
	c-0.1-0.1-0.2-0.3-0.3-0.4c0-0.1-0.1-0.1-0.1-0.2l0,0c-0.3-0.2-0.5-0.4-0.7-0.6c-0.2-0.2-0.4-0.4-0.6-0.6L9,56.3
	c-0.1-0.1-0.3-0.2-0.4-0.4l0,0c-0.2-0.2-0.4-0.4-0.6-0.6c-0.1-0.1-0.3-0.2-0.4-0.4c-0.2-0.2-0.4-0.5-0.6-0.7
	c-0.3-0.3-0.6-0.5-0.8-0.8l0,0c-0.3-0.2-0.6-0.5-0.9-0.6c-0.1-0.1-0.3-0.2-0.4-0.3c0,0-0.1-0.1-0.2-0.1c-0.1,0-0.1-0.1-0.1-0.2
	c0-0.2-0.1-0.3-0.2-0.4L4,51.6c-0.3-0.2-0.6-0.5-0.9-0.7s-0.5-0.3-0.7-0.5c-0.1-0.1-0.3-0.2-0.4-0.3c0,0,0-0.1,0-0.1
	c0,0,0.1,0,0.1,0c0.2,0,0.3,0.1,0.4,0.2c0.2,0.2,0.5,0.3,0.7,0.5l0.6,0.4c0,0,0.1,0,0.1,0.1c0.1,0.2,0.3,0.3,0.5,0.4
	c0.2,0.1,0.4,0.3,0.5,0.5c0.1,0.2,0.3,0.3,0.5,0.5c0.2,0.1,0.4,0.2,0.6,0.3c0.4,0.2,0.7,0.5,1.1,0.8c0.2,0.3,0.5,0.5,0.8,0.8
	s0.3,0.2,0.4,0.3s0.5,0.4,0.7,0.7l0.1,0.1c0.1,0.1,0.3,0.3,0.4,0.4c0.2,0.2,0.4,0.4,0.6,0.6c0.4,0.4,0.8,0.8,1.2,1.3
	c0.2,0.2,0.4,0.5,0.6,0.7c0.1,0.1,0.1,0.2,0.2,0.3c0,0.1,0.1,0.1,0.1,0.2c0.1,0.1,0.2,0.1,0.3,0.1c0,0,0.1,0,0.1-0.1
	c0,0,0.1-0.1,0.1-0.1c0.1-0.3,0.3-0.5,0.5-0.7c0.1-0.1,0.1-0.2,0.2-0.3c0-0.1,0.1-0.2,0.2-0.3c0.3-0.4,0.5-0.7,0.8-1l0.1-0.1
	c0.3-0.4,0.6-0.7,0.9-1c0.3-0.2,0.5-0.5,0.8-0.8l0.9-0.9c0.1-0.1,0.2-0.2,0.2-0.4s0.1-0.1,0.1-0.1c0.1,0,0.3,0,0.4-0.1l0.2-0.1
	c0.2-0.1,0.5-0.3,0.7-0.5c0.1-0.1,0.1-0.1,0.2-0.1c0.2,0,0.3-0.2,0.5-0.2c0.1-0.1,0.3-0.1,0.4-0.2c0.1-0.1,0.3-0.2,0.5-0.3h0
	c0.2-0.2,0.5-0.3,0.7-0.5l0,0c0.4-0.2,0.8-0.4,1.1-0.5c0.1,0,0.2,0,0.3,0c0.1,0,0.2,0,0.2,0c0,0,0,0,0,0c0-0.1,0.1-0.2,0.2-0.3
	c0.1,0.2,0.1,0.2,0.2,0.2s0.3,0,0.4-0.2s0.1-0.2,0.1-0.3l0,0c0,0.1,0,0.1,0.1,0.1l0.2,0.1c0.1,0,0.2,0,0.3,0
	c0.1-0.1,0.3-0.1,0.4-0.2c0.1,0,0.1,0,0.2-0.1c0.1,0,0.2,0,0.3,0c0.2-0.1,0.4-0.1,0.5-0.2c0,0,0,0,0-0.1l0,0c-0.1,0-0.2-0.1-0.3-0.1
	c-0.3,0-0.5-0.1-0.7-0.3c-0.1-0.1-0.3-0.1-0.4,0c0.1,0.1,0.2,0.2,0.3,0.3c0,0,0.1,0.1,0.1,0.1c0.1,0.1,0.1,0.2,0.1,0.4
	c-0.1,0-0.2,0-0.3,0c0,0-0.1,0-0.1,0c-0.2,0-0.2,0-0.3-0.2l0,0c-0.1,0.1-0.2,0-0.4,0c-0.1,0-0.2,0-0.2-0.1c0,0,0,0,0,0
	c-0.1-0.2-0.1-0.2-0.3-0.2c-0.1,0-0.3,0-0.4,0c-0.1,0-0.1,0-0.1,0.1c0,0,0,0,0,0c0,0-0.1,0-0.1,0l-0.1-0.1c-0.1,0-0.1-0.1-0.1-0.1
	c0-0.1,0-0.1,0-0.2c0-0.1-0.1-0.1-0.2-0.1c-0.1,0-0.1,0-0.2-0.1l-0.3-0.2c0,0-0.1-0.1-0.2,0l0,0c0,0-0.1-0.1,0-0.1l0.1-0.1
	c0,0,0-0.1,0-0.2l-0.3-0.3c-0.1-0.1-0.2-0.1-0.3-0.1c-0.2,0-0.4-0.1-0.5-0.3c-0.1-0.1-0.1-0.1-0.2-0.1c0,0-0.1,0-0.1-0.1l0,0
	c0-0.1,0-0.1,0.1-0.2s0.1-0.1,0.2-0.1c0.1,0.1,0.2,0.2,0.3,0.2c0.1,0,0.1,0,0.1,0.1c0.1,0.1,0.3,0.2,0.4,0.3c0.1,0.1,0.1,0.1,0.2,0
	l0.1-0.1c0.1-0.1,0.1-0.2,0-0.2h-0.1c-0.2-0.2-0.4-0.3-0.6-0.3c-0.1-0.1-0.3-0.1-0.4-0.2c-0.1-0.1-0.2-0.1-0.3-0.2
	c-0.1,0-0.1-0.1-0.2-0.1c-0.1,0-0.1,0-0.2,0l0,0c0,0-0.1,0-0.1,0l0,0c-0.1,0-0.3,0-0.3-0.2c0-0.1-0.1-0.3-0.3-0.3
	c-0.3-0.2-0.5-0.4-0.8-0.5c-0.1-0.1-0.2-0.2-0.3-0.4c-0.1-0.1-0.3-0.2-0.5-0.2c-0.1,0-0.1,0-0.2-0.1c-0.1-0.2-0.3-0.4-0.5-0.5
	c-0.2-0.2-0.3-0.3-0.5-0.5c-0.2-0.2-0.4-0.3-0.6-0.4c-0.1,0-0.2-0.1-0.2-0.2c-0.1-0.1-0.2-0.3-0.3-0.4c-0.2-0.2-0.3-0.4-0.5-0.6
	c-0.1-0.1-0.2-0.2-0.2-0.2c-0.1,0-0.1,0-0.2,0c-0.1,0.1-0.3,0.2-0.4,0.2c-0.2,0.1-0.3,0.2-0.4,0.3c-0.1,0.1-0.3,0.2-0.5,0.4
	c-0.1,0.1-0.3,0.2-0.4,0.3c-0.1,0.1-0.1,0.1-0.2,0.1c-0.1,0-0.1,0.1-0.1,0.1c-0.1,0.1-0.3,0.2-0.4,0.3c-0.2,0.1-0.3,0.2-0.5,0.3
	c-0.3,0.2-0.6,0.4-0.9,0.6c-0.1,0-0.1,0-0.2,0.1c-0.1,0.1-0.2,0.2-0.3,0.2c-0.3,0.1-0.5,0.3-0.7,0.5c-0.1,0.1-0.3,0.2-0.5,0.3
	l-0.1,0.1c-0.1,0.1-0.3,0.2-0.5,0.2c-0.1,0-0.2,0.1-0.3,0.1c-0.1,0-0.1,0-0.2,0c-0.2,0-0.4,0-0.6,0.1c-0.3,0.2-0.6,0.3-0.9,0.4
	c-0.1,0-0.2,0.1-0.3,0.1c-0.2,0.1-0.3,0.1-0.5,0.3c-0.1,0.1-0.2,0.1-0.2,0.2C5.1,47.9,5,48,4.9,48.1c-0.2,0.1-0.4,0.3-0.6,0.4
	c-0.3,0.1-0.6,0.3-0.8,0.5c-0.2,0.2-0.5,0.3-0.7,0.4c-0.1,0.1-0.2,0.1-0.3,0.2c-0.1,0.1-0.2,0.1-0.3,0c0,0,0,0,0,0
	c-0.1-0.1-0.2-0.1-0.3-0.2c-0.1,0-0.1-0.1,0-0.2c0,0,0,0,0,0c0.1,0,0.1-0.1,0.2-0.1c0.4-0.2,0.7-0.4,1-0.6c0.2-0.1,0.3-0.2,0.5-0.3
	C3.8,48.1,4,48,4.2,47.8c0.1-0.1,0.3-0.2,0.5-0.3c0.1,0,0.2-0.1,0.2-0.2C5,47.2,5.2,47.1,5.4,47l0.1,0c0.3-0.2,0.7-0.4,1.1-0.5
	l0.2,0c0.1,0,0.2-0.1,0.3-0.1c0.2-0.1,0.4-0.2,0.6-0.3c0.2-0.1,0.5-0.3,0.7-0.5c0.1-0.1,0.2-0.1,0.3-0.2c0.4-0.2,0.8-0.5,1.1-0.8
	c0.2-0.1,0.4-0.2,0.6-0.3l0.3-0.1c0.4-0.2,0.7-0.4,1.1-0.6c0.2-0.1,0.4-0.2,0.6-0.4c0.4-0.2,0.7-0.5,1-0.8c0.1-0.1,0.2-0.1,0.3-0.2
	c0.1-0.1,0.3-0.1,0.4,0c0,0,0.1,0,0.1,0c0,0,0,0,0,0c0,0,0-0.1,0-0.1c-0.1-0.1-0.1-0.2-0.1-0.3c0-0.2-0.1-0.3-0.2-0.4
	c-0.1-0.1-0.2-0.2-0.3-0.4c0-0.1-0.1-0.1-0.1-0.1c-0.4-0.4-0.7-0.8-0.9-1.3c-0.2-0.3-0.4-0.5-0.5-0.8c-0.3-0.5-0.5-0.9-0.8-1.4
	c-0.1-0.2-0.2-0.5-0.3-0.7s-0.1-0.3-0.2-0.5c-0.2-0.4-0.4-0.8-0.6-1.3c-0.1-0.1-0.1-0.3-0.1-0.4c-0.1-0.2-0.1-0.4-0.1-0.6
	c0,0,0-0.1,0-0.1l-0.2-0.7c0,0,0-0.1,0-0.1c0-0.1,0-0.2-0.1-0.3c-0.1-0.2-0.1-0.4-0.2-0.5c0-0.2-0.1-0.4-0.1-0.6s0-0.3-0.1-0.5
	S9,30.5,9,30.2c-0.1-0.3-0.1-0.6-0.1-0.9c0-0.7,0-1.4,0-2.1c0-0.2,0-0.4,0-0.7c0-0.4,0.1-0.8,0.2-1.2c0-0.1,0-0.1,0-0.2
	c0,0,0.1-0.1,0.1-0.2c0-0.2,0.1-0.3,0.3-0.4c0.5-0.1,0.9-0.3,1.4-0.6c0.1-0.1,0.3-0.1,0.4-0.1c0.2,0,0.5,0,0.7-0.1
	c0.2-0.1,0.5-0.1,0.7-0.1c0.2,0,0.3-0.1,0.5-0.2c0,0,0.1-0.1,0.1-0.1c0.1-0.2,0.3-0.3,0.5-0.3c0.1,0,0.2-0.1,0.3-0.1
	c0.3-0.1,0.7-0.2,1-0.2c0.2,0,0.4-0.1,0.7-0.1h0.1c0.1-0.1,0.3-0.1,0.5-0.2c0.1,0,0.1,0,0.2,0c0.1,0,0.2,0,0.3,0
	c0.4-0.1,0.8-0.2,1.2-0.3c0,0,0.1,0,0.1,0c0.2-0.1,0.4-0.1,0.6-0.1c0.4,0,0.7,0,1.1,0c0.2,0,0.4,0,0.5,0c0.3,0,0.6,0,0.9,0
	c0.2,0,0.4,0,0.7,0.1c0.2,0.1,0.3,0.1,0.5,0c0.3-0.1,0.5-0.1,0.8-0.1c0.1,0,0.2,0,0.3,0c0.1,0,0.1-0.1,0.1-0.2c0-0.1,0-0.2,0-0.3
	c0-0.1,0-0.2,0.1-0.3c0,0,0.1-0.1,0.1-0.1c0.1-0.1,0.2-0.3,0.2-0.5c0-0.3,0.1-0.5,0.1-0.8c0.1-0.3,0.2-0.6,0.3-0.9
	c0-0.1,0-0.1,0-0.2c0-0.3,0.1-0.5,0.2-0.8c0-0.1,0-0.1,0-0.2c0.1-0.5,0.2-0.9,0.3-1.3c0-0.2,0.1-0.4,0.1-0.6c0-0.1,0.1-0.3,0.1-0.4
	c0.1-0.1,0.1-0.3,0.1-0.4c0-0.1,0-0.1,0-0.2c0.1-0.2,0.1-0.4,0.1-0.6c0-0.2,0-0.4,0.1-0.7c0-0.3,0.1-0.5,0.2-0.8
	c0.1-0.3,0.1-0.6,0.1-0.9c0-0.3,0-0.6,0.1-0.9c0-0.1,0-0.1,0-0.2c0.1-0.1,0.1-0.3,0.1-0.4c0-0.2,0.1-0.4,0.2-0.5c0,0,0.1,0,0.1,0
	c0,0,0,0.1,0,0.1c0,0.1,0,0.3-0.1,0.4c-0.1,0.2-0.1,0.4,0,0.6c0,0.2,0,0.3,0,0.5c-0.1,0.1-0.1,0.3,0,0.4c0,0,0,0.1,0,0.1
	c0,0.2,0,0.3,0.1,0.5c0,0.1,0,0.1-0.1,0.1l0,0l-0.1-0.2c0,0-0.1,0.1-0.1,0.2c0,0,0,0.1,0,0.1l0,0v0.1l0,0c0,0.1,0,0.1,0,0.2
	c0,0.1,0,0.2,0,0.2c-0.1,0.1-0.1,0.1,0,0.2l0,0.1c0,0.2-0.1,0.3-0.3,0.4c0,0-0.1,0.1-0.1,0.1c-0.1,0.1-0.1,0.2,0,0.3l0.1,0.1
	c0,0,0,0.1,0,0.2c0,0,0,0,0,0c-0.1,0.1-0.1,0.3-0.1,0.4c0,0,0,0.1,0,0.1L25.5,15c-0.2,0.1-0.2,0.3-0.2,0.5c0,0.1,0,0.2,0,0.3
	c0,0,0,0.1,0,0.1c-0.1,0.1,0,0.1,0,0.2c0.1,0.1,0.1,0.3,0,0.5c0,0,0,0.1,0,0.1c0,0.2-0.1,0.4-0.1,0.6c0,0.1-0.1,0.2-0.2,0.3
	c0,0-0.1,0.1,0,0.1s-0.1,0.3-0.1,0.5s-0.1,0.2-0.2,0.4s0.1,0.1,0.1,0.1s0.1,0.2,0,0.3l0,0.1c0,0-0.1,0.1-0.1,0.1s0.1,0.1,0.1,0.1
	s0.1,0.1,0,0.2l0,0c0,0-0.1,0.1-0.1,0.1c0,0.1,0,0.1,0,0.2s-0.1,0-0.1-0.1l0,0l0,0c0.1,0.1,0.1,0.3,0.1,0.4c0,0.1,0,0.1,0,0.1
	c-0.2,0.2-0.2,0.4-0.1,0.7l0,0c-0.2,0-0.2,0.2-0.2,0.3c0,0,0,0.1,0,0.1c0.1,0.2,0.3,0.3,0.5,0.3c0.2,0.1,0.5,0.1,0.7,0.1
	c0.2,0,0.3,0,0.5,0c0.1,0,0.2,0,0.3,0.1c0.2,0.1,0.4,0.2,0.6,0.2c0.2,0,0.4,0.1,0.5,0.1c0.2,0.1,0.3,0.1,0.5,0.2
	c0.3,0.1,0.5,0.2,0.8,0.3c0.2,0,0.3,0.1,0.5,0.2c0.1,0,0.2,0.1,0.3,0.1c0.3,0.1,0.6,0.3,1,0.4c0.2,0.1,0.4,0.2,0.5,0.3
	c0.1,0,0.2,0.1,0.2,0.1c0.2,0.1,0.5,0.2,0.7,0.2c0.1,0,0.2,0.1,0.3,0.1c0.1,0.1,0.2,0.1,0.3,0.2c0.2,0.1,0.3,0.1,0.5,0.2
	c0,0,0.1,0,0.1,0.1c0.1,0.1,0.2,0.2,0.3,0.3l0.1,0.1c0.2,0.2,0.4,0.3,0.6,0.4c0.1,0,0.2,0.1,0.3,0.2c0.1,0.1,0.2,0.2,0.3,0.2
	c0.1,0,0.1,0,0.2,0s0.2-0.1,0.3-0.1c0.1,0,0.1,0,0.2,0.1c0,0.1,0.1,0.1,0.2,0.1s0,0,0,0.1l0,0l-0.2,0c0,0-0.1,0.1,0,0.1h-0.1l0,0
	h0.1c0,0,0.1,0,0.1,0c0,0,0,0.1,0,0.1c0,0,0,0.1,0.1,0.1c0.1,0.1,0.2,0.2,0.3,0.3c0.3,0.2,0.5,0.4,0.8,0.6c0.1,0,0.2,0.1,0.2,0.2
	c0,0.1,0.1,0.2,0.2,0.2c0.2,0.2,0.4,0.4,0.6,0.7c0,0.1,0.1,0.1,0.1,0.1c0.1,0.1,0.2,0.2,0.2,0.3c0.1,0.1,0.2,0.3,0.4,0.4
	c0.1,0.1,0.2,0.1,0.2,0.2s0.3,0.2,0.4,0.4l0.2,0.2c0,0,0.1,0,0.1,0c0,0,0-0.1,0-0.1c-0.1-0.2-0.1-0.5-0.2-0.7c0-0.1-0.1-0.1-0.1-0.2
	c0-0.1,0-0.2-0.1-0.3l-0.3-0.7c0,0,0-0.1,0-0.1c0-0.2-0.1-0.3-0.2-0.5c0,0,0-0.1,0-0.1c0-0.3-0.1-0.6-0.2-0.9
	c-0.2-0.4-0.3-0.8-0.2-1.2c0-0.1,0-0.1,0-0.2c-0.1-0.3-0.1-0.5-0.2-0.8c0,0,0-0.1,0-0.1c-0.1-0.2-0.1-0.5-0.1-0.7c0-0.1,0-0.2,0-0.3
	c0-0.1,0-0.2,0-0.3c0-0.3,0-0.7,0-1c0-0.3,0-0.6,0.1-0.9c0-0.2,0-0.4,0.1-0.7c0-0.1,0-0.1,0-0.2c0-0.1,0-0.3,0.1-0.4
	c0.1-0.2,0.2-0.5,0.2-0.7c0-0.2,0.1-0.3,0.1-0.5c0.1-0.2,0.1-0.4,0.2-0.6c0-0.2,0.1-0.5,0.1-0.8c0-0.1,0-0.1,0.1-0.2
	c0-0.1,0.1-0.2,0.2-0.3c0.1-0.1,0.1-0.3,0.1-0.5c0-0.3,0.1-0.6,0.2-0.8c0-0.1,0.1-0.1,0.1-0.1c0.1-0.1,0.1-0.1,0-0.2
	s-0.1-0.2-0.2-0.3c0-0.1-0.1-0.1-0.2-0.1l-0.9-0.5c-0.3-0.2-0.7-0.4-1.1-0.6l-0.9-0.5c-0.1,0-0.1-0.1-0.2-0.1
	c-0.1,0-0.2-0.1-0.3-0.2c-0.1-0.1-0.2-0.2-0.3-0.3c-0.1-0.1-0.2-0.1-0.3-0.1c-0.1,0-0.2-0.1-0.3-0.1c-0.1-0.1-0.2-0.2-0.3-0.2
	c-0.1,0-0.1-0.1-0.2-0.1c-0.2-0.2-0.3-0.3-0.5-0.4l-0.2-0.1c-0.3-0.3-0.6-0.5-1-0.6c-0.2-0.1-0.4-0.2-0.6-0.3l-0.7-0.4
	c-0.1,0-0.2,0-0.3-0.1l-0.8-0.4c-0.1,0-0.1-0.1-0.2-0.1c0,0,0-0.1,0-0.1c0,0,0.1,0,0.1,0l0.4,0.1c0.2,0.1,0.5,0.2,0.7,0.2h0
	c0.3,0.2,0.7,0.2,1,0.4c0.1,0,0.1,0.1,0.2,0.1c0.1,0.1,0.2,0.1,0.3,0.2c0.1,0.1,0.2,0.2,0.4,0.2c0.1,0,0.2,0.1,0.3,0.1
	c0.3,0.2,0.5,0.4,0.8,0.6c0.2,0.2,0.4,0.3,0.6,0.4c0.2,0.1,0.4,0.2,0.6,0.4c0.1,0.1,0.2,0.1,0.3,0.2c0.2,0.1,0.3,0.2,0.5,0.3
	c0.2,0.2,0.5,0.4,0.8,0.5c0.2,0.1,0.4,0.2,0.6,0.3s0.5,0.2,0.7,0.3s0.4,0.1,0.6,0.2c0.1,0,0.2,0.1,0.2,0.1c0.1,0,0.1,0.1,0.1,0.1
	c0,0,0,0,0,0c0,0.1,0,0.2,0.1,0.2h0.1c0.1,0,0.1,0,0.2,0.1c0,0.1,0.1,0.1,0.2,0.1c0,0,0,0,0,0c0.1,0,0.1-0.1,0.1-0.2
	c0-0.1,0-0.2,0-0.3c0,0,0-0.1,0-0.1c0.2-0.3,0.4-0.5,0.5-0.9l0.1-0.2c0.2-0.3,0.3-0.5,0.4-0.8c0-0.1,0.1-0.1,0.1-0.2
	c0.1-0.1,0.2-0.3,0.3-0.4c0.2-0.4,0.4-0.7,0.6-1c0.1-0.1,0.2-0.3,0.3-0.4c0.1-0.3,0.3-0.5,0.5-0.6c0.2-0.2,0.4-0.4,0.6-0.6
	c0.1-0.2,0.3-0.3,0.5-0.4c0.1,0,0.2-0.1,0.3-0.2c0.1-0.1,0.2-0.2,0.3-0.2c0.2-0.1,0.3-0.2,0.5-0.3c0.2-0.2,0.5-0.4,0.8-0.6
	c0.1-0.1,0.3-0.2,0.4-0.4c0.1-0.2,0.3-0.3,0.5-0.4l0.7-0.4C47.6,5.4,47.8,5.2,48,5c0.1-0.1,0.2-0.2,0.4-0.3L49,4.4
	c0.3-0.2,0.5-0.3,0.8-0.5s0.5-0.4,0.8-0.6s0.5-0.3,0.8-0.5c0.3-0.2,0.6-0.3,0.8-0.6C52.4,2.1,52.7,2,53,1.9c0.1,0,0.3,0,0.4,0
	c0.1,0,0.2,0,0.2,0.1c0,0,0,0.1,0,0.1c0,0.1,0.1,0.2,0.1,0.3C54,2.7,54.2,3,54.5,3.3s0.3,0.4,0.4,0.6C54.9,3.9,55,4,55,4
	c0.2,0.2,0.4,0.3,0.6,0.5c0.1,0.1,0.1,0.1,0.2,0.1c0.1,0,0.2,0.1,0.3,0.2c0.1,0.2,0.2,0.3,0.4,0.4c0,0,0.1,0.1,0.1,0.1
	c0.3,0.3,0.6,0.6,0.9,0.8c0.1,0,0.2,0.1,0.2,0.2c0.1,0.2,0.3,0.3,0.5,0.5c0.2,0.1,0.4,0.3,0.5,0.5c0,0,0.1,0.1,0.1,0.1
	c0.1,0.1,0.3,0.2,0.4,0.2c0.1,0,0.2,0,0.3,0.1c0.1,0,0.3,0.1,0.3,0.3c0,0.1,0.1,0.1,0.1,0.2l0.6,0.7l0,0.1c0.2,0.3,0.4,0.5,0.6,0.6
	c0.2,0.1,0.3,0.3,0.4,0.5c0,0,0,0.1,0.1,0.1c0.2,0.1,0.3,0.3,0.5,0.5c0.1,0.1,0.2,0.2,0.4,0.3c0.1,0,0.2,0.1,0.3,0.3
	c0.1,0.1,0.1,0.2,0.2,0.3c0.1,0.1,0.2,0.3,0.3,0.5c0.2,0.4,0.4,0.7,0.6,1.1c0.1,0.1,0.2,0.3,0.3,0.5c0.2,0.2,0.3,0.5,0.4,0.7
	c0,0,0,0.1,0.1,0.1c0.1,0.1,0.2,0.3,0.3,0.4c0,0,0.1,0.1,0.1,0.1c0,0.1,0.1,0.2,0.1,0.2c0.1,0.2,0.2,0.5,0.3,0.8
	c0,0.2,0.1,0.3,0.2,0.4C66,16.7,66,16.8,66,17c0,0.1,0,0.1,0,0.2c0,0.1,0,0.3,0.1,0.4c0,0.1,0,0.2,0,0.4c0,0.2,0,0.4,0.1,0.6
	c0,0,0,0.1,0,0.1c0,0.2,0,0.5,0,0.7s0,0.4,0,0.6c0,0.1,0,0.1,0,0.2c0,0.2,0.1,0.3,0.1,0.5c0,0.2,0.1,0.3,0.1,0.4
	c0.1,0.1,0.1,0.3,0.1,0.5c0,0.2,0,0.4,0,0.6c0,0.2-0.1,0.5-0.2,0.7c0,0.1-0.1,0.2-0.1,0.3c0,0,0,0.1,0,0.1c-0.1,0.1-0.1,0.3-0.1,0.4
	c0,0.4,0,0.8,0,1.2c0,0.3,0,0.5,0.1,0.8c0,0,0,0.1,0.1,0.1c0.1,0.1,0.2,0.3,0.2,0.4c0,0.1,0,0.2,0,0.3c0,0.1,0,0.1,0.1,0.1h0.1
	c0.1,0.1,0.1,0.1,0,0.2l-0.3,0.5c0,0,0,0.1,0,0.1c0,0,0.1,0,0.1,0c0.1-0.1,0.3-0.2,0.4-0.3c0.1-0.1,0.2-0.2,0.2-0.2
	c0.2-0.1,0.3-0.2,0.4-0.3c0.2-0.1,0.3-0.2,0.4-0.3c0.2-0.2,0.4-0.3,0.6-0.4c0.3-0.1,0.6-0.3,0.8-0.5c0.2-0.1,0.4-0.2,0.6-0.3
	c0.3-0.1,0.5-0.2,0.8-0.4c0.1-0.1,0.3-0.2,0.5-0.2h0.1c0.2-0.1,0.4-0.2,0.7-0.3l0.2-0.1c0.3-0.1,0.7-0.2,1-0.4h0.1
	c0.3-0.1,0.7-0.2,1-0.4c0.1,0,0.1-0.1,0.2-0.1c0.3,0,0.5-0.1,0.8-0.2c0.1,0,0.3-0.1,0.4-0.1c0.3-0.1,0.6-0.2,0.8-0.3
	c0.1,0,0.1-0.1,0.2-0.1c0.1,0,0.2,0,0.2,0.1c0.1,0.1,0.2,0.2,0.3,0.1h0.1c0.3,0.1,0.7,0.1,1,0h0.1c0.1,0.1,0.2,0,0.3-0.1l0,0l0,0
	c-0.1,0-0.1,0-0.2,0c-0.1,0-0.2,0-0.3-0.1c-0.2-0.1-0.2-0.1-0.1-0.3c0-0.1,0-0.1,0-0.2c-0.2-0.4-0.3-0.7-0.5-1.1
	c-0.1-0.3-0.2-0.5-0.2-0.8c0,0,0-0.1,0-0.1c-0.1-0.2-0.1-0.4-0.2-0.6c0-0.2-0.1-0.3-0.1-0.5C77,19.2,77,19,76.9,18.8
	c0-0.1,0-0.1,0-0.2c0-0.4-0.1-0.8-0.1-1.2c0,0,0-0.1,0-0.1c-0.1-0.4-0.1-0.8-0.1-1.1c-0.1-0.7-0.1-1.5-0.1-2.2c0-0.1,0-0.3-0.1-0.4
	c0-0.1,0-0.2,0-0.3c0.1-0.2,0.1-0.4,0-0.6c0-0.2-0.1-0.4-0.1-0.6c0-0.2,0-0.3-0.1-0.5c0-0.4,0-0.9,0-1.3c0-0.3,0-0.6-0.1-0.9
	c0-0.1,0-0.1,0-0.2c0-0.2,0.1-0.3,0.1-0.5c0,0,0-0.1,0-0.1c0.1-0.2,0.2-0.4,0.3-0.6l0.3-0.4c0-0.1,0.1-0.1,0.2-0.1
	c0.1,0,0.2,0.1,0.3,0.3c0,0.2,0,0.4,0,0.6c0,0.1,0,0.1,0,0.2c0,0.1,0,0.2,0,0.2c0,0.2,0,0.3,0.1,0.5c0,0.1,0,0.2,0,0.3
	c0,0.4,0.1,0.7,0.1,1c0,0.1,0,0.2,0,0.3c0,0.4,0,0.9,0.1,1.3c0,0.2,0,0.4,0,0.6c0,0.1,0,0.2,0,0.3c0,0.1,0,0.2,0,0.2
	c0,0.2,0,0.4,0.1,0.6c0,0.1,0,0.2,0,0.2c0,0.2,0,0.4,0,0.6c0,0,0,0.1,0,0.1c0.1,0.3,0.1,0.6,0.1,0.9c0,0.1,0,0.3,0.1,0.4
	c0.1,0.2,0.1,0.4,0.1,0.5c0,0.2,0,0.3,0.1,0.5c0,0,0,0.1,0,0.1c0,0.2,0.1,0.4,0.2,0.6c0.1,0.2,0.1,0.5,0.2,0.7s0.1,0.4,0.2,0.5
	s0.1,0.3,0.2,0.5c0,0.1,0,0.1,0.1,0.1c0.2,0.2,0.3,0.5,0.4,0.8c0.2,0.4,0.3,0.7,0.4,1.1c0.1,0.1,0.2,0.3,0.3,0.4
	c0.1,0.1,0.2,0.3,0.3,0.5c0.1,0.1,0.2,0.2,0.3,0.2c0.1,0,0.1,0,0.1,0.1s0.1,0.2,0.2,0.2c0.1,0,0.2,0.1,0.3,0.1
	c0.1,0.1,0.3,0.2,0.4,0.1c0.1,0,0.2,0,0.2,0.1c0.1,0,0.2,0.1,0.3,0.1c0.2,0.1,0.4,0.1,0.5,0.2c0.4,0.2,0.9,0.3,1.4,0.4
	c0.1,0,0.2,0,0.2,0.1c0.3,0.1,0.5,0.2,0.8,0.3c0.2,0,0.4,0.1,0.6,0.3l0,0c0.1,0.1,0.2,0.1,0.3,0.1c0.2,0,0.5,0,0.7,0.1
	c0.1,0,0.3-0.1,0.4-0.1c0.3,0,0.5,0.1,0.8,0.2c0.2,0.1,0.4,0.2,0.6,0.2c0.1,0,0.2,0.1,0.3,0.2v0.1c0.1,0.2,0.1,0.2,0.4,0.2h0.1
	c0-0.1-0.1-0.1-0.2-0.2l0,0c0,0-0.1,0-0.1,0l0,0c0,0-0.1-0.1,0-0.1H89c0.3,0,0.6,0.1,0.9,0.2C90,26,90.1,26,90.2,26
	c0.2,0.1,0.4,0.1,0.6,0.2l0,0c0.1,0,0.1,0,0.2,0c0.1,0,0.2,0,0.3,0c0.1,0,0.2,0,0.3,0.1l0.2,0.1c0.1,0.1,0.3,0.2,0.4,0.2
	c0.2,0,0.4,0.1,0.6,0.2c0,0,0.1,0.1,0.1,0.1c0,0,0,0.1,0,0.1c0,0.2,0,0.3,0.1,0.4c0.1,0.1,0.1,0.2,0.1,0.2c0,0,0,0.1,0,0.1
	c0,0.1,0,0.2,0,0.4c0,0.1,0,0.1,0,0.2c0,0.3,0,0.6,0,0.9c0,0.2,0,0.3-0.1,0.5c0,0.1,0,0.3,0,0.5c0.1,0.3,0.1,0.7,0,1
	c0,0.1,0,0.3,0,0.4c0,0.1,0,0.2,0,0.3c0,0.2,0,0.3,0.1,0.5c0,0.3,0.1,0.7,0.1,1c0,0.3,0,0.5,0,0.8c0,0.1,0,0.3,0.1,0.4
	c0,0.2,0.1,0.3,0.1,0.5c0,0.4,0,0.7,0,1.1c0,0.1,0,0.2-0.1,0.3c0,0.1-0.1,0.2-0.1,0.3c0,0.2-0.1,0.4-0.2,0.5
	c-0.1,0.1-0.1,0.3-0.1,0.4c0,0.2,0,0.5,0,0.7c0,0.1,0,0.2-0.1,0.3c0,0.1,0,0.1,0,0.2c0,0.2-0.1,0.5-0.1,0.7c0,0.2-0.1,0.3-0.1,0.5
	c-0.1,0.3-0.2,0.6-0.2,0.8c0,0.2-0.1,0.4-0.2,0.6c-0.1,0.3-0.2,0.5-0.3,0.8c0,0,0,0.1,0,0.1c-0.2,0.3-0.3,0.7-0.5,1
	c-0.1,0.2-0.2,0.4-0.4,0.5C91,44,90.9,44,90.9,44.2c0,0.1-0.1,0.2-0.2,0.3c-0.1,0.1-0.2,0.2-0.3,0.3c-0.1,0.1-0.1,0.2-0.1,0.3
	c0,0,0,0.1,0,0.1c0,0,0,0,0,0.1s-0.1,0-0.1,0c0,0-0.1-0.1-0.2-0.1c-0.1,0-0.2,0-0.2,0.1c-0.1,0.1-0.2,0.2-0.4,0.2
	c-0.1,0-0.2,0-0.3,0.1c0,0,0,0-0.1,0c-0.2,0.1-0.4,0.2-0.5,0.4l0,0c-0.1,0.2-0.1,0.4-0.2,0.6c0,0.1-0.1,0.2-0.1,0.2
	c-0.1,0.3-0.3,0.6-0.4,0.9c0,0.1-0.1,0.2-0.2,0.2c-0.2,0.1-0.3,0.3-0.4,0.5c-0.2,0.1-0.4,0.4-0.6,0.5s-0.6,0.4-0.8,0.6
	c-0.1,0.1-0.2,0.2-0.3,0.3c-0.2,0-0.3,0.1-0.4,0.2c-0.3,0.1-0.6,0.3-0.9,0.5c-0.1,0.1-0.3,0.1-0.4,0.1c-0.2,0-0.3,0-0.4,0.2
	c-0.2,0.2-0.4,0.3-0.7,0.3c-0.2,0.1-0.3,0-0.5,0.1h-0.1c-0.1-0.1-0.2,0-0.3,0.1c0,0-0.1,0-0.1,0c-0.2,0-0.5,0-0.7,0.1
	c0,0-0.1,0-0.1,0.1c-0.1,0.1-0.2,0.3-0.3,0.3c-0.1,0-0.1,0.1-0.1,0.2c0,0,0,0,0,0l0,0c-0.1,0.1-0.2,0.1-0.3,0s-0.2-0.1-0.2-0.2l0,0
	c0-0.1-0.1,0-0.1-0.1s0-0.1,0-0.2s0,0-0.1,0c0,0-0.1,0-0.1,0.1c0,0,0,0.1,0,0.1c0,0.1,0,0.1-0.1,0.1s-0.1,0-0.1-0.1l-0.1-0.1l0,0
	l0.1-0.1c0,0,0,0,0-0.1c0,0-0.1,0-0.1,0c-0.2,0-0.3,0.1-0.4,0.1c-0.1,0-0.2,0.1-0.4,0.1c-0.1,0-0.2,0-0.3,0c0,0,0,0.1,0,0.1
	c0.1,0.1,0.2,0.2,0.4,0.2c0,0,0.1,0,0.1,0.1h0.3c0.1,0.1,0.3,0.2,0.4,0.3c0.1,0.1,0.3,0.1,0.3,0.2s0.1,0.1,0.1,0.1l0.3,0.2l0.2,0.1
	c0.1,0,0,0.1,0,0.2h-0.1c0,0.1,0.1,0.1,0.1,0.1s0.1,0,0.1,0s0,0,0-0.1c0,0,0.1-0.1,0.1-0.1c0.1,0,0.1,0,0.2,0.1
	c0.2,0.1,0.4,0.3,0.6,0.5c0.1,0.1,0.3,0.2,0.5,0.3c0.1,0,0.1,0.1,0.2,0.1c0,0.1,0.1,0.1,0.2,0.1c0.2,0,0.5,0.2,0.6,0.4
	c0.2,0.3,0.5,0.5,0.8,0.7l0.2,0.1c0.3,0.3,0.6,0.5,1,0.7c0.2,0.1,0.4,0.3,0.5,0.5c0,0,0,0.1,0.1,0.1c0.1,0.1,0.2,0.2,0.3,0.2
	c0.1,0.1,0.2,0.1,0.1,0.2c0,0,0,0.1,0,0.1c0.1,0.1,0.2,0.2,0.3,0.3c0.1,0.1,0.1,0.1,0.2,0.2c0.1,0.1,0.1,0.1,0.2,0.2
	c0.2,0.1,0.3,0.3,0.5,0.4c0.1,0.1,0.2,0.2,0.4,0.3c0,0,0.1,0,0.1,0c0,0,0-0.1,0-0.1c-0.1-0.2-0.2-0.4-0.4-0.5
	c-0.3-0.2-0.5-0.4-0.8-0.6c-0.1,0-0.1-0.1-0.2-0.1c0,0-0.1-0.1-0.1-0.2s0.1,0,0.2,0c0.2,0,0.3,0.1,0.4,0.2c0.2,0.2,0.4,0.3,0.6,0.5
	c0,0,0.1,0.1,0.1,0.1c0.1,0.2,0.3,0.3,0.4,0.4c0.1,0.1,0.2,0,0.3-0.1c0-0.1,0.1-0.1,0.1-0.2c0.1-0.2,0.2-0.3,0.4-0.4
	c0.1-0.1,0.2-0.2,0.3-0.2c0.1-0.1,0.3-0.2,0.4-0.3c0.1,0,0.2-0.1,0.2-0.2c0-0.1,0.1-0.1,0.2-0.1c0.1,0,0.1,0,0.2-0.1
	c0.2-0.1,0.3-0.3,0.5-0.4c0.4-0.4,0.9-0.8,1.4-1.2c0.4-0.3,0.8-0.5,1.1-0.8c0.1-0.1,0.2-0.1,0.3-0.2c0.1-0.1,0.3-0.2,0.4-0.2
	c0.2-0.2,0.3-0.3,0.5-0.5c0.3-0.3,0.6-0.5,0.9-0.8c0.2-0.1,0.4-0.2,0.6-0.2c0.1,0,0.2,0,0.3-0.1c0.2-0.1,0.3-0.3,0.3-0.5
	c0-0.1,0-0.2,0.1-0.2c0-0.1,0-0.2,0-0.3c-0.1-0.2-0.1-0.5-0.1-0.7c0,0,0-0.1,0.1-0.1c0,0,0,0,0,0c0,0,0.1,0.1,0.1,0.1
	c0.2,0.2,0.3,0.3,0.5,0.5c0.1,0.1,0.1,0.3,0.1,0.4c-0.1,0.2-0.2,0.4-0.3,0.6c-0.1,0.2-0.2,0.4-0.3,0.6c0,0,0,0.1-0.1,0.1
	c-0.1,0.2-0.3,0.5-0.5,0.7c-0.1,0.1-0.1,0.2-0.2,0.3c-0.1,0.3-0.3,0.5-0.6,0.7c0,0-0.1,0-0.1,0.1c-0.2,0.2-0.4,0.4-0.7,0.6l-0.4,0.3
	c-0.2,0.2-0.4,0.4-0.6,0.5l0,0c-0.3,0.4-0.7,0.7-0.9,1.1c-0.1,0.1-0.1,0.2-0.2,0.2c-0.1,0.1-0.2,0.2-0.2,0.3
	c-0.1,0.1-0.2,0.2-0.3,0.3c-0.2,0.2-0.3,0.4-0.4,0.6c0,0,0,0.1-0.1,0.1c-0.2,0.1-0.2,0.3-0.3,0.5c0,0.1,0,0.2,0,0.3
	c0,0.1,0.1,0.3,0.2,0.4c0.1,0.1,0.2,0.3,0.3,0.5c0,0.1,0.1,0.1,0.1,0.2c0.3,0.3,0.5,0.6,0.8,1c0,0,0,0,0,0.1
	c0.2,0.2,0.3,0.4,0.4,0.6c0,0,0.1,0.1,0.1,0.1c0.1,0.1,0.1,0.3,0.2,0.4c0.2,0.3,0.4,0.7,0.5,1c0.1,0.2,0.1,0.4,0.2,0.7
	s0.2,0.6,0.3,0.8c0.1,0.1,0.1,0.3,0.1,0.4c0,0.1,0,0.2,0.1,0.3c0,0.1,0,0.2,0,0.2c0,0.3,0,0.7,0.1,1c0,0.1,0,0.2,0,0.3
	c0,0.2,0,0.4,0.1,0.6c0,0.1,0,0.2,0,0.3c0,0.2,0,0.4,0.1,0.6c0,0.1,0,0.2,0,0.3c0,0.2,0,0.4,0.1,0.6c0.1,0.2,0.1,0.4,0.1,0.7
	c0,0.1,0,0.2,0,0.3c0,0,0,0,0,0.1c0,0.3,0.1,0.7,0.1,1c0,0.2,0.1,0.4,0.2,0.6c0.1,0.1,0.1,0.2,0.1,0.3c0,0.1,0,0.2,0,0.3
	c0.1,0.2,0.2,0.5,0.2,0.7c0,0.1,0,0.2,0.1,0.3c0,0.1,0,0.1,0,0.2c0,0.2,0.1,0.5,0.2,0.7c0.1,0.2,0.1,0.4,0.2,0.6
	c0.1,0.4,0.3,0.7,0.4,1c0.2,0.2,0.2,0.5,0,0.6c0,0,0,0,0,0.1c-0.1,0.3-0.3,0.3-0.5,0.4c-0.1,0-0.1,0-0.2,0c-0.2,0-0.5,0-0.7,0.2
	c-0.1,0-0.2,0.1-0.2,0.1c-0.1,0-0.2,0-0.3,0.1c-0.1,0.1-0.3,0.2-0.5,0.1c-0.1,0-0.2,0-0.2,0.1c0,0.1-0.1,0-0.2,0
	c-0.1,0-0.2,0-0.3,0.1c0,0-0.1,0-0.1,0c-0.2,0-0.3,0.1-0.5,0.1c-0.3,0.1-0.7,0.2-1,0.3c-0.2,0.1-0.4,0.1-0.5,0.2
	c-0.1,0-0.1,0.1-0.2,0.1c-0.4,0.1-0.7,0.2-1.1,0.4c-0.1,0-0.1,0.1-0.2,0.1c-0.2,0.1-0.4,0.2-0.6,0.2c-0.1,0-0.2,0.1-0.3,0.1
	c-0.3,0.1-0.5,0.2-0.8,0.2c-0.2,0.1-0.4,0.1-0.6,0.2c-0.2,0.1-0.4,0.1-0.6,0.2c-0.1,0-0.2,0.1-0.3,0.1h-0.1c-0.3,0-0.6,0.2-0.8,0.2
	c-0.1,0-0.3,0.1-0.4,0.2c-0.2,0.1-0.4,0.2-0.6,0.2c-0.1,0-0.3,0.1-0.4,0.1c-0.2,0.1-0.5,0.2-0.8,0.3c-0.1,0-0.1,0-0.2,0
	c-0.1,0-0.1,0-0.2,0c-0.2,0.1-0.4,0.1-0.6,0.1c-0.2,0-0.4,0-0.6,0c-0.1,0-0.1,0-0.2,0c-0.2,0.1-0.5,0.1-0.8,0.1c-0.2,0-0.4,0-0.7,0
	c-0.1,0-0.2,0-0.3,0c-0.1,0-0.1,0-0.2,0c-0.3,0.1-0.7,0-0.9-0.2c-0.1-0.1-0.3-0.1-0.4-0.1c-0.2,0-0.3,0-0.5-0.1c0,0-0.1,0-0.1,0
	c-0.1,0-0.2,0-0.3-0.1c-0.1-0.1-0.3-0.1-0.5-0.1c0,0-0.1,0.1-0.1,0.1c0,0.1,0,0.2,0,0.2c0,0.1,0,0.3-0.1,0.4c0,0,0,0.1,0,0.1
	c0,0.3,0,0.5,0,0.8c0,0.2,0,0.3,0,0.5c0,0.2,0,0.3,0,0.5c0,0,0,0.1,0,0.1c-0.1,0.4-0.1,0.8-0.1,1.2c0,0.5,0,1,0,1.4
	c0,0.1,0,0.1,0,0.2c-0.1,0.2-0.1,0.5-0.2,0.7c-0.1,0.2-0.1,0.5-0.1,0.7c0,0.2,0,0.3-0.1,0.5c-0.1,0.3-0.1,0.6-0.1,0.9
	c0,0.1,0,0.1,0,0.2c0,0.1,0,0.2,0,0.2c0,0.1,0,0.3-0.1,0.4c-0.1,0.2-0.4,0.3-0.6,0.2c-0.1-0.1-0.3-0.2-0.4-0.3c0,0,0-0.1,0-0.2
	c0.2-0.2,0.2-0.4,0.2-0.6c0-0.5,0-1,0.1-1.5c0-0.1,0-0.3,0.1-0.4c0-0.1,0-0.3,0-0.4s0-0.4,0-0.6c0-0.1,0-0.2-0.1-0.3
	c0-0.1,0-0.2,0-0.3c0.1-0.2,0.1-0.5,0.1-0.7c0-0.3,0-0.7,0-1c0-0.1,0-0.2,0-0.3c-0.1-0.2-0.1-0.5-0.1-0.7c0-0.1,0-0.3-0.1-0.4
	c0-0.1-0.1-0.3-0.1-0.4c0-0.6,0-1.2,0-1.8c0-0.1,0-0.2,0-0.3c0,0,0-0.1,0-0.1c0.1-0.2,0-0.3,0-0.5c0-0.1-0.1-0.2-0.1-0.2
	c-0.4-0.2-0.8-0.5-1.2-0.7l-0.5-0.2c-0.1-0.1-0.2-0.1-0.3-0.1c-0.2-0.1-0.3-0.1-0.5-0.2c-0.2-0.1-0.4-0.2-0.6-0.4
	c-0.3-0.2-0.6-0.4-0.9-0.5c-0.1,0-0.1-0.1-0.1-0.1c0-0.1-0.1-0.2-0.2-0.3c-0.2-0.2-0.4-0.4-0.7-0.6l-0.1-0.1c-0.4-0.3-0.8-0.6-1.1-1
	l0,0c-0.2-0.1-0.3-0.2-0.5-0.3c-0.1-0.1-0.3-0.2-0.4-0.3c-0.2-0.1-0.3-0.2-0.5-0.3c-0.2-0.2-0.4-0.3-0.6-0.5
	c-0.1-0.1-0.2-0.2-0.3-0.2c-0.3-0.1-0.5-0.3-0.7-0.5c-0.1-0.1-0.3-0.2-0.5-0.3c-0.1,0-0.1,0-0.1-0.1c-0.1-0.1-0.2-0.2-0.3-0.3
	c-0.1,0-0.1-0.1-0.1-0.2c0-0.1,0-0.1-0.1-0.2c-0.1-0.1-0.3-0.2-0.4-0.3c-0.1-0.1-0.2-0.1-0.3-0.1c-0.1,0-0.1,0-0.2,0l0,0
	c0-0.1-0.1-0.3-0.3-0.3c0,0,0,0-0.1,0c0,0-0.1,0-0.1,0c0,0,0,0.1,0,0.1c0,0,0,0.1,0,0.1c0.1,0.2,0.2,0.5,0.3,0.7
	c0,0.1,0.1,0.1,0.1,0.2c0.1,0.1,0.1,0.2,0,0.3c0,0,0,0.1,0,0.1c0.1,0.3,0.2,0.6,0.3,0.9s0.2,0.8,0.4,1.1c0,0.1,0,0.1,0,0.2
	c0,0.2,0.1,0.5,0.2,0.7c0,0.1,0.1,0.1,0.1,0.2c0.1,0.5,0.3,1,0.5,1.4c0,0,0,0.1,0,0.1c0.1,0.3,0.1,0.5,0.2,0.7c0,0,0,0.1,0,0.1
	c0,0.3,0.1,0.5,0.3,0.8c0,0.1,0,0.1,0,0.2c0,0.1,0,0.3,0.1,0.4c0.1,0.3,0.2,0.5,0.2,0.8c0,0,0,0.1,0,0.1c0.1,0.2,0.1,0.4,0.2,0.6
	c0.1,0.3,0.2,0.6,0.3,0.8c0,0.1,0,0.1,0,0.2c0.1,0.2,0.1,0.5,0.1,0.7c0,0.1,0,0.2,0.1,0.2c0.1,0.2,0.2,0.4,0.2,0.6
	c0,0.1,0,0.2,0,0.2c-0.1,0.2-0.1,0.3-0.1,0.5c0,0.2,0,0.5,0.1,0.7c0.1,0,0.2,0.1,0.3,0.2c0,0.1,0,0.2,0.1,0.3c0,0.1,0,0.2,0,0.3
	c0,0.1,0,0.3,0,0.4c0,0.1,0.1,0.3,0.3,0.3c0.1,0,0.1,0.1,0.2,0.1c0.2,0,0.3,0.1,0.4,0.2c0.2,0.1,0.3,0.3,0.4,0.4l-0.1,0.1
	c-0.1,0.1-0.2,0.3-0.1,0.5c0,0.2,0,0.4-0.2,0.6c-0.1,0.1-0.2,0.3-0.2,0.4c-0.1,0.4-0.4,0.8-0.7,1.1c-0.4,0.4-0.7,0.7-1,1.2
	c-0.1,0.2-0.3,0.3-0.5,0.5c-0.1,0.1-0.3,0.2-0.4,0.2c-0.1,0-0.2,0.1-0.2,0.2c0,0,0,0.1,0,0.2c-0.2,0.2-0.4,0.4-0.7,0.6
	c-0.1,0.1-0.3,0.2-0.4,0.2c-0.1,0-0.3,0.1-0.4,0.2l-0.4,0.3l-0.6,0.4l-0.7,0.4c-0.1,0-0.1,0.1-0.2,0.1c-0.1,0.1-0.3,0.2-0.5,0.3
	c-0.1,0-0.1,0.1-0.2,0.1c-0.1,0.2-0.3,0.3-0.5,0.4c-0.2,0.1-0.4,0.2-0.6,0.3c-0.1,0-0.2,0.1-0.3,0.2c-0.2,0.1-0.4,0.3-0.6,0.4
	c0,0-0.1,0-0.1,0c-0.2,0-0.4,0.1-0.5,0.2c-0.4,0.1-0.7,0.4-1,0.5s-0.5,0.2-0.8,0.3c-0.2,0.1-0.4,0.1-0.5,0.2
	c-0.3,0.1-0.5,0.2-0.8,0.3c-0.2,0.1-0.5,0.3-0.7,0.4s-0.5,0.2-0.8,0.3c-0.1,0-0.2,0.1-0.3,0.1c-0.3,0.1-0.6,0.1-0.8,0.2
	c-0.2,0-0.4,0-0.6-0.1c-0.2-0.1-0.5-0.1-0.7,0c-0.1,0-0.3,0-0.4,0c-0.3,0-0.6-0.1-0.8-0.3c-0.6-0.4-1.3-0.7-2-1.1
	c-0.3-0.1-0.6-0.3-0.9-0.5c-0.2-0.1-0.3-0.3-0.5-0.4c-0.4-0.3-0.8-0.7-1.2-0.9c-0.1-0.1-0.2-0.2-0.3-0.2l-1.2-1
	c-0.5-0.4-1-0.9-1.4-1.4L41.8,92c-0.2-0.2-0.3-0.4-0.5-0.6c-0.2-0.3-0.4-0.6-0.6-0.9c0-0.1-0.1-0.1-0.2-0.2
	c-0.1-0.1-0.2-0.3-0.3-0.4c-0.1-0.3-0.2-0.6-0.4-0.8c-0.1-0.2-0.3-0.4-0.4-0.5s-0.3-0.3-0.5-0.2l-0.4,0.1c-0.1,0-0.2,0.1-0.3,0.2
	c-0.1,0.1-0.2,0.1-0.3,0.2c-0.2,0-0.3,0.1-0.5,0.2c0,0-0.1,0-0.1,0c-0.3,0-0.6,0.1-0.8,0.2c-0.4,0.1-0.8,0.2-1.1,0.4
	c-0.2,0.1-0.3,0.1-0.5,0.2c-0.2,0-0.4,0.1-0.5,0.2c-0.1,0.1-0.3,0.1-0.4,0.1c-0.2,0.1-0.5,0.1-0.7,0.1c-0.1,0-0.2,0-0.3,0.1h-0.1
	c-0.3,0-0.6,0.1-0.9,0.2c-0.3,0.1-0.5,0.2-0.7,0.3c-0.4,0.2-0.7,0.3-1,0.5l-0.1,0.1c-0.3,0.2-0.6,0.3-0.9,0.5
	c-0.1,0-0.2,0.1-0.2,0.1c-0.5,0.3-1,0.6-1.4,0.9c-0.3,0.2-0.6,0.4-0.8,0.7c-0.1,0.1-0.3,0.2-0.4,0.3c-0.1,0-0.2,0.1-0.2,0.2
	c0,0.1,0,0.3,0,0.4s-0.1,0.2-0.3,0.1c-0.3-0.2-0.4-0.3-0.2-0.7c0.1-0.2,0.1-0.3,0-0.5c0-0.2-0.1-0.4-0.1-0.7c0-0.1,0-0.2-0.1-0.3
	l0,0c0-0.4-0.2-0.8-0.1-1.2c0-0.1,0-0.1,0-0.2c-0.1-0.2-0.1-0.3-0.1-0.5c0-0.1,0-0.1,0-0.2c-0.1-0.2-0.1-0.3,0-0.5
	c0-0.1,0-0.1,0-0.2c0-0.3,0-0.7,0-1c0-0.1,0-0.3-0.1-0.4C25,88,25,87.8,25,87.6c0-0.2,0-0.4,0-0.6c0-0.2,0-0.3,0-0.5
	c0-0.1,0-0.2,0-0.3c0-0.1,0-0.2,0-0.3c0-0.4,0-0.7-0.1-1.1c0-0.1,0-0.1,0-0.2c0-0.3,0-0.5-0.1-0.8c0,0,0-0.1,0-0.1
	c0.1-0.3,0.1-0.6,0.1-0.9c0-0.1,0-0.1,0-0.2c0-0.1,0-0.1,0.1-0.2c0-0.1,0.1-0.1,0.2,0c0,0,0,0,0,0c0,0,0.1,0.1,0.1,0.1
	c0,0.2,0.1,0.4,0.2,0.6c0,0.1,0.1,0.3,0.1,0.5c0,0.2,0,0.4,0,0.6c0,0.2,0,0.3,0.1,0.5c0.1,0.3,0.1,0.6,0.1,0.9c0,0,0,0.1,0,0.1
	c0,0.1,0,0.3,0,0.4c0.1,0.4,0.1,0.8,0.1,1.2c0,0.3,0,0.6,0,0.8c0,0.1,0,0.3,0.1,0.4c0.1,0.2,0.1,0.3,0.1,0.5c0,0.1,0,0.3,0.1,0.4
	c0,0.2,0.1,0.4,0.1,0.6c0,0.3,0,0.6,0,0.8c0,0.1,0,0.1,0.1,0.2c0.1,0.1,0.1,0.3,0.1,0.4c0,0.2,0,0.3,0,0.5c0,0.1,0,0.1,0,0.2
	c-0.1,0.2-0.1,0.3-0.2,0.5s0,0.1,0.1,0.1c0.2,0,0.4-0.1,0.5-0.3c0.1-0.1,0.2-0.2,0.3-0.3c0.2-0.1,0.4-0.2,0.5-0.4
	c0.4-0.4,0.9-0.7,1.3-1c0.2-0.1,0.3-0.3,0.5-0.4c0.2-0.1,0.4-0.2,0.5-0.3c0.3-0.2,0.7-0.5,1-0.7c0.1-0.1,0.2-0.2,0.4-0.2
	c0.1-0.1,0.2-0.1,0.3-0.2c0.1-0.1,0.2-0.1,0.3-0.1c0.3-0.1,0.6-0.2,0.9-0.4c0.2-0.1,0.3-0.2,0.5-0.2l0.8-0.3
	c0.2-0.1,0.4-0.2,0.5-0.3c0.1-0.1,0.2-0.1,0.3-0.1c0.1,0,0.2-0.1,0.3-0.2c0,0,0,0.1,0,0.1c0.2,0.1,0.4,0,0.5-0.2l0,0
	c0.1-0.2,0.3-0.4,0.6-0.4c0.2-0.1,0.4-0.2,0.6-0.3c0.2-0.1,0.5-0.3,0.7-0.4c0.1-0.1,0.3-0.1,0.4-0.2c0.1,0,0.2-0.1,0.2-0.2
	c0-0.1,0-0.2,0-0.3c0,0,0-0.1-0.1-0.1c-0.1-0.2-0.2-0.4-0.3-0.7c0-0.1-0.1-0.2-0.1-0.3c-0.1-0.3-0.1-0.6-0.2-0.8
	c0-0.1-0.1-0.2-0.1-0.4c-0.1-0.1-0.1-0.2-0.1-0.4c0-0.3-0.1-0.5-0.1-0.8c0-0.1-0.1-0.3-0.1-0.4c0-0.1-0.1-0.2-0.1-0.3
	c0-0.2,0-0.3-0.1-0.5c0,0,0-0.1,0-0.1c0-0.3-0.1-0.6-0.2-0.9s0-0.4-0.1-0.6c0-0.1-0.1-0.3-0.2-0.3c-0.1-0.1-0.1-0.1-0.1-0.2
	c0-0.1,0-0.2,0-0.2c0-0.1,0-0.1,0-0.2l0,0c0,0,0,0,0.1,0s0.1,0,0.1,0s0-0.1,0-0.2c0-0.1,0-0.3,0.1-0.4c0-0.1,0-0.3,0-0.4
	c0-0.2,0-0.3,0-0.5c0-0.1,0-0.1,0-0.2c0-0.1,0-0.1,0-0.2c-0.1-0.2-0.1-0.3,0-0.5c0.1-0.2,0.2-0.5,0.1-0.8c0-0.2,0-0.5,0-0.7
	c0-0.2,0-0.4,0.1-0.6c0-0.1,0.1-0.2,0-0.3c0,0,0-0.1,0-0.2c0-0.1,0.1-0.2,0.1-0.2c0.1-0.2,0.1-0.3,0-0.5c0,0-0.1-0.1-0.1,0
	c0,0-0.1,0.1-0.1,0.1c0,0.2-0.1,0.3-0.3,0.5c-0.1,0.1-0.2,0.2-0.2,0.3c-0.1,0.2-0.3,0.4-0.5,0.5l-0.1,0.1c-0.3,0.3-0.6,0.5-0.9,0.8
	c-0.1,0.1-0.1,0.1-0.2,0.2c-0.1,0-0.1,0.1-0.1,0.1l0,0c-0.1,0-0.3,0.1-0.4,0.2l-0.7,0.5c0,0-0.1,0-0.1,0c-0.1,0-0.3,0.1-0.3,0.2
	c0,0.1-0.1,0.1-0.2,0.1c-0.2,0-0.3,0.1-0.4,0.2c-0.1,0.2-0.2,0.3-0.3,0.4l0,0v-0.1c0,0-0.2,0.1-0.3,0.1s0,0-0.1,0.1s0,0.1-0.1,0.1
	c-0.1,0.1-0.2,0.1-0.3,0.2l0,0c-0.2,0.1-0.3,0.2-0.5,0.3c-0.1,0.1-0.1,0.1-0.2,0.1c0,0-0.1,0-0.1,0c-0.2,0.1-0.3,0.2-0.5,0.3
	c-0.2,0.1-0.4,0.2-0.5,0.3s-0.2,0.1-0.3,0.1c-0.1,0.1-0.2,0.1-0.4,0.2c-0.1,0.1-0.2,0.1-0.3,0.1c-0.1,0-0.2,0.1-0.4,0.2
	c-0.2,0.1-0.5,0.2-0.7,0.3c0,0-0.1,0-0.1,0c-0.4,0.2-0.8,0.3-1.2,0.3c-0.3,0.1-0.6,0.2-0.8,0.3c-0.1,0-0.1,0.1-0.1,0.1
	c-0.1,0.2-0.2,0.3-0.3,0.5c-0.1,0.1-0.3,0.2-0.5,0.2h0c-0.3-0.1-0.5-0.1-0.8-0.1c-0.2,0-0.4,0-0.6,0h0c-0.1,0.1-0.3,0.1-0.5,0.2
	c-0.1,0-0.1,0-0.2,0c-0.4-0.1-0.7-0.1-1.1-0.1c-0.3,0-0.7-0.1-1-0.2c0,0-0.1,0-0.1-0.1c-0.2-0.1-0.5-0.1-0.8-0.1
	c-0.1,0-0.2,0-0.4-0.1c-0.3-0.1-0.5-0.1-0.8-0.2h-0.1c-0.2,0-0.3-0.1-0.5-0.2c0,0-0.1-0.1-0.1-0.1c-0.4,0-0.7-0.1-1-0.3
	c-0.3-0.2-0.5-0.3-0.8-0.3C15.4,79.2,15.3,79.2,15.1,79.2L15.1,79.2z M43.9,93.7L43.9,93.7L43.9,93.7L43.9,93.7L43.9,93.7L43.9,93.7
	L43.9,93.7z M56.3,63.2L56.3,63.2z M57.3,92.7L57.3,92.7L57.3,92.7l0.2-0.1l0,0l0,0l0,0c0,0,0,0,0,0.1
	C57.4,92.7,57.3,92.7,57.3,92.7L57.3,92.7z M80.3,51.7L80.3,51.7c0.1,0.1,0.2,0.1,0.3,0.1c0,0,0-0.1,0-0.1c0,0-0.1,0-0.1,0
	L80.3,51.7L80.3,51.7L80.3,51.7L80.3,51.7z M60.4,10C60.4,10,60.4,9.9,60.4,10C60.4,9.9,60.4,9.9,60.4,10L60.4,10
	c0,0,0.1,0.1,0.2,0.1v0.2c0,0.1,0.1,0.2,0.2,0.3c0,0,0,0,0.1,0c0,0,0,0,0-0.1c0-0.1,0-0.2-0.1-0.2c0,0-0.1,0-0.1,0v-0.2
	C60.5,10.2,60.5,10.1,60.4,10z M59.3,40.9L59.3,40.9c0,0,0-0.1,0-0.1l0,0l0,0C59.3,40.8,59.3,40.9,59.3,40.9
	C59.3,40.9,59.3,40.9,59.3,40.9z M77.5,13.5L77.5,13.5L77.5,13.5C77.5,13.5,77.5,13.5,77.5,13.5c0,0.1,0.1,0.1,0.1,0.1c0,0,0,0,0,0
	l0,0C77.6,13.5,77.5,13.5,77.5,13.5L77.5,13.5z M81.8,68.6C81.8,68.6,81.8,68.6,81.8,68.6c0,0.1,0,0.1,0,0.1l0,0h-0.1
	c-0.1,0-0.1-0.2-0.2-0.2l0,0l0,0C81.6,68.5,81.7,68.6,81.8,68.6z M77.7,78.3L77.7,78.3C77.7,78.3,77.7,78.4,77.7,78.3
	c0.2,0.1,0.4,0.1,0.6,0.1C78.1,78.4,77.9,78.3,77.7,78.3z M59.9,52.9c-0.1,0-0.2,0-0.2,0.1l-0.2,0.3c0,0,0,0.1,0,0.1
	c0,0,0,0.1,0,0.1c0,0,0.1,0,0.1,0l0,0c0-0.2,0.1-0.3,0.2-0.4C59.9,53.1,59.9,53,59.9,52.9L59.9,52.9L59.9,52.9z M22.1,48.4
	L22.1,48.4c0,0.1,0,0.2,0.1,0.2c0.1,0,0.2,0.1,0.3,0.2l0,0.1C22.7,49,22.9,49,23,49c0.1,0,0.1,0,0.1,0.1c0.1,0.1,0.2,0.1,0.4,0.1
	c0.1,0,0.2,0,0.2-0.1c0,0,0-0.1,0-0.1s-0.3-0.3-0.5-0.3s-0.2-0.1-0.3-0.1s-0.2,0.1-0.3,0.1c0.1,0,0.1-0.1,0.1-0.2
	c0-0.1-0.1-0.2-0.1-0.2c-0.1-0.1-0.2-0.1-0.3-0.1c-0.1,0-0.2,0-0.2,0.1S22.1,48.4,22.1,48.4z M43,92.9c0,0.1,0,0.1,0,0.2
	c0.1,0.1,0.2,0.2,0.3,0.2l0,0l0,0c-0.1-0.2-0.2-0.4-0.4-0.4c0-0.1,0-0.2,0-0.2c-0.1-0.2-0.3-0.3-0.4-0.5s-0.4-0.3-0.5-0.5
	c0,0,0,0-0.1,0l0,0c0,0,0,0.1,0,0.1c0.1,0.1,0.2,0.2,0.3,0.4s0.4,0.4,0.5,0.6c0,0.1,0.1,0.1,0.1,0.2C42.8,93,42.9,93,43,92.9
	C43,92.9,43,92.9,43,92.9z M79.3,78.4L79.3,78.4c-0.1,0.1-0.2,0-0.3,0.1l0,0l0,0c0.2,0.1,0.3,0.1,0.5,0.1h0.6h0.7c0,0,0.1,0,0.1,0
	c0,0,0,0-0.1-0.1h-0.8C79.8,78.5,79.6,78.5,79.3,78.4z M89.7,76.4c0.1,0,0.1-0.1,0.2-0.1c0.2,0,0.4-0.1,0.6-0.3
	c0.1-0.1,0.2-0.1,0.4-0.2c0.2-0.1,0.5-0.2,0.7-0.3c0.2-0.1,0.3-0.2,0.5-0.3c0.2-0.1,0.5-0.2,0.7-0.3c0.1,0,0.2-0.1,0.2-0.2
	c0,0,0-0.1,0-0.1c0,0-0.1-0.1-0.1,0s-0.4,0.1-0.5,0.2c0,0-0.1,0.1-0.2,0.1c-0.1,0-0.2,0.1-0.2,0.1c-0.1,0.1-0.2,0.1-0.3,0.1
	l-0.4,0.2c-0.1,0.1-0.2,0.1-0.3,0.2c-0.1,0-0.2,0.1-0.3,0.2c-0.1,0.1-0.3,0.2-0.4,0.2c-0.1,0-0.2,0.1-0.3,0.2
	c-0.1,0.1-0.1,0.1-0.2,0.1C89.7,76.3,89.7,76.3,89.7,76.4L89.7,76.4L89.7,76.4z M46,59.8L46,59.8c-0.1,0-0.1-0.1-0.2-0.1
	s-0.1,0.1-0.1,0.2c0,0.1,0,0.1,0,0.2c0,0,0,0,0,0c0.1,0,0.2,0.1,0.2,0.1c0,0,0.1,0.1,0,0.1c-0.1,0.1-0.1,0.2,0,0.2v0.1
	c0,0-0.1,0.3-0.1,0.4c-0.1,0.1-0.1,0.3,0,0.5c0.1,0.1,0.1,0.2,0.3,0.3s0.1,0.1,0.1,0.1s0.1,0.1,0.2,0.1s0-0.1,0-0.2s0-0.1,0-0.1
	c0-0.3-0.1-0.6-0.1-0.8s-0.1-0.7-0.1-1c0-0.1,0-0.1-0.1-0.2S46,59.6,46,59.8L46,59.8z M26.5,75.6c0.1,0,0.2,0,0.3-0.1
	c0.3-0.1,0.6-0.2,0.8-0.3c0.2-0.1,0.4-0.2,0.7-0.2c0.1,0,0.3-0.1,0.4-0.1c0.2-0.1,0.3-0.1,0.5-0.2c0.3-0.1,0.6-0.2,0.8-0.3
	c0.1-0.1,0.3-0.2,0.5-0.2l0.6-0.2c0.2-0.1,0.4-0.1,0.5-0.2c0.1,0,0.1,0,0.2-0.1c0.3-0.2,0.6-0.3,0.8-0.4s0.5-0.3,0.7-0.4
	c0.1,0,0.1-0.1,0.1-0.2s-0.1-0.1-0.2,0l-0.1,0.1c-0.2,0.1-0.4,0.2-0.7,0.3l-0.5,0.2c-0.2,0.1-0.4,0.1-0.6,0.2c-0.1,0-0.3,0-0.4,0.1
	c-0.1,0-0.1,0.1-0.2,0.1c-0.2,0-0.3,0.1-0.4,0.2c-0.1,0.1-0.3,0.1-0.5,0.2l0,0c-0.1,0-0.1,0.1-0.2,0.1c-0.1,0-0.1,0-0.2,0.1
	l-0.9,0.4c-0.3,0.1-0.7,0.3-1,0.5c-0.1,0-0.1,0.1-0.2,0.1c-0.1,0-0.2,0-0.2,0.1c-0.2,0.1-0.3,0.2-0.5,0.3c-0.1,0-0.1,0.1-0.2,0.2
	C26.6,75.5,26.6,75.6,26.5,75.6L26.5,75.6z M87.9,40.7L87.9,40.7l0.3-0.5c0-0.1,0.1-0.1,0.2-0.1l0,0c0.1-0.1,0.2-0.2,0.2-0.3
	c0.1-0.2,0.2-0.3,0.3-0.4c0.2-0.2,0.4-0.4,0.5-0.7c0-0.1,0.1-0.1,0.1-0.2c0.2-0.3,0.4-0.6,0.6-0.9c0-0.1,0.1-0.2,0.1-0.2
	c0.1-0.2,0.2-0.4,0.2-0.7c0-0.2,0.1-0.3,0.2-0.5c0.1-0.1,0.1-0.2,0.2-0.4s0.2-0.5,0.3-0.8c0.1-0.2,0.2-0.5,0.2-0.7
	c0-0.2,0.1-0.4,0.1-0.6c0-0.2,0.1-0.3,0.1-0.4c0-0.1,0.1-0.2,0.1-0.3c0-0.3,0.1-0.7,0.2-1c0-0.1,0-0.2,0.1-0.3c0-0.1,0-0.1,0-0.2
	c0.1-0.2,0.1-0.3,0.1-0.5c0-0.2,0.1-0.4,0.1-0.6c0,0,0-0.1,0-0.1c0.1-0.2,0.1-0.4-0.1-0.6c-0.2,0.2-0.3,0.5-0.3,0.8
	c0,0.1-0.1,0.2-0.1,0.4c0,0.3-0.1,0.6-0.3,0.9c0,0.1,0,0.1,0,0.2c0,0.2,0,0.5-0.1,0.7c0,0.1,0,0.2,0,0.3c0,0.1,0,0.3-0.1,0.4
	c-0.1,0.1-0.1,0.2-0.1,0.3c0,0.3-0.1,0.5-0.3,0.7c0,0.1-0.1,0.1-0.1,0.2c0,0.1,0,0.2-0.1,0.3c-0.1,0.2-0.1,0.4-0.2,0.6
	c0,0.2-0.1,0.5-0.3,0.7c-0.1,0.1-0.1,0.2-0.1,0.3c0,0.1-0.1,0.2-0.1,0.3c-0.1,0.1-0.2,0.3-0.2,0.4c0,0.1-0.1,0.1-0.2,0.2
	c0,0-0.1,0-0.1,0c0,0,0-0.1,0-0.1c0.1-0.2,0.2-0.5,0.3-0.7c0,0,0-0.1,0-0.1l-0.1-0.2c0,0,0,0-0.1,0c0,0,0,0,0,0
	c-0.1,0.1-0.2,0.3-0.3,0.4l0,0c-0.1,0.2-0.2,0.4-0.3,0.7c0,0.1-0.1,0.2-0.1,0.3c-0.1,0.2-0.2,0.4-0.3,0.6c0,0,0,0.1-0.1,0.1
	l-0.1,0.2c-0.1,0.1-0.2,0.3-0.3,0.5c0,0,0,0,0,0.1c0,0,0.1,0,0.1,0c0,0,0.1-0.1,0.1-0.1c0.1-0.2,0.2-0.4,0.4-0.6c0,0,0-0.1,0.1-0.2
	c0.1-0.2,0.2-0.2,0.4-0.2c-0.2,0.4-0.5,0.8-0.7,1.1c0,0-0.1,0.1-0.1,0.1c0,0.1-0.1,0.2-0.2,0.3c0,0.1-0.1,0.1-0.1,0.2
	c0,0.1-0.1,0.3-0.2,0.4c-0.1,0.2-0.3,0.3-0.4,0.5c-0.2,0.2-0.3,0.3-0.4,0.5c0,0.1-0.1,0.1-0.1,0.2s-0.2,0.3-0.4,0.4c0,0-0.1,0-0.1,0
	c0,0,0-0.1,0-0.1c0.1-0.1,0.1-0.2,0.2-0.3c0.1-0.1,0.1-0.2,0.2-0.3c0.2-0.2,0.3-0.4,0.4-0.6c0,0,0-0.1,0-0.1c0,0,0-0.1-0.1-0.1
	c0,0,0,0,0,0c0,0-0.1,0-0.1,0.1c-0.2,0.3-0.4,0.5-0.6,0.7c-0.2,0.2-0.4,0.4-0.6,0.6c-0.2,0.2-0.3,0.4-0.5,0.5L85,42.6l-0.7,0.7
	c0,0,0,0.1,0,0.1c0,0,0.1,0,0.1,0s0.2,0,0.3-0.2c0,0,0-0.1,0.1-0.1c0.1,0,0.1-0.1,0.2-0.2c0.1-0.1,0.2-0.2,0.4-0.2l0,0
	c-0.1,0.3-0.3,0.5-0.6,0.7c-0.1,0-0.1,0.1-0.2,0.1c-0.1,0.2-0.3,0.3-0.5,0.4c-0.2,0.1-0.3,0.2-0.5,0.2c-0.1,0-0.1,0.1-0.2,0.1
	c-0.3,0.2-0.5,0.4-0.7,0.6c-0.1,0.1-0.2,0.1-0.2,0.2c-0.3,0.1-0.5,0.3-0.8,0.5c-0.1,0.1-0.2,0.2-0.3,0.2c-0.1,0-0.1,0.1-0.2,0.1
	c0,0-0.1,0.1-0.1,0.1s0.1,0.1,0.1,0.1c0.1,0,0.1,0,0.2,0c0.3-0.1,0.6-0.3,0.9-0.4c0,0,0.1,0,0.2-0.1c0.2-0.1,0.3-0.2,0.5-0.3
	l0.2-0.2c0.3-0.2,0.6-0.5,1-0.7c0.2-0.2,0.5-0.3,0.7-0.6l0.1-0.1c0.3-0.3,0.6-0.6,0.9-0.9c0,0,0-0.1,0.1-0.1
	c0.1-0.1,0.3-0.2,0.3-0.3c0.1-0.1,0.1-0.2,0.3-0.1c0,0,0.1,0,0.1,0c0.1-0.1,0.3-0.2,0.4-0.4c0.1-0.2,0.2-0.3,0.3-0.5
	c0.1-0.1,0.2-0.2,0.3-0.3L87.9,40.7z M44.1,58.9L44.1,58.9c0-0.1,0-0.1,0-0.2c0-0.1,0.1-0.1,0.1-0.1c0,0,0,0,0,0
	c0.3,0.1,0.6-0.1,0.7-0.4c0.1-0.2,0.3-0.5,0.4-0.7c0-0.1,0.1-0.2,0.2-0.3c0.1-0.1,0.2-0.2,0.3-0.3c0.2-0.2,0.3-0.4,0.4-0.6
	c0.1-0.2,0.2-0.5,0.2-0.7c0-0.1,0.1-0.2,0.2-0.2c0,0,0.1,0,0.2,0c0.1-0.1,0.2-0.2,0.2-0.3c0.2-0.3,0.3-0.5,0.4-0.8
	c0-0.1,0.1-0.1,0.1-0.2l0.1-0.1c0.2-0.2,0.4-0.5,0.4-0.8c0-0.1,0-0.2,0-0.2c0.1-0.2,0.2-0.4,0.3-0.6c0-0.1,0-0.1,0-0.2
	c0-0.1,0-0.3,0-0.4c0-0.1,0-0.2-0.1-0.3c-0.1-0.1-0.2-0.1-0.3-0.1c0,0-0.1,0-0.1,0.1c-0.1,0.1-0.3,0.2-0.4,0.4
	c-0.2,0.2-0.4,0.4-0.7,0.5l-0.1,0.1c-0.1,0.1-0.2,0.1-0.4,0.1c-0.1,0-0.1,0-0.2,0c-0.1,0-0.3,0.1-0.4,0.1c-0.2,0.1-0.4,0.1-0.6,0
	c-0.1-0.1-0.2-0.1-0.3-0.1c-0.2,0-0.3,0.1-0.5,0.1c0,0-0.1,0.1-0.1,0.1c0,0,0,0.1,0,0.2c0.1,0.1,0.2,0.2,0.3,0.2
	c0.2,0.1,0.4,0.2,0.6,0.4c0.1,0.1,0.1,0.1,0.2,0.2c0.1,0.1,0.1,0.2,0,0.4c0,0.1,0,0.1,0,0.2c0.1,0.2,0.2,0.5,0.4,0.6
	c0,0,0.1,0,0.1,0c0.1,0,0.2,0,0.2,0s0.1,0.1,0.2,0.2l0.1,0.1c0,0,0.1,0.1,0.1,0.1c0,0,0,0.1,0,0.1c0,0,0,0-0.1,0
	c-0.2,0-0.3-0.1-0.5,0c0,0-0.1,0-0.1,0c-0.1-0.1-0.3-0.2-0.4-0.3s-0.5-0.5-0.3-0.9c0-0.1,0-0.2,0-0.2c-0.1-0.2-0.2-0.3-0.4-0.4
	c-0.2-0.1-0.3-0.2-0.5-0.3c-0.1-0.1-0.2-0.2-0.2-0.4c0-0.2,0-0.4,0-0.7c0-0.1,0-0.2,0.1-0.3c0.1-0.3,0.3-0.5,0.5-0.8
	c0.1-0.1,0.1-0.2,0.1-0.3c0-0.1,0-0.2,0-0.3c0-0.1,0-0.2-0.1-0.3c-0.1,0-0.2,0-0.3,0c-0.1,0-0.2,0-0.2-0.1c0-0.1-0.1-0.2-0.2-0.2
	l-0.2-0.2c0-0.1-0.1-0.1-0.1-0.2c0-0.1,0-0.1,0.1-0.1s0.1,0,0.1,0c0,0,0-0.1,0-0.1l0-0.3c-0.2-0.2-0.2-0.4,0-0.6c0,0,0,0,0,0
	l0.3-0.3c0.1-0.1,0.1-0.2,0-0.3c0,0,0-0.1,0-0.1c0-0.2-0.2-0.4-0.4-0.5c0,0-0.1-0.1-0.1-0.1c-0.1-0.1-0.3-0.2-0.5-0.3
	c-0.3-0.2-0.6-0.4-0.8-0.6c-0.1-0.1-0.2-0.2-0.3-0.3c-0.3-0.2-0.6-0.5-1-0.6c-0.2-0.1-0.5-0.1-0.7-0.2h0c-0.4,0-0.7,0-1.1-0.1
	c-0.2,0-0.4-0.1-0.6-0.2c-0.1-0.1-0.2-0.1-0.3,0c-0.3,0.2-0.5,0.4-0.5,0.7c0,0.1-0.1,0.2-0.2,0.3c0,0-0.1,0.1-0.1,0.1
	c0,0.1-0.1,0.2-0.1,0.2c-0.1,0.2-0.2,0.4-0.3,0.6c0,0.1-0.1,0.2-0.1,0.4s-0.3,0.5-0.4,0.7c-0.1,0.2-0.2,0.4-0.3,0.6
	c-0.1,0.2-0.1,0.4-0.3,0.6c0,0.1,0,0.1,0,0.2c0.1,0.1,0.1,0.3,0,0.4c0,0-0.1,0-0.1,0c0,0,0,0,0,0l0-0.3c0,0,0-0.1-0.1,0
	s-0.1,0-0.1,0c0,0.1,0,0.3,0,0.4c0,0.2,0.1,0.5,0.1,0.7c0.1,0.3,0.3,0.6,0.5,0.7c0.1,0,0.1,0.1,0.1,0.2c0.1,0.2,0.1,0.3,0.2,0.4
	c0.1,0.1,0.2,0.3,0.2,0.4c0,0,0,0.1,0.1,0.1l0.6,0.6c0.1,0.1,0.2,0.3,0.2,0.4c0,0.1,0.1,0.3,0.2,0.4l0.2,0.2c0.1,0.1,0.1,0.3,0,0.4
	c-0.1,0.1-0.1,0.2-0.1,0.3c0,0.1,0,0.1,0,0.2c0,0.1,0,0.2-0.1,0.3c-0.1,0.1-0.2,0.2-0.1,0.3c0,0,0.1,0.1,0.1,0.1
	c0.1,0,0.2,0.1,0.2,0.2c0.2,0.3,0.4,0.5,0.7,0.7c0.2,0.1,0.4,0.3,0.7,0.5c0.2,0.2,0.5,0.4,0.8,0.6s0.3,0.2,0.4,0.3
	c0.2,0.2,0.4,0.3,0.6,0.4c0,0,0.1,0,0.1,0.1c0.1,0.1,0.3,0.3,0.5,0.3c0.1,0.1,0.2,0.1,0.2,0.2l0.1,0.2c0,0.1,0.1,0.1,0.1,0.1
	c0,0,0,0,0,0c0,0,0.1,0,0.1,0.1s0,0.2,0.2,0.2s0.1,0,0.1,0.1s0,0,0,0.1l0.4,0.2c0.1,0.1,0.3,0.1,0.4,0c0.2-0.1,0.3-0.2,0.5-0.3
	c0,0,0.1-0.1,0.1-0.2S44.2,59,44.1,58.9z M47,45.3L47,45.3c0,0.1,0,0.1-0.1,0.2c0,0,0,0.1,0,0.1c0,0,0,0,0.1,0c0,0,0.1,0,0.1,0
	c0.1-0.1,0.3-0.1,0.4-0.1c0.2,0,0.5,0,0.6-0.3c0-0.1,0.1-0.2,0.2-0.2c0.1,0,0.3-0.1,0.4-0.2c0.1-0.1,0.2-0.1,0.3-0.2
	c0.2-0.1,0.3-0.2,0.4-0.3c0.1-0.2,0.3-0.3,0.4-0.4c0,0,0.1-0.1,0.1-0.1c0.2,0,0.3-0.1,0.5-0.2c0.1-0.1,0.2-0.1,0.3-0.2
	c0.1-0.1,0.2-0.2,0.3-0.2c0.1,0,0.1,0,0.2,0c0.1,0,0.1,0.1,0.1,0.1c0,0,0,0.1,0,0.1c-0.1,0.1-0.1,0.2-0.1,0.3c0,0.1,0,0.2,0,0.3
	c0,0.1,0,0.1-0.1,0.2c-0.1,0.1-0.1,0.2-0.1,0.3c0,0.1,0,0.1,0,0.2c-0.1,0.2-0.1,0.3-0.1,0.5c0,0.2,0,0.4-0.1,0.5
	c-0.1,0.1-0.2,0.2-0.3,0.2h-0.1c-0.1,0-0.3,0.1-0.2,0.2c0,0,0,0.1,0,0.1c0.1,0.1,0,0.2-0.1,0.3c-0.1,0.1-0.1,0.2-0.2,0.3
	c0,0.1-0.1,0.3-0.2,0.4c-0.1,0.2-0.2,0.3-0.3,0.5l0,0l0,0c0,0,0.1,0,0.1,0c0.2-0.2,0.5-0.2,0.8-0.1c0.1,0,0.3,0,0.4,0
	c0.1-0.1,0.3,0,0.4,0.1c0.2,0.1,0.3,0.2,0.5,0.4c0.2,0.1,0.2,0.3,0.2,0.5c0,0.1,0,0.3,0.1,0.4c0,0,0,0.1,0.1,0.1c0,0,0-0.1,0-0.1
	c0,0,0-0.1,0-0.1s0,0,0,0c0,0,0.1,0,0.1,0c0.1,0,0.1,0.1,0.1,0.2s-0.1,0.3-0.2,0.5C52,49.7,52,49.8,52,49.9l-0.2,0.8
	c0,0.1,0,0.1-0.1,0.2l-0.2,0.3c-0.1,0.2-0.2,0.4-0.4,0.5c-0.1,0.1-0.2,0.2-0.3,0.3c-0.1,0.2-0.3,0.3-0.5,0.4c-0.1,0-0.2,0.1-0.3,0.2
	c-0.1,0.1-0.3,0.1-0.5,0.1c-0.1,0-0.1,0-0.2,0c-0.1,0-0.3,0-0.4-0.1l-0.1-0.1c0,0-0.1,0-0.1,0c0,0,0,0.1-0.1,0.1
	c-0.1,0.2-0.1,0.4-0.1,0.7c0,0.1,0.1,0.2,0.2,0.2c0.1,0,0.2,0.1,0.2,0.2c0,0.1,0,0.3,0,0.4c0,0.2-0.1,0.3-0.2,0.5
	c0,0.1,0,0.2-0.1,0.3c0,0.2-0.2,0.4-0.3,0.7c0,0.1,0,0.1-0.1,0.1c-0.1,0.1-0.2,0.3-0.2,0.5c0,0.1,0,0.1,0,0.2
	c-0.2,0.3-0.3,0.5-0.6,0.7c-0.1,0.1-0.2,0.2-0.4,0.2c-0.2,0-0.3,0.1-0.3,0.2c-0.1,0.3-0.2,0.7-0.2,1c0,0.2,0,0.4-0.1,0.5
	c0,0.1,0,0.3,0,0.4c0.1,0.2,0.1,0.5,0.1,0.8c0,0.2,0,0.3,0,0.5c0,0.1,0,0.3,0.1,0.4c0.1,0.2,0.1,0.3,0.2,0.5
	c0.1,0.2,0.2,0.3,0.4,0.3c0.2,0.1,0.4,0.2,0.5,0.3c0.1,0.1,0.3,0.1,0.4,0.1l0.2-0.1l0.2-0.1c0,0,0.1,0,0.1,0l0,0l0,0
	c-0.1,0-0.1,0-0.2,0c-0.1,0-0.2,0.1-0.2,0.2s0.1,0.1,0.2,0.1s0.3,0,0.3-0.2s0.1-0.1,0.2-0.1c0.2,0,0.4,0,0.6-0.1
	c0.2-0.1,0.5-0.2,0.7-0.2h0.1c0.2-0.1,0.5-0.3,0.7-0.4c0.3-0.2,0.6-0.4,0.9-0.5c0.1,0,0.2,0,0.3,0c0.3,0.1,0.6,0.2,0.9,0.3
	c0.2,0.1,0.5,0.1,0.7,0.1c0.3-0.1,0.5-0.1,0.8,0c0.1,0,0.2,0,0.3,0c0.2,0,0.4-0.1,0.6-0.1c0.1,0,0.1,0,0.2,0l0.4,0.3
	c0.1,0.1,0.3,0.2,0.4,0.1c0,0,0,0,0.1-0.1c0-0.1,0.1-0.1,0.2-0.1c0.2,0,0.4-0.1,0.5-0.2c0.1-0.1,0.1-0.2,0.2-0.4
	c0.1-0.1,0.1-0.3,0.1-0.5c0-0.1,0-0.2,0-0.2c0-0.1,0-0.3,0-0.4c0-0.2,0-0.3,0-0.4c0-0.1,0-0.2,0-0.3c0-0.2,0.1-0.3,0-0.5
	c0-0.1,0-0.1,0-0.2c0.1-0.2,0.1-0.4,0.2-0.6c0.1-0.1,0.1-0.3,0.2-0.4l0.5-0.6l0.2-0.2c0.1-0.1,0.1-0.3,0.2-0.4
	c0-0.1-0.1-0.2-0.1-0.3c0-0.1,0-0.1-0.1-0.2l-0.1-0.1c0,0-0.1,0-0.1,0c0,0,0,0,0,0l-0.2,0.1c-0.1,0-0.2,0-0.2,0c0,0,0-0.1,0-0.1
	c0-0.1,0-0.2,0-0.2c0-0.2-0.1-0.3-0.2-0.5c-0.2-0.1-0.4-0.2-0.7-0.3c-0.2,0-0.4-0.1-0.5-0.2c0-0.1-0.1-0.1-0.2-0.1
	c-0.2-0.1-0.4-0.2-0.5-0.4c-0.2-0.2-0.4-0.3-0.6-0.3c-0.1,0-0.2-0.1-0.2-0.1c-0.1-0.1-0.3-0.2-0.4-0.3c-0.1,0-0.1-0.1-0.2-0.2
	c-0.1-0.2-0.2-0.3-0.4-0.4c-0.1,0-0.2-0.1-0.2-0.2c0,0,0-0.1,0-0.1c0-0.2-0.1-0.3-0.2-0.3c-0.1-0.1-0.2-0.1-0.3-0.2
	c-0.1-0.1-0.1-0.2,0-0.3c0.1-0.1,0.2-0.1,0.3,0l0.1,0.1c0.1,0.1,0.3,0.2,0.4,0.2c0.1,0,0.2,0.1,0.2,0.2c0.1,0.1,0.2,0.1,0.3,0.1
	c0.1,0,0.1,0,0.2,0c0.2,0,0.4,0.1,0.5,0.3c0.1,0.1,0.2,0.2,0.4,0.3c0.1,0.1,0.1,0.1,0.2,0.2c0.2,0.2,0.4,0.4,0.6,0.6
	c0.2,0.2,0.4,0.3,0.6,0.3c0.2,0.1,0.3,0.2,0.4,0.3c0.1,0.1,0.2,0.2,0.3,0.3c0.1,0,0.1,0.1,0.2,0.1c0.1,0,0.2,0,0.1-0.2
	s-0.1-0.1,0-0.2l0,0h0l0,0c0.1,0.1,0.1,0.1,0.2,0s0.2-0.3,0.3-0.5l0.2-0.3c0,0,0,0,0,0h-0.1c0,0-0.1,0-0.1,0
	C59.1,52.8,59,52.9,59,53c0,0-0.1,0.1-0.1,0.1c0,0,0-0.1,0-0.1c0.1-0.2,0.2-0.4,0.4-0.5c0.3-0.2,0.6-0.4,0.9-0.7
	c0.1-0.2,0.2-0.3,0.3-0.5c0.1-0.1,0.1-0.2,0.1-0.3c0-0.1,0-0.2,0.1-0.3c0.1-0.1,0.1-0.3,0.1-0.5c0-0.1-0.1-0.2-0.2-0.2
	c-0.1,0-0.1-0.1-0.2-0.1c-0.1-0.2-0.2-0.2-0.3-0.4c-0.2-0.2-0.4-0.4-0.7-0.4l-1-0.3c-0.1,0-0.2,0-0.3,0l-0.1,0c-0.1,0-0.1,0-0.2,0
	c-0.2-0.1-0.3-0.1-0.5-0.1c-0.1,0-0.1,0-0.2,0c-0.2,0-0.3-0.1-0.4-0.3c-0.1-0.1-0.2-0.2-0.3-0.3c-0.1-0.1-0.1-0.1-0.1-0.2
	c0,0,0-0.1,0.1-0.1c0,0,0.1,0,0.1,0c0.1,0.1,0.1,0.1,0.1,0.2c0,0.1,0.1,0.1,0.2,0.1c0.1,0,0.2-0.1,0.3-0.1c0.2-0.2,0.5-0.4,0.8-0.6
	c0.2-0.2,0.4-0.4,0.5-0.6c0-0.1,0.1-0.1,0.1-0.2c0.2-0.2,0.4-0.4,0.5-0.7v-0.1c0.2-0.3,0.3-0.5,0.3-0.8c0-0.2,0.1-0.4,0.1-0.5
	c0.1-0.3,0.2-0.7,0.1-1c0-0.1,0-0.1,0-0.2c0-0.5-0.1-0.9-0.3-1.3l-0.1-0.2c-0.1-0.3-0.3-0.6-0.5-0.8c-0.1-0.2-0.3-0.3-0.4-0.4
	c-0.3-0.2-0.5-0.4-0.8-0.6s-0.4-0.3-0.6-0.4l-0.3-0.3c-0.2-0.2-0.5-0.2-0.6,0c0,0,0,0,0,0c-0.1,0.2-0.2,0.2-0.3,0.4
	c-0.1,0.1-0.2,0.2-0.4,0.1c-0.1-0.1-0.3-0.1-0.4,0h-0.1c-0.1,0.1-0.3,0-0.3-0.1c0,0-0.1-0.1-0.1-0.1c-0.2-0.1-0.5-0.2-0.8-0.3
	c-0.2,0-0.4-0.1-0.5-0.2c-0.2-0.1-0.3-0.2-0.5-0.3c-0.1,0-0.1-0.1-0.1-0.1c0-0.1,0-0.2,0-0.3c0-0.2-0.2-0.3-0.4-0.3c0,0,0,0-0.1,0
	l-0.2,0.1c-0.1,0.1-0.3,0.1-0.4,0c-0.2-0.1-0.4-0.2-0.6-0.3c-0.2-0.1-0.3-0.2-0.5-0.3l-0.2-0.2c-0.1-0.1-0.2-0.2-0.4-0.3
	c-0.1-0.1-0.2-0.1-0.3-0.2c-0.2-0.2-0.4-0.4-0.7-0.5c0,0-0.1,0-0.1-0.1c-0.1-0.1-0.3-0.2-0.4-0.3c-0.2-0.1-0.3-0.2-0.4-0.3
	c-0.1-0.2-0.3-0.3-0.5-0.4c-0.1-0.1-0.3-0.1-0.4,0c-0.1,0.1-0.2,0.2-0.3,0.3c-0.1,0.2-0.3,0.4-0.5,0.5c-0.1,0-0.1,0.1-0.2,0.2
	c-0.1,0.1-0.3,0.3-0.5,0.3l-0.2,0.1c-0.2,0.1-0.3,0.1-0.5,0.1c-0.2,0-0.4,0-0.6,0c-0.2,0.1-0.3,0.1-0.5,0.2
	c-0.2,0.1-0.4,0.1-0.6,0.2L42,37.7c-0.5,0.3-0.8,0.8-1,1.3c0,0.1-0.1,0.1-0.1,0.2c-0.2,0.2-0.3,0.5-0.5,0.8
	c-0.2,0.3-0.3,0.6-0.3,0.9c0,0.1,0,0.3,0,0.4c0,0.1,0,0.2,0,0.3c0,0.3,0,0.5,0.1,0.8c0.1,0.2,0.2,0.4,0.3,0.5
	c0.1,0.1,0.2,0.2,0.2,0.3c0.2,0.3,0.4,0.6,0.7,0.9c0.1,0.1,0.2,0.2,0.3,0.3c0.1,0.2,0.3,0.4,0.5,0.6c0.1,0.1,0.3,0.3,0.4,0.3
	c0.1,0,0.2,0.1,0.3,0.2c0.2,0.3,0.5,0.5,0.8,0.8l0,0c0.1,0,0.2,0.1,0.3,0.2c0.1,0.1,0.3,0.3,0.5,0.3c0.1,0,0.2,0,0.4,0
	c0.1,0.2,0.2,0.4,0.4,0.5c0,0.1,0.1,0.1,0.2,0c0,0,0,0,0,0c0.1-0.1,0.1-0.2,0.2-0.3c0,0,0-0.1,0-0.1c0,0,0-0.1-0.1-0.1
	c-0.3,0-0.5,0-0.8,0c0.1-0.1,0.2-0.1,0.3-0.1c0.2,0,0.4-0.1,0.4-0.3c0-0.2,0.2-0.3,0.4-0.4c0.1-0.1,0.2-0.1,0.4-0.1
	c0.1,0,0.1,0,0.2-0.1C46.5,45.5,46.8,45.4,47,45.3z M51.4,49.5c0-0.2,0-0.5-0.1-0.7c0-0.2-0.1-0.3-0.3-0.4c0,0,0,0,0,0l0,0
	c-0.3-0.1-0.6,0-0.8,0.2c-0.1,0-0.1,0.1-0.2,0.1c-0.2,0-0.3,0.1-0.3,0.2c-0.1,0.1-0.2,0.3-0.2,0.4c-0.1,0.1-0.1,0.2-0.1,0.3
	c0,0.1,0,0.2,0,0.2c0,0.3,0.1,0.6,0.1,0.9c0,0.2,0.2,0.5,0.4,0.5c0.1,0,0.3,0,0.4,0.1c0.1,0,0.3,0,0.4-0.1c0.2-0.2,0.3-0.4,0.5-0.7
	c0.1-0.2,0.2-0.4,0.3-0.6C51.5,49.8,51.5,49.6,51.4,49.5L51.4,49.5z M59.3,41.1c0,0,0,0.1,0,0.1c0.1,0.1,0.1,0.2,0.2,0.3
	c0.1,0.2,0.3,0.5,0.4,0.7c0.1,0.2,0.2,0.5,0.3,0.7c0,0.1,0,0.1,0,0.2c0,0.1,0,0.2,0,0.3c0,0.2,0,0.4,0.2,0.6c0.1,0,0.3-0.1,0.4-0.2
	c0.1-0.2,0.3-0.3,0.5-0.3c0,0,0.1,0,0.1-0.1c0-0.1,0-0.2-0.1-0.3L61,42.9c0,0-0.1-0.1-0.1-0.1c-0.1-0.2-0.1-0.4-0.1-0.6
	c0-0.2-0.2-0.5-0.4-0.5c-0.2-0.1-0.5-0.3-0.7-0.4l-0.1-0.1L59.3,41.1z M60.6,86.3c0,0.1,0,0.1,0,0.2c0,0.1,0.1,0.1,0.1,0.2
	c0,0,0.1,0,0.1,0c0,0,0,0,0-0.1c0.1-0.2,0.1-0.3,0.1-0.5c0.1-0.2,0.1-0.4,0.2-0.6c0.1-0.2,0.1-0.4,0.2-0.6c0.1-0.3,0.2-0.6,0.2-0.9
	c0-0.3,0-0.5,0.1-0.8c0-0.3,0.1-0.6,0.1-0.8c0-0.2,0-0.3,0.1-0.5c0-0.2,0-0.3-0.1-0.4c0,0-0.1,0-0.1,0c0,0-0.1,0-0.1,0.1
	c0,0.1,0,0.1,0,0.2c0,0.3-0.1,0.7-0.2,1c-0.1,0.2-0.1,0.5-0.2,0.7c0,0.2-0.1,0.4-0.1,0.6c0,0,0,0.1,0,0.1c0,0,0,0.1,0,0.1
	c0,0.2,0,0.3-0.1,0.5c0,0.2,0,0.3,0,0.5c0,0.2,0,0.4-0.1,0.6C60.7,86,60.7,86.2,60.6,86.3L60.6,86.3z M53.1,61.7l0.3-0.1
	c0,0,0-0.1,0-0.1c0,0-0.1-0.1-0.1-0.1h-0.2c-0.3,0-0.7,0-1,0c-0.2,0-0.5,0.1-0.6,0.3c-0.1,0.1,0,0.2,0,0.2c0,0,0.1,0,0.1,0
	c0.1,0,0.2,0,0.3,0l0.2-0.1c0.2-0.2,0.5-0.2,0.8-0.1L53.1,61.7z M55.3,52.2L55.3,52.2C55.3,52.3,55.3,52.3,55.3,52.2
	c0.1,0.3,0.3,0.4,0.5,0.6c0.1,0.1,0.2,0.1,0.3,0.2c0.1,0.1,0.3,0.1,0.4,0c0.1,0,0.1-0.1,0.1-0.2c0,0,0,0,0,0c0-0.1-0.1-0.2-0.2-0.2
	c-0.1-0.1-0.2-0.1-0.3-0.2c0,0-0.1,0-0.1,0c-0.2,0-0.4,0-0.6-0.1L55.3,52.2z M54.6,61.5h-0.1c-0.1,0-0.1,0.1,0,0.1s0,0,0,0.1
	c0.1,0.1,0.2,0.1,0.3,0.1c0.2,0,0.5,0.1,0.7,0.2c0.1,0,0.3,0,0.4,0c0.1,0,0.2-0.1,0.2-0.2s-0.1-0.2-0.2-0.2
	c-0.2-0.1-0.5-0.1-0.8-0.1c0,0-0.1,0-0.1,0C54.9,61.5,54.7,61.5,54.6,61.5L54.6,61.5z M46.3,58.1c0-0.1,0-0.3-0.1-0.4l0,0
	c0,0,0,0,0,0c0,0.2-0.1,0.3-0.1,0.5c0,0.1-0.1,0.2-0.1,0.2c0,0.2-0.1,0.4-0.3,0.5c-0.1,0.1-0.1,0.2-0.2,0.3c0,0,0,0.1,0,0.1
	c0,0,0.1,0,0.1,0c0,0,0.1,0,0.1-0.1l0.2-0.3c0,0,0.1-0.1,0.1-0.1c0.2,0,0.2,0,0.2-0.2S46.3,58.3,46.3,58.1L46.3,58.1z M82.9,54.7
	L82.9,54.7c-0.2-0.2-0.5-0.4-0.8-0.5c-0.2,0-0.3-0.1-0.5-0.2c-0.1-0.1-0.2-0.1-0.3-0.2c-0.1-0.1-0.2-0.2-0.3-0.3c0,0-0.1,0-0.1,0
	c0,0,0,0-0.1,0c0,0,0,0.1,0,0.1c0.1,0.1,0.1,0.1,0.2,0.2l0.6,0.4c0.2,0.2,0.5,0.3,0.8,0.4c0.2,0,0.3,0.1,0.4,0.2
	C82.8,54.7,82.9,54.7,82.9,54.7C83,54.7,82.9,54.7,82.9,54.7L82.9,54.7z M57.6,92.3L57.6,92.3c0.2-0.2,0.3-0.3,0.5-0.5
	c0,0,0.1-0.1,0.1-0.1c0.1-0.2,0.2-0.4,0.4-0.5c0.1-0.1,0.1-0.2,0.2-0.3l0,0l0,0c-0.1,0-0.2,0.1-0.2,0.2s-0.3,0.3-0.4,0.5
	c-0.1,0.2-0.2,0.3-0.3,0.4C57.7,92.1,57.6,92.2,57.6,92.3C57.6,92.3,57.6,92.3,57.6,92.3z M24.6,51.1c0.2,0,0.3,0,0.5-0.1
	c0.2-0.1,0.4-0.2,0.6-0.2c0.1,0,0.1-0.1,0.2-0.1v-0.1c-0.1,0-0.2,0-0.2,0c-0.4,0-0.7,0.1-1,0.3C24.6,51,24.5,51.1,24.6,51.1
	L24.6,51.1z M28,52.4c0.1,0,0.2,0,0.2-0.1c0.1-0.2,0.2-0.3,0.3-0.4l0,0l0,0c-0.2,0-0.3,0.1-0.5,0.1c-0.1,0-0.2,0.1-0.2,0.1
	c-0.1,0-0.1,0.1-0.1,0.2c0,0,0,0.1,0.1,0.1C27.9,52.4,27.9,52.4,28,52.4z M14.8,23C14.8,23,14.8,22.9,14.8,23l-0.2-0.1
	c-0.3,0.1-0.5,0.2-0.8,0.3c0,0,0,0.1,0,0.1c0,0,0,0.1,0.1,0.1H14l0.5-0.1c0.1,0,0.2-0.1,0.3-0.2C14.8,23.1,14.8,23,14.8,23z
	 M58,39.6c-0.1,0-0.1,0-0.1,0.1c0,0,0,0,0,0.1c0,0,0,0.1,0.1,0.1c0.1,0.1,0.3,0.2,0.5,0.3c0,0,0.1,0,0.1-0.1c0,0,0,0,0,0
	c0,0,0-0.1,0-0.1C58.4,39.8,58.2,39.7,58,39.6z M91.4,66.8c0-0.1,0-0.3-0.1-0.4c-0.1-0.1-0.1-0.3-0.2-0.4c0-0.1-0.1-0.1-0.1-0.2l0,0
	l0,0c0,0.1,0,0.1,0,0.2c0.1,0.2,0.2,0.5,0.2,0.8c0,0.1,0.1,0.2,0.1,0.2l0,0l0,0C91.4,66.9,91.4,66.8,91.4,66.8z M51,44.8
	C51,44.7,51,44.7,51,44.8C50.9,44.7,50.9,44.7,51,44.8c-0.2-0.1-0.3,0-0.4,0.1c-0.1,0.1-0.1,0.2-0.1,0.3c0,0.1,0.1,0.2,0.1,0.2
	c0.1,0,0.2,0,0.2-0.1c0,0,0,0,0,0C50.9,45.1,50.9,45,51,44.8L51,44.8z M57.8,39.5c0-0.1-0.1-0.1-0.1-0.2c-0.2-0.1-0.3-0.2-0.5-0.4
	c-0.1-0.1-0.2-0.1-0.2,0s0,0.1,0,0.1c0.2,0.1,0.3,0.3,0.4,0.4c0.1,0.1,0.1,0.1,0.2,0.1C57.7,39.6,57.8,39.5,57.8,39.5L57.8,39.5z
	 M24,52.7c0.2,0.1,0.3,0.1,0.5,0c0.1-0.1,0.3-0.1,0.5-0.1c0,0,0,0,0-0.1c-0.1,0-0.2,0-0.2,0C24.5,52.6,24.2,52.6,24,52.7z
	 M34.4,28.2c-0.1,0-0.1,0-0.1,0.1c0,0,0,0,0,0c0,0.1,0.1,0.2,0.2,0.2c0.1,0.1,0.2,0.1,0.2,0c0,0,0-0.1,0-0.1
	C34.6,28.3,34.5,28.2,34.4,28.2z M38,55.8c0-0.1-0.1-0.2-0.2-0.2c-0.1,0-0.1,0-0.2,0c-0.1,0-0.1,0.1-0.1,0.2c0,0,0,0,0,0.1
	c0.1,0.1,0.2,0.1,0.3,0.1C37.8,55.9,38,55.8,38,55.8z M30.9,52.5c-0.1-0.2-0.3-0.2-0.5-0.2c0,0-0.1,0.1-0.1,0.1c0,0,0,0.1,0.1,0.1
	C30.5,52.6,30.8,52.6,30.9,52.5L30.9,52.5z M91.7,67.8C91.7,67.8,91.7,67.7,91.7,67.8c0-0.2-0.1-0.4-0.2-0.5l0,0l0,0
	C91.4,67.5,91.5,67.7,91.7,67.8L91.7,67.8L91.7,67.8C91.6,67.8,91.7,67.8,91.7,67.8z M45.8,60.4c0-0.1,0-0.1,0-0.2s-0.1,0-0.1,0.1
	c0,0.1-0.1,0.1-0.1,0.2c0,0.1,0,0.1,0.1,0.1c0.1,0,0.1,0,0.1-0.1C45.8,60.5,45.8,60.5,45.8,60.4z M41.1,44.1
	c0.1,0.1,0.1,0.1,0.2,0.2c0.1,0.1,0.2,0.2,0.3,0.2c0,0,0.1,0,0.1,0s0-0.1,0-0.1l-0.2-0.2C41.3,44.1,41.2,44.1,41.1,44.1L41.1,44.1z
	 M83,49.6c0.1-0.1,0.2-0.1,0.4-0.1c0,0,0,0,0.1,0s0.1-0.1,0-0.1c0,0-0.1,0-0.1,0L83,49.5C83,49.5,82.9,49.5,83,49.6L83,49.6L83,49.6
	z M43.6,63.9c-0.1,0-0.2,0.2-0.2,0.3c0,0,0,0,0,0c0,0,0.1,0,0.1,0c0,0,0,0,0,0l0.2-0.2C43.7,64,43.7,63.9,43.6,63.9
	C43.6,63.9,43.6,63.9,43.6,63.9z M50.1,51.9c0-0.1-0.1-0.2-0.2-0.2c0,0-0.1,0-0.1,0.1c0,0,0,0,0,0.1C49.8,51.9,49.9,52,50.1,51.9
	C50,52,50.1,51.9,50.1,51.9L50.1,51.9z M61.2,46.2C61.2,46.2,61.2,46.1,61.2,46.2c-0.2-0.1-0.3,0-0.3,0.1c0,0,0,0.1,0,0.1
	c0,0,0.1,0,0.1,0C61.1,46.3,61.2,46.3,61.2,46.2L61.2,46.2z M87.5,40.2l0.3-0.3c0,0,0-0.1,0-0.1c0,0,0,0,0-0.1l0,0
	C87.7,39.8,87.6,39.9,87.5,40.2L87.5,40.2z M93.9,74.5L93.9,74.5c0-0.1-0.1-0.1-0.2-0.1c-0.1,0-0.1,0.1-0.1,0.2c0,0,0,0,0,0
	c0,0,0,0.1,0.1,0.1C93.7,74.6,93.8,74.5,93.9,74.5L93.9,74.5z M45.5,61.3L45.5,61.3c0-0.1,0-0.1-0.1-0.1c0,0-0.1,0-0.1,0.1
	c0,0.1,0,0.1,0,0.2c0,0,0,0.1,0.1,0.1C45.4,61.5,45.5,61.5,45.5,61.3C45.5,61.3,45.5,61.4,45.5,61.3z M77,65L77,65
	c-0.1,0.1,0,0.2,0.1,0.2C77.1,65.1,77.1,65,77,65z M38.4,23.5c0-0.1,0-0.1,0-0.2l0,0C38.4,23.3,38.4,23.4,38.4,23.5
	c0,0.1,0,0.1,0,0.2S38.4,23.6,38.4,23.5z M65.7,26.3c-0.1,0.1-0.1,0.2,0,0.3l0,0c0,0,0,0,0-0.1S65.7,26.4,65.7,26.3z M45.6,36.3
	L45.6,36.3c0.1,0,0.2,0,0.1-0.1C45.7,36.2,45.7,36.2,45.6,36.3C45.7,36.2,45.6,36.2,45.6,36.3L45.6,36.3L45.6,36.3L45.6,36.3z
	 M19.3,77.8L19.3,77.8c0.1,0,0.1,0,0.2,0c0,0,0,0,0-0.1c0,0,0,0,0,0C19.4,77.7,19.4,77.7,19.3,77.8C19.3,77.8,19.3,77.8,19.3,77.8
	C19.3,77.8,19.3,77.8,19.3,77.8z M35.1,28.8C35.1,28.8,35.1,28.8,35.1,28.8C35.1,28.7,35.1,28.7,35.1,28.8c-0.1-0.1-0.1,0-0.1,0
	c0,0,0,0.1,0,0.1C35,28.9,35,28.9,35.1,28.8C35.1,28.9,35.1,28.9,35.1,28.8C35.1,28.9,35.1,28.9,35.1,28.8L35.1,28.8z M18.3,77.3
	L18.3,77.3c0.1,0,0.2,0,0.1-0.1S18.4,77.3,18.3,77.3C18.3,77.3,18.3,77.3,18.3,77.3L18.3,77.3L18.3,77.3L18.3,77.3z M22.3,48.9
	c0,0-0.1,0.1-0.1,0.1l0,0C22.2,49,22.3,49,22.3,48.9z M24.2,49.1L24.2,49.1C24.2,49.1,24.1,49.1,24.2,49.1
	C24.1,49.1,24.1,49.1,24.2,49.1L24.2,49.1L24.2,49.1L24.2,49.1L24.2,49.1z M87.7,25.5c0,0,0.1,0,0.1,0l0,0l0,0H87.7
	C87.7,25.5,87.7,25.5,87.7,25.5z M62.7,31.8L62.7,31.8c0,0,0-0.1,0-0.1l0,0C62.7,31.7,62.7,31.7,62.7,31.8
	C62.7,31.8,62.7,31.8,62.7,31.8L62.7,31.8z M55.4,63.1L55.4,63.1c-0.1,0-0.1,0-0.1,0C55.3,63.2,55.3,63.2,55.4,63.1
	C55.4,63.1,55.4,63.1,55.4,63.1z M57.8,63.8L57.8,63.8C57.8,63.8,57.7,63.8,57.8,63.8C57.7,63.8,57.7,63.9,57.8,63.8
	C57.7,63.9,57.8,63.8,57.8,63.8L57.8,63.8z M88.8,59.1C88.8,59.1,88.8,59,88.8,59.1C88.7,59,88.7,59.1,88.8,59.1
	C88.8,59.1,88.7,59.1,88.8,59.1L88.8,59.1z M24.6,19L24.6,19L24.6,19L24.6,19z M71.2,50.4C71.1,50.4,71.1,50.4,71.2,50.4
	C71.1,50.4,71.1,50.4,71.2,50.4L71.2,50.4C71.1,50.4,71.2,50.4,71.2,50.4z M24.5,19.5C24.5,19.5,24.5,19.5,24.5,19.5L24.5,19.5
	L24.5,19.5L24.5,19.5z M61.3,44.1L61.3,44.1L61.3,44.1L61.3,44.1z M19.2,77.3L19.2,77.3L19.2,77.3L19.2,77.3z M78.6,22.4L78.6,22.4
	C78.6,22.4,78.6,22.4,78.6,22.4C78.5,22.4,78.5,22.4,78.6,22.4L78.6,22.4z M19.9,46.3L19.9,46.3L19.9,46.3L19.9,46.3z M49.5,52
	L49.5,52L49.5,52L49.5,52z M55.8,4.9L55.8,4.9L55.8,4.9L55.8,4.9z M84.2,43.5L84.2,43.5L84.2,43.5L84.2,43.5z M38.5,88.3L38.5,88.3
	L38.5,88.3L38.5,88.3z M37.6,87L37.6,87L37.6,87z M84.9,45.3L84.9,45.3L84.9,45.3L84.9,45.3z M45.7,60.8L45.7,60.8L45.7,60.8
	L45.7,60.8z M52.8,38.3L52.8,38.3L52.8,38.3L52.8,38.3z M45.3,59.5L45.3,59.5L45.3,59.5L45.3,59.5z M87.2,25.3L87.2,25.3L87.2,25.3
	L87.2,25.3z M25.6,93.1L25.6,93.1L25.6,93.1L25.6,93.1z M21.9,48.4L21.9,48.4L21.9,48.4z M58.3,92.4L58.3,92.4L58.3,92.4z
	 M21.2,51.8L21.2,51.8L21.2,51.8L21.2,51.8z M77.5,78.4L77.5,78.4L77.5,78.4L77.5,78.4z M24.5,20.1L24.5,20.1L24.5,20.1L24.5,20.1z
	 M55.8,39.5L55.8,39.5L55.8,39.5L55.8,39.5z M24.4,24L24.4,24L24.4,24z M59.2,47.6L59.2,47.6L59.2,47.6z M65.8,27.3L65.8,27.3z
	 M20.5,46.7L20.5,46.7z"/>
</svg>
